G04*
G04 #@! TF.GenerationSoftware,Altium Limited,Altium Designer,19.1.6 (110)*
G04*
G04 Layer_Physical_Order=2*
G04 Layer_Color=16711680*
%FSLAX25Y25*%
%MOIN*%
G70*
G01*
G75*
%ADD34R,0.05906X0.01378*%
%ADD44C,0.00591*%
%ADD46C,0.06000*%
%ADD47R,0.06299X0.06299*%
%ADD48C,0.06299*%
%ADD49R,0.13780X0.05906*%
%ADD50R,0.05906X0.13780*%
%ADD51R,0.05906X0.15748*%
%ADD52C,0.03150*%
%ADD53C,0.00100*%
%ADD54R,0.03937X0.03543*%
D34*
X51772Y102327D02*
D03*
Y100358D02*
D03*
Y98390D02*
D03*
Y96421D02*
D03*
Y94453D02*
D03*
Y88547D02*
D03*
Y86579D02*
D03*
Y84610D02*
D03*
Y82642D02*
D03*
Y80673D02*
D03*
D44*
X150300Y95200D02*
X187411Y58089D01*
X55200Y102327D02*
X55700D01*
X55200D02*
X55700Y101827D01*
Y81600D02*
Y101827D01*
X54773Y80673D02*
X55700Y81600D01*
X44000Y26526D02*
X85826D01*
X136668Y47349D02*
X136919Y47600D01*
X224900D01*
X224970Y47530D01*
X228400D01*
X51772Y102327D02*
X55200D01*
X51772Y80673D02*
X54773D01*
X104900Y91530D02*
X108570Y95200D01*
X150300D01*
X104900Y81530D02*
X113081Y89711D01*
X136668D01*
X51772Y86579D02*
X55059D01*
Y89000D01*
D46*
X267000Y123000D02*
D03*
Y5000D02*
D03*
X5000D02*
D03*
Y123000D02*
D03*
D47*
X228400Y47530D02*
D03*
X104900Y91530D02*
D03*
X233400Y85030D02*
D03*
D48*
X228400Y57530D02*
D03*
X104900Y81530D02*
D03*
Y71530D02*
D03*
X233400Y95030D02*
D03*
D49*
X44000Y26526D02*
D03*
D50*
X32189Y45030D02*
D03*
D51*
X55811D02*
D03*
D52*
X137500Y47500D02*
D03*
Y89500D02*
D03*
D53*
X55700Y102327D02*
D03*
X85826Y26526D02*
D03*
X187411Y58089D02*
D03*
X55059Y89000D02*
D03*
D54*
X52756Y106559D02*
D03*
Y76441D02*
D03*
M02*
