G04*
G04 #@! TF.GenerationSoftware,Altium Limited,Altium Designer,19.1.6 (110)*
G04*
G04 Layer_Color=32768*
%FSLAX25Y25*%
%MOIN*%
G70*
G01*
G75*
%ADD12C,0.00787*%
%ADD56C,0.00394*%
%ADD57C,0.00197*%
D12*
X127735Y27109D02*
X132065D01*
Y36951D01*
X127735D02*
X132065D01*
X127735Y27109D02*
Y36951D01*
X151335Y27079D02*
X155665D01*
Y36921D01*
X151335D02*
X155665D01*
X151335Y27079D02*
Y36921D01*
X101827Y34744D02*
X105173D01*
Y40256D01*
X101827D02*
X105173D01*
X101827Y34744D02*
Y40256D01*
X204360Y103082D02*
X213440D01*
X204360Y84948D02*
Y103082D01*
Y84948D02*
X213440D01*
Y103082D01*
D56*
X160256Y91760D02*
X164193D01*
X162224Y89791D02*
Y93728D01*
X76531Y89000D02*
X80469D01*
X78500Y87031D02*
Y90969D01*
X179941Y28130D02*
Y31870D01*
X178071Y30000D02*
X181811D01*
X103668Y54806D02*
Y58546D01*
X101798Y56676D02*
X105538D01*
X200000Y53571D02*
Y57311D01*
X198130Y55441D02*
X201870D01*
X78931Y15530D02*
X82869D01*
X80900Y13561D02*
Y17499D01*
X44000Y43062D02*
Y46999D01*
X42032Y45030D02*
X45969D01*
D57*
X23032Y91500D02*
X26969D01*
X25000Y89532D02*
Y93469D01*
X171476Y83689D02*
Y99831D01*
X152972Y83689D02*
Y99831D01*
Y83689D02*
X171476D01*
X152972Y99831D02*
X171476D01*
X260400Y48562D02*
Y52499D01*
X258432Y50530D02*
X262369D01*
X248313Y33109D02*
X270361D01*
Y67951D01*
X248313D02*
X270361D01*
X248313Y33109D02*
Y67951D01*
X260000Y90532D02*
Y94469D01*
X258032Y92500D02*
X261969D01*
X247913Y75079D02*
X269961D01*
Y109921D01*
X247913D02*
X269961D01*
X247913Y75079D02*
Y109921D01*
X90705Y83488D02*
Y94512D01*
X66295Y83488D02*
Y94512D01*
Y83488D02*
X90705D01*
X66295Y94512D02*
X90705D01*
X175413Y27638D02*
X184469D01*
X175413Y32362D02*
X184469D01*
Y27638D02*
Y32362D01*
X175413Y27638D02*
Y32362D01*
X228400Y50562D02*
Y54499D01*
X226432Y52530D02*
X230369D01*
X222317Y41152D02*
X234483D01*
Y63908D01*
X222317D02*
X234483D01*
X222317Y41152D02*
Y63908D01*
X104900Y79562D02*
Y83499D01*
X102932Y81530D02*
X106869D01*
X110983Y65152D02*
Y97908D01*
X98817Y65152D02*
X110983D01*
X98817D02*
Y97908D01*
X110983D01*
X233400Y88062D02*
Y91999D01*
X231432Y90030D02*
X235369D01*
X227317Y78652D02*
X239483D01*
Y101408D01*
X227317D02*
X239483D01*
X227317Y78652D02*
Y101408D01*
X99534Y49983D02*
X107802D01*
X99534Y63369D02*
X107802D01*
X99534Y49983D02*
Y63369D01*
X107802Y49983D02*
Y63369D01*
X197638Y50913D02*
X202362D01*
X197638Y59969D02*
X202362D01*
X197638Y50913D02*
Y59969D01*
X202362Y50913D02*
Y59969D01*
X93105Y10018D02*
Y21042D01*
X68695Y10018D02*
Y21042D01*
Y10018D02*
X93105D01*
X68695Y21042D02*
X93105D01*
X1480Y23180D02*
Y63140D01*
X59158D01*
X1480Y23180D02*
X59158D01*
Y63140D01*
M02*
