%FSTAX23Y23*%
%MOIN*%
%SFA1B1*%

%IPPOS*%
%ADD20R,0.031500X0.031500*%
%ADD21R,0.019680X0.015750*%
%ADD23R,0.071110X0.051360*%
%ADD34R,0.059060X0.013780*%
%ADD35R,0.039370X0.046460*%
%ADD36R,0.051180X0.027560*%
%ADD37R,0.062990X0.031890*%
%ADD38R,0.118110X0.082680*%
%ADD39R,0.078740X0.078740*%
%ADD40R,0.029530X0.033470*%
%ADD41R,0.041340X0.035430*%
%ADD42R,0.033470X0.029530*%
%ADD43C,0.000500*%
%ADD44C,0.005910*%
%ADD45C,0.000250*%
%ADD46C,0.060000*%
%ADD47R,0.062990X0.062990*%
%ADD48C,0.062990*%
%ADD49R,0.137800X0.059060*%
%ADD50R,0.059060X0.137800*%
%ADD51R,0.059060X0.157480*%
%ADD52C,0.031500*%
%ADD53C,0.001000*%
%LNpcb1_(1)-1*%
%LPD*%
G54D20*
X01299Y00349D03*
Y0029D03*
X01535Y00349D03*
Y0029D03*
G54D21*
X01035Y0039D03*
Y00359D03*
G54D23*
X02089Y00885D03*
Y00995D03*
G54D34*
X00517Y01023D03*
Y01003D03*
Y00983D03*
Y00964D03*
Y00944D03*
Y00924D03*
Y00905D03*
Y00885D03*
Y00865D03*
Y00846D03*
Y00826D03*
Y00806D03*
G54D35*
X00527Y00769D03*
Y0106D03*
G54D36*
X01669Y0088D03*
Y00917D03*
Y00955D03*
X01575D03*
Y0088D03*
G54D37*
X02522Y00529D03*
Y0048D03*
X02518Y00949D03*
Y009D03*
G54D38*
X02636Y0063D03*
Y0038D03*
X02632Y0105D03*
Y008D03*
G54D39*
X00863Y0089D03*
X00706D03*
X00887Y00155D03*
X0073D03*
G54D40*
X01825Y003D03*
X01773D03*
G54D41*
X01036Y00538D03*
Y00595D03*
G54D42*
X02Y00528D03*
Y0058D03*
G54D43*
X01999Y00529D02*
X02009D01*
X02527Y0048D02*
X02555Y00508D01*
X02522Y00475D02*
X02525Y00478D01*
X02527Y0048*
X00321Y00383D02*
Y0045D01*
X00486Y00808D02*
X00488Y00806D01*
X00486Y00808D02*
Y01021D01*
X02522Y0048D02*
X02527D01*
X00488Y00806D02*
X00517D01*
X02555Y00508D02*
Y00629D01*
G54D44*
X01535Y00295D02*
X01778D01*
X01299Y0029D02*
X01535D01*
X01299Y0029D02*
X01299Y0029D01*
X01535Y00295D02*
Y003D01*
X01299Y00349D02*
X01304Y00344D01*
X01289Y00359D02*
X01299Y00349D01*
X01035Y00359D02*
X01289D01*
X02155Y00675D02*
Y0087D01*
Y00604D02*
Y00675D01*
Y00604D02*
X02229Y00529D01*
X00517Y01023D02*
X00557D01*
X02089Y00885D02*
X0214D01*
X01036Y00443D02*
Y00538D01*
X01035Y0039D02*
X01036Y00443D01*
Y00538D02*
X01301D01*
X01366Y00473*
X00321Y0045D02*
Y00784D01*
X00344Y00806*
X00488*
X00486Y01021D02*
X00517Y01023D01*
X02334Y0085D02*
X02555Y00629D01*
X02334Y0085D02*
X02384Y009D01*
X01862Y00917D02*
X01894Y00885D01*
X01669Y00917D02*
X01862D01*
X00887Y00155D02*
X01032D01*
X01035Y00158*
X01304Y00344D02*
X01535D01*
X01611Y0042*
Y00948*
X00863Y0089D02*
X00928Y00955D01*
X02284Y00575D02*
Y009D01*
X02334Y0095*
X02289Y00995D02*
X02334Y0095D01*
X02413Y00949D02*
X02493D01*
X02019Y00995D02*
X02089D01*
X01978Y00955D02*
X02019Y00995D01*
X00558Y00327D02*
X0073Y00155D01*
X00558Y00327D02*
Y0045D01*
X01366Y00897D02*
X01462D01*
X01478Y0088*
X01036Y00595D02*
Y00649D01*
X01049Y00661*
Y00715*
X0214Y00885D02*
X02155Y0087D01*
X02009Y00529D02*
X02229D01*
X00858Y00265D02*
X01036Y00443D01*
X00321Y00383D02*
X0044Y00265D01*
X02229Y00529D02*
X02284Y00475D01*
X02522*
X02384Y009D02*
X02493D01*
X01894Y00885D02*
X02089D01*
X00928Y00955D02*
X01575D01*
X01604*
X01611Y00948*
X01035Y00158D02*
Y00359D01*
X02284Y00575D02*
X02329Y00529D01*
X02522*
X02089Y00995D02*
X02289D01*
X02334Y0095D02*
X02413D01*
X01669Y00955D02*
X01978D01*
X01874Y0058D02*
X01999D01*
X01478Y0088D02*
X01575D01*
X01669D02*
X01827D01*
X01829Y00295D02*
Y00878D01*
X0055Y0089D02*
X00706D01*
G54D45*
X02413Y0095D02*
X02413Y00949D01*
X01827Y0088D02*
X01829Y00878D01*
G54D46*
X0267Y0123D03*
Y0005D03*
X0005D03*
Y0123D03*
G54D47*
X02284Y00475D03*
X01049Y00915D03*
X02334Y0085D03*
G54D48*
X02284Y00575D03*
X01049Y00815D03*
Y00715D03*
X02334Y0095D03*
G54D49*
X0044Y00265D03*
G54D50*
X00321Y0045D03*
G54D51*
X00558Y0045D03*
G54D52*
X01375Y00475D03*
Y00895D03*
G54D53*
X00557Y01023D03*
X00858Y00265D03*
X01874Y0058D03*
X0055Y0089D03*
M02*