G04*
G04 #@! TF.GenerationSoftware,Altium Limited,Altium Designer,19.1.6 (110)*
G04*
G04 Layer_Color=65535*
%FSLAX25Y25*%
%MOIN*%
G70*
G01*
G75*
%ADD10C,0.00984*%
%ADD11C,0.01000*%
%ADD12C,0.00787*%
%ADD13R,0.03062X0.10236*%
G36*
X155795Y103554D02*
Y103549D01*
Y103527D01*
Y103499D01*
Y103461D01*
X155789Y103412D01*
Y103358D01*
X155784Y103292D01*
X155778Y103226D01*
X155762Y103079D01*
X155740Y102926D01*
X155707Y102779D01*
X155685Y102708D01*
X155664Y102642D01*
Y102637D01*
X155658Y102626D01*
X155647Y102610D01*
X155636Y102588D01*
X155604Y102528D01*
X155554Y102451D01*
X155489Y102364D01*
X155412Y102277D01*
X155314Y102184D01*
X155194Y102102D01*
X155189D01*
X155178Y102091D01*
X155161Y102085D01*
X155134Y102069D01*
X155101Y102053D01*
X155058Y102036D01*
X155014Y102020D01*
X154959Y101998D01*
X154899Y101976D01*
X154834Y101960D01*
X154763Y101943D01*
X154681Y101927D01*
X154599Y101916D01*
X154511Y101905D01*
X154315Y101894D01*
X154266D01*
X154228Y101900D01*
X154184D01*
X154129Y101905D01*
X154069Y101911D01*
X154009Y101916D01*
X153873Y101938D01*
X153725Y101971D01*
X153583Y102014D01*
X153447Y102075D01*
X153441D01*
X153430Y102085D01*
X153414Y102096D01*
X153392Y102107D01*
X153332Y102151D01*
X153261Y102211D01*
X153179Y102287D01*
X153103Y102375D01*
X153026Y102484D01*
X152966Y102604D01*
Y102610D01*
X152961Y102620D01*
X152955Y102642D01*
X152945Y102670D01*
X152934Y102702D01*
X152923Y102746D01*
X152906Y102795D01*
X152895Y102855D01*
X152884Y102921D01*
X152868Y102992D01*
X152857Y103068D01*
X152846Y103150D01*
X152835Y103243D01*
X152830Y103341D01*
X152824Y103445D01*
Y103554D01*
Y105738D01*
X153327D01*
Y103554D01*
Y103549D01*
Y103532D01*
Y103505D01*
Y103472D01*
X153332Y103434D01*
Y103385D01*
X153338Y103281D01*
X153349Y103161D01*
X153365Y103041D01*
X153387Y102926D01*
X153398Y102877D01*
X153414Y102828D01*
X153419Y102817D01*
X153430Y102790D01*
X153458Y102752D01*
X153490Y102697D01*
X153529Y102642D01*
X153583Y102582D01*
X153649Y102522D01*
X153725Y102473D01*
X153736Y102468D01*
X153763Y102451D01*
X153813Y102435D01*
X153878Y102413D01*
X153955Y102386D01*
X154053Y102369D01*
X154157Y102353D01*
X154271Y102348D01*
X154326D01*
X154359Y102353D01*
X154408D01*
X154457Y102358D01*
X154577Y102380D01*
X154708Y102408D01*
X154834Y102451D01*
X154954Y102511D01*
X155008Y102550D01*
X155058Y102593D01*
X155063Y102599D01*
X155069Y102604D01*
X155079Y102620D01*
X155096Y102642D01*
X155112Y102675D01*
X155134Y102708D01*
X155156Y102757D01*
X155178Y102806D01*
X155200Y102866D01*
X155216Y102937D01*
X155238Y103019D01*
X155254Y103106D01*
X155271Y103205D01*
X155281Y103308D01*
X155292Y103428D01*
Y103554D01*
Y105738D01*
X155795D01*
Y103554D01*
D02*
G37*
G36*
X158186Y101960D02*
X157722D01*
Y104914D01*
X157717Y104908D01*
X157689Y104886D01*
X157657Y104854D01*
X157602Y104815D01*
X157542Y104766D01*
X157465Y104712D01*
X157378Y104652D01*
X157280Y104592D01*
X157274D01*
X157269Y104586D01*
X157236Y104564D01*
X157182Y104537D01*
X157116Y104504D01*
X157039Y104466D01*
X156958Y104428D01*
X156876Y104390D01*
X156794Y104357D01*
Y104805D01*
X156799D01*
X156810Y104815D01*
X156832Y104821D01*
X156859Y104837D01*
X156892Y104854D01*
X156930Y104875D01*
X157023Y104930D01*
X157132Y104990D01*
X157241Y105067D01*
X157356Y105154D01*
X157471Y105247D01*
X157476Y105252D01*
X157482Y105258D01*
X157498Y105274D01*
X157520Y105290D01*
X157569Y105345D01*
X157635Y105411D01*
X157700Y105487D01*
X157771Y105574D01*
X157831Y105662D01*
X157886Y105754D01*
X158186D01*
Y101960D01*
D02*
G37*
G36*
X30181Y118249D02*
X29717D01*
Y118778D01*
X30181D01*
Y118249D01*
D02*
G37*
G36*
X26223Y118838D02*
X26272Y118833D01*
X26332Y118827D01*
X26392Y118822D01*
X26463Y118806D01*
X26610Y118773D01*
X26774Y118724D01*
X26856Y118691D01*
X26932Y118653D01*
X27009Y118604D01*
X27085Y118554D01*
X27091Y118549D01*
X27101Y118544D01*
X27123Y118527D01*
X27151Y118500D01*
X27178Y118473D01*
X27216Y118434D01*
X27254Y118391D01*
X27298Y118347D01*
X27342Y118292D01*
X27386Y118227D01*
X27435Y118161D01*
X27478Y118090D01*
X27516Y118008D01*
X27560Y117927D01*
X27593Y117839D01*
X27626Y117741D01*
X27134Y117626D01*
Y117632D01*
X27129Y117643D01*
X27118Y117665D01*
X27107Y117692D01*
X27096Y117725D01*
X27080Y117768D01*
X27036Y117856D01*
X26981Y117954D01*
X26916Y118052D01*
X26834Y118145D01*
X26747Y118227D01*
X26736Y118238D01*
X26703Y118260D01*
X26648Y118287D01*
X26577Y118325D01*
X26485Y118358D01*
X26381Y118391D01*
X26255Y118412D01*
X26119Y118418D01*
X26075D01*
X26048Y118412D01*
X26010D01*
X25966Y118407D01*
X25862Y118391D01*
X25747Y118369D01*
X25627Y118331D01*
X25502Y118276D01*
X25387Y118205D01*
X25382D01*
X25376Y118194D01*
X25338Y118167D01*
X25289Y118123D01*
X25229Y118058D01*
X25158Y117976D01*
X25092Y117883D01*
X25032Y117768D01*
X24978Y117643D01*
Y117637D01*
X24972Y117626D01*
X24967Y117610D01*
X24961Y117583D01*
X24950Y117550D01*
X24939Y117512D01*
X24923Y117419D01*
X24901Y117310D01*
X24879Y117190D01*
X24868Y117058D01*
X24863Y116917D01*
Y116911D01*
Y116895D01*
Y116867D01*
Y116835D01*
X24868Y116796D01*
Y116747D01*
X24874Y116693D01*
X24879Y116632D01*
X24896Y116501D01*
X24923Y116359D01*
X24956Y116218D01*
X24999Y116076D01*
Y116070D01*
X25005Y116059D01*
X25016Y116043D01*
X25027Y116016D01*
X25060Y115950D01*
X25109Y115874D01*
X25169Y115786D01*
X25245Y115693D01*
X25332Y115612D01*
X25436Y115535D01*
X25442D01*
X25453Y115530D01*
X25469Y115519D01*
X25491Y115508D01*
X25518Y115497D01*
X25551Y115480D01*
X25627Y115448D01*
X25726Y115415D01*
X25835Y115388D01*
X25955Y115366D01*
X26081Y115360D01*
X26119D01*
X26151Y115366D01*
X26190D01*
X26228Y115371D01*
X26326Y115393D01*
X26441Y115420D01*
X26555Y115464D01*
X26676Y115524D01*
X26736Y115557D01*
X26790Y115601D01*
X26796Y115606D01*
X26801Y115612D01*
X26818Y115628D01*
X26840Y115644D01*
X26861Y115672D01*
X26889Y115704D01*
X26921Y115737D01*
X26949Y115781D01*
X26981Y115830D01*
X27020Y115884D01*
X27052Y115939D01*
X27085Y116005D01*
X27112Y116076D01*
X27140Y116152D01*
X27167Y116234D01*
X27189Y116321D01*
X27691Y116196D01*
Y116190D01*
X27686Y116168D01*
X27675Y116136D01*
X27659Y116092D01*
X27642Y116043D01*
X27620Y115983D01*
X27593Y115917D01*
X27560Y115846D01*
X27484Y115693D01*
X27386Y115541D01*
X27325Y115464D01*
X27265Y115388D01*
X27200Y115322D01*
X27123Y115257D01*
X27118Y115251D01*
X27107Y115240D01*
X27080Y115229D01*
X27052Y115208D01*
X27009Y115180D01*
X26965Y115153D01*
X26905Y115126D01*
X26845Y115098D01*
X26774Y115066D01*
X26697Y115038D01*
X26616Y115011D01*
X26528Y114984D01*
X26435Y114962D01*
X26337Y114951D01*
X26233Y114940D01*
X26124Y114935D01*
X26064D01*
X26021Y114940D01*
X25971D01*
X25911Y114945D01*
X25846Y114956D01*
X25769Y114967D01*
X25611Y114995D01*
X25447Y115038D01*
X25283Y115098D01*
X25207Y115137D01*
X25131Y115180D01*
X25125Y115186D01*
X25114Y115191D01*
X25092Y115208D01*
X25070Y115229D01*
X25038Y115251D01*
X24999Y115284D01*
X24956Y115322D01*
X24912Y115366D01*
X24868Y115415D01*
X24819Y115464D01*
X24721Y115590D01*
X24628Y115737D01*
X24546Y115901D01*
Y115906D01*
X24535Y115923D01*
X24530Y115950D01*
X24513Y115983D01*
X24503Y116026D01*
X24486Y116081D01*
X24464Y116141D01*
X24448Y116207D01*
X24432Y116278D01*
X24410Y116359D01*
X24383Y116529D01*
X24361Y116720D01*
X24350Y116917D01*
Y116922D01*
Y116944D01*
Y116976D01*
X24355Y117015D01*
Y117069D01*
X24361Y117124D01*
X24366Y117195D01*
X24377Y117266D01*
X24404Y117424D01*
X24442Y117599D01*
X24497Y117774D01*
X24574Y117943D01*
X24579Y117948D01*
X24585Y117965D01*
X24595Y117987D01*
X24617Y118014D01*
X24639Y118052D01*
X24666Y118096D01*
X24737Y118194D01*
X24830Y118303D01*
X24939Y118412D01*
X25065Y118522D01*
X25212Y118614D01*
X25218Y118620D01*
X25234Y118625D01*
X25256Y118636D01*
X25283Y118653D01*
X25327Y118669D01*
X25371Y118685D01*
X25425Y118707D01*
X25485Y118729D01*
X25551Y118751D01*
X25622Y118773D01*
X25775Y118806D01*
X25949Y118833D01*
X26130Y118844D01*
X26184D01*
X26223Y118838D01*
D02*
G37*
G36*
X35128Y117796D02*
X35166Y117790D01*
X35248Y117779D01*
X35346Y117757D01*
X35450Y117725D01*
X35554Y117675D01*
X35657Y117615D01*
X35663D01*
X35668Y117604D01*
X35701Y117583D01*
X35750Y117539D01*
X35810Y117484D01*
X35876Y117413D01*
X35941Y117326D01*
X36007Y117222D01*
X36061Y117108D01*
Y117102D01*
X36067Y117091D01*
X36072Y117075D01*
X36083Y117053D01*
X36094Y117020D01*
X36105Y116982D01*
X36132Y116895D01*
X36160Y116785D01*
X36182Y116665D01*
X36198Y116529D01*
X36203Y116387D01*
Y116381D01*
Y116370D01*
Y116349D01*
Y116316D01*
X36198Y116278D01*
Y116234D01*
X36187Y116136D01*
X36165Y116016D01*
X36138Y115890D01*
X36100Y115759D01*
X36051Y115628D01*
Y115622D01*
X36045Y115612D01*
X36034Y115595D01*
X36023Y115573D01*
X35985Y115513D01*
X35936Y115437D01*
X35876Y115355D01*
X35799Y115273D01*
X35712Y115191D01*
X35608Y115115D01*
X35603D01*
X35597Y115109D01*
X35581Y115098D01*
X35559Y115087D01*
X35504Y115060D01*
X35428Y115027D01*
X35335Y114995D01*
X35237Y114967D01*
X35122Y114945D01*
X35008Y114940D01*
X34969D01*
X34926Y114945D01*
X34871Y114951D01*
X34806Y114962D01*
X34735Y114978D01*
X34664Y115000D01*
X34593Y115033D01*
X34587Y115038D01*
X34560Y115049D01*
X34527Y115071D01*
X34484Y115104D01*
X34440Y115137D01*
X34385Y115180D01*
X34336Y115229D01*
X34292Y115284D01*
Y113952D01*
X33828D01*
Y117741D01*
X34249D01*
Y117381D01*
X34254Y117392D01*
X34276Y117413D01*
X34303Y117452D01*
X34347Y117495D01*
X34396Y117550D01*
X34451Y117599D01*
X34516Y117648D01*
X34582Y117692D01*
X34593Y117697D01*
X34615Y117708D01*
X34658Y117725D01*
X34713Y117746D01*
X34778Y117768D01*
X34855Y117785D01*
X34942Y117796D01*
X35040Y117801D01*
X35100D01*
X35128Y117796D01*
D02*
G37*
G36*
X18393D02*
X18431Y117790D01*
X18513Y117779D01*
X18611Y117757D01*
X18715Y117725D01*
X18819Y117675D01*
X18923Y117615D01*
X18928D01*
X18933Y117604D01*
X18966Y117583D01*
X19015Y117539D01*
X19075Y117484D01*
X19141Y117413D01*
X19206Y117326D01*
X19272Y117222D01*
X19327Y117108D01*
Y117102D01*
X19332Y117091D01*
X19337Y117075D01*
X19348Y117053D01*
X19359Y117020D01*
X19370Y116982D01*
X19398Y116895D01*
X19425Y116785D01*
X19447Y116665D01*
X19463Y116529D01*
X19468Y116387D01*
Y116381D01*
Y116370D01*
Y116349D01*
Y116316D01*
X19463Y116278D01*
Y116234D01*
X19452Y116136D01*
X19430Y116016D01*
X19403Y115890D01*
X19365Y115759D01*
X19316Y115628D01*
Y115622D01*
X19310Y115612D01*
X19299Y115595D01*
X19288Y115573D01*
X19250Y115513D01*
X19201Y115437D01*
X19141Y115355D01*
X19064Y115273D01*
X18977Y115191D01*
X18873Y115115D01*
X18868D01*
X18862Y115109D01*
X18846Y115098D01*
X18824Y115087D01*
X18770Y115060D01*
X18693Y115027D01*
X18600Y114995D01*
X18502Y114967D01*
X18387Y114945D01*
X18273Y114940D01*
X18235D01*
X18191Y114945D01*
X18136Y114951D01*
X18071Y114962D01*
X18000Y114978D01*
X17929Y115000D01*
X17858Y115033D01*
X17852Y115038D01*
X17825Y115049D01*
X17792Y115071D01*
X17749Y115104D01*
X17705Y115137D01*
X17650Y115180D01*
X17601Y115229D01*
X17558Y115284D01*
Y113952D01*
X17093D01*
Y117741D01*
X17514D01*
Y117381D01*
X17519Y117392D01*
X17541Y117413D01*
X17568Y117452D01*
X17612Y117495D01*
X17661Y117550D01*
X17716Y117599D01*
X17781Y117648D01*
X17847Y117692D01*
X17858Y117697D01*
X17880Y117708D01*
X17923Y117725D01*
X17978Y117746D01*
X18043Y117768D01*
X18120Y117785D01*
X18207Y117796D01*
X18305Y117801D01*
X18365D01*
X18393Y117796D01*
D02*
G37*
G36*
X32261D02*
X32321Y117790D01*
X32392Y117779D01*
X32469Y117763D01*
X32551Y117741D01*
X32627Y117708D01*
X32638Y117703D01*
X32660Y117692D01*
X32698Y117675D01*
X32742Y117648D01*
X32796Y117615D01*
X32846Y117572D01*
X32895Y117528D01*
X32938Y117473D01*
X32944Y117468D01*
X32955Y117446D01*
X32971Y117419D01*
X32998Y117381D01*
X33020Y117326D01*
X33042Y117271D01*
X33069Y117206D01*
X33086Y117135D01*
Y117129D01*
X33091Y117108D01*
X33097Y117075D01*
X33102Y117031D01*
Y116966D01*
X33108Y116889D01*
X33113Y116796D01*
Y116682D01*
Y115000D01*
X32649D01*
Y116660D01*
Y116665D01*
Y116671D01*
Y116709D01*
Y116758D01*
X32643Y116818D01*
X32638Y116889D01*
X32627Y116960D01*
X32611Y117026D01*
X32594Y117086D01*
Y117091D01*
X32583Y117108D01*
X32567Y117135D01*
X32551Y117168D01*
X32523Y117200D01*
X32491Y117239D01*
X32447Y117277D01*
X32398Y117310D01*
X32392Y117315D01*
X32376Y117326D01*
X32343Y117337D01*
X32305Y117353D01*
X32261Y117370D01*
X32207Y117386D01*
X32141Y117392D01*
X32076Y117397D01*
X32048D01*
X32026Y117392D01*
X31972Y117386D01*
X31901Y117375D01*
X31824Y117348D01*
X31737Y117315D01*
X31650Y117271D01*
X31568Y117206D01*
X31557Y117195D01*
X31535Y117168D01*
X31519Y117146D01*
X31502Y117119D01*
X31481Y117086D01*
X31464Y117048D01*
X31442Y117004D01*
X31420Y116949D01*
X31404Y116889D01*
X31388Y116824D01*
X31377Y116753D01*
X31366Y116676D01*
X31355Y116583D01*
Y116491D01*
Y115000D01*
X30891D01*
Y117741D01*
X31306D01*
Y117348D01*
X31311Y117353D01*
X31322Y117370D01*
X31339Y117392D01*
X31360Y117419D01*
X31393Y117452D01*
X31431Y117490D01*
X31475Y117533D01*
X31530Y117577D01*
X31584Y117615D01*
X31650Y117659D01*
X31721Y117697D01*
X31797Y117730D01*
X31885Y117757D01*
X31972Y117779D01*
X32070Y117796D01*
X32174Y117801D01*
X32218D01*
X32261Y117796D01*
D02*
G37*
G36*
X15652Y114956D02*
Y114951D01*
X15646Y114935D01*
X15635Y114913D01*
X15625Y114885D01*
X15608Y114847D01*
X15592Y114803D01*
X15554Y114711D01*
X15515Y114607D01*
X15472Y114503D01*
X15428Y114410D01*
X15406Y114372D01*
X15390Y114334D01*
X15384Y114323D01*
X15368Y114296D01*
X15341Y114257D01*
X15308Y114208D01*
X15264Y114154D01*
X15215Y114099D01*
X15166Y114044D01*
X15106Y114001D01*
X15100Y113995D01*
X15079Y113984D01*
X15046Y113968D01*
X14997Y113946D01*
X14942Y113924D01*
X14877Y113908D01*
X14806Y113897D01*
X14724Y113892D01*
X14702D01*
X14675Y113897D01*
X14636D01*
X14593Y113908D01*
X14544Y113919D01*
X14489Y113930D01*
X14429Y113952D01*
X14380Y114383D01*
X14385D01*
X14407Y114378D01*
X14434Y114372D01*
X14467Y114361D01*
X14555Y114345D01*
X14642Y114339D01*
X14669D01*
X14696Y114345D01*
X14729D01*
X14811Y114361D01*
X14849Y114378D01*
X14887Y114394D01*
X14893D01*
X14904Y114405D01*
X14920Y114416D01*
X14942Y114432D01*
X14991Y114476D01*
X15035Y114536D01*
Y114541D01*
X15046Y114552D01*
X15057Y114574D01*
X15068Y114607D01*
X15089Y114651D01*
X15111Y114716D01*
X15144Y114793D01*
X15177Y114885D01*
Y114891D01*
X15188Y114913D01*
X15199Y114951D01*
X15221Y115000D01*
X14183Y117741D01*
X14675D01*
X15248Y116152D01*
Y116147D01*
X15253Y116141D01*
X15259Y116125D01*
X15264Y116097D01*
X15275Y116070D01*
X15286Y116037D01*
X15313Y115961D01*
X15346Y115868D01*
X15379Y115759D01*
X15412Y115644D01*
X15444Y115519D01*
Y115524D01*
X15450Y115535D01*
X15455Y115551D01*
X15461Y115573D01*
X15466Y115601D01*
X15477Y115633D01*
X15499Y115715D01*
X15526Y115808D01*
X15565Y115917D01*
X15597Y116026D01*
X15641Y116141D01*
X16231Y117741D01*
X16695D01*
X15652Y114956D01*
D02*
G37*
G36*
X38977Y115000D02*
X38562D01*
Y115399D01*
X38557Y115393D01*
X38546Y115377D01*
X38529Y115355D01*
X38502Y115328D01*
X38469Y115295D01*
X38431Y115251D01*
X38387Y115213D01*
X38333Y115169D01*
X38273Y115126D01*
X38207Y115087D01*
X38136Y115049D01*
X38060Y115011D01*
X37972Y114984D01*
X37885Y114962D01*
X37787Y114945D01*
X37688Y114940D01*
X37650D01*
X37601Y114945D01*
X37541Y114951D01*
X37470Y114962D01*
X37394Y114978D01*
X37317Y115000D01*
X37235Y115033D01*
X37224Y115038D01*
X37203Y115049D01*
X37164Y115071D01*
X37121Y115098D01*
X37066Y115131D01*
X37017Y115169D01*
X36968Y115213D01*
X36924Y115262D01*
X36919Y115268D01*
X36908Y115289D01*
X36891Y115317D01*
X36869Y115360D01*
X36842Y115410D01*
X36820Y115470D01*
X36799Y115535D01*
X36782Y115606D01*
Y115612D01*
X36777Y115633D01*
X36771Y115666D01*
Y115710D01*
X36766Y115775D01*
X36760Y115846D01*
X36755Y115939D01*
Y116043D01*
Y117741D01*
X37219D01*
Y116218D01*
Y116212D01*
Y116201D01*
Y116185D01*
Y116157D01*
Y116097D01*
X37224Y116021D01*
Y115939D01*
X37230Y115857D01*
X37235Y115786D01*
X37246Y115726D01*
Y115721D01*
X37257Y115699D01*
X37268Y115666D01*
X37284Y115622D01*
X37312Y115579D01*
X37345Y115530D01*
X37383Y115486D01*
X37432Y115442D01*
X37437Y115437D01*
X37459Y115426D01*
X37486Y115410D01*
X37530Y115393D01*
X37579Y115371D01*
X37639Y115355D01*
X37705Y115344D01*
X37781Y115339D01*
X37819D01*
X37858Y115344D01*
X37907Y115349D01*
X37967Y115366D01*
X38032Y115382D01*
X38103Y115410D01*
X38174Y115442D01*
X38185Y115448D01*
X38207Y115464D01*
X38240Y115486D01*
X38278Y115519D01*
X38322Y115562D01*
X38366Y115612D01*
X38404Y115666D01*
X38436Y115732D01*
X38442Y115743D01*
X38447Y115764D01*
X38458Y115808D01*
X38475Y115868D01*
X38491Y115945D01*
X38502Y116037D01*
X38508Y116147D01*
X38513Y116272D01*
Y117741D01*
X38977D01*
Y115000D01*
D02*
G37*
G36*
X30181D02*
X29717D01*
Y117741D01*
X30181D01*
Y115000D01*
D02*
G37*
G36*
X13992Y118331D02*
X12747D01*
Y115000D01*
X12245D01*
Y118331D01*
X11000D01*
Y118778D01*
X13992D01*
Y118331D01*
D02*
G37*
G36*
X40244Y117741D02*
X40713D01*
Y117381D01*
X40244D01*
Y115770D01*
Y115759D01*
Y115737D01*
Y115704D01*
X40249Y115666D01*
X40255Y115579D01*
X40260Y115541D01*
X40266Y115513D01*
X40271Y115502D01*
X40287Y115480D01*
X40309Y115453D01*
X40347Y115426D01*
X40358Y115420D01*
X40386Y115410D01*
X40435Y115399D01*
X40506Y115393D01*
X40560D01*
X40588Y115399D01*
X40626D01*
X40670Y115404D01*
X40713Y115410D01*
X40773Y115000D01*
X40762D01*
X40741Y114995D01*
X40702Y114989D01*
X40653Y114984D01*
X40599Y114973D01*
X40539Y114967D01*
X40418Y114962D01*
X40375D01*
X40331Y114967D01*
X40277Y114973D01*
X40211Y114978D01*
X40145Y114995D01*
X40085Y115011D01*
X40025Y115038D01*
X40020Y115044D01*
X40003Y115055D01*
X39982Y115071D01*
X39949Y115098D01*
X39922Y115126D01*
X39889Y115164D01*
X39856Y115202D01*
X39834Y115251D01*
Y115257D01*
X39823Y115278D01*
X39818Y115317D01*
X39807Y115371D01*
X39796Y115442D01*
X39791Y115486D01*
Y115535D01*
X39785Y115595D01*
X39780Y115655D01*
Y115721D01*
Y115797D01*
Y117381D01*
X39436D01*
Y117741D01*
X39780D01*
Y118418D01*
X40244Y118696D01*
Y117741D01*
D02*
G37*
G36*
X21243Y117796D02*
X21287Y117790D01*
X21341Y117779D01*
X21401Y117768D01*
X21472Y117752D01*
X21538Y117736D01*
X21614Y117708D01*
X21685Y117681D01*
X21762Y117643D01*
X21838Y117599D01*
X21914Y117550D01*
X21985Y117490D01*
X22051Y117424D01*
X22057Y117419D01*
X22067Y117408D01*
X22084Y117386D01*
X22106Y117353D01*
X22133Y117315D01*
X22160Y117271D01*
X22193Y117217D01*
X22226Y117151D01*
X22258Y117080D01*
X22291Y117004D01*
X22319Y116917D01*
X22346Y116824D01*
X22368Y116720D01*
X22384Y116611D01*
X22395Y116496D01*
X22400Y116370D01*
Y116365D01*
Y116343D01*
Y116305D01*
X22395Y116250D01*
X20347D01*
Y116245D01*
Y116228D01*
X20353Y116207D01*
Y116174D01*
X20358Y116136D01*
X20369Y116092D01*
X20386Y115994D01*
X20418Y115884D01*
X20462Y115764D01*
X20522Y115655D01*
X20599Y115557D01*
X20604D01*
X20610Y115546D01*
X20642Y115519D01*
X20692Y115480D01*
X20757Y115442D01*
X20844Y115399D01*
X20943Y115360D01*
X21052Y115333D01*
X21112Y115328D01*
X21177Y115322D01*
X21221D01*
X21270Y115328D01*
X21330Y115339D01*
X21396Y115355D01*
X21472Y115377D01*
X21543Y115410D01*
X21614Y115453D01*
X21620Y115459D01*
X21647Y115480D01*
X21680Y115513D01*
X21718Y115557D01*
X21762Y115617D01*
X21811Y115693D01*
X21860Y115781D01*
X21904Y115884D01*
X22384Y115824D01*
Y115819D01*
X22379Y115808D01*
X22373Y115786D01*
X22362Y115753D01*
X22346Y115721D01*
X22330Y115677D01*
X22286Y115584D01*
X22231Y115480D01*
X22155Y115371D01*
X22067Y115268D01*
X21958Y115169D01*
X21953D01*
X21942Y115158D01*
X21926Y115147D01*
X21904Y115131D01*
X21871Y115115D01*
X21838Y115098D01*
X21794Y115076D01*
X21745Y115055D01*
X21691Y115033D01*
X21636Y115011D01*
X21500Y114978D01*
X21347Y114951D01*
X21177Y114940D01*
X21117D01*
X21079Y114945D01*
X21030Y114951D01*
X20970Y114962D01*
X20904Y114973D01*
X20833Y114984D01*
X20681Y115027D01*
X20599Y115060D01*
X20522Y115093D01*
X20440Y115137D01*
X20364Y115186D01*
X20293Y115240D01*
X20222Y115306D01*
X20216Y115311D01*
X20206Y115322D01*
X20189Y115344D01*
X20167Y115377D01*
X20140Y115415D01*
X20113Y115459D01*
X20080Y115513D01*
X20047Y115573D01*
X20015Y115644D01*
X19982Y115721D01*
X19954Y115808D01*
X19927Y115901D01*
X19905Y115999D01*
X19889Y116108D01*
X19878Y116223D01*
X19873Y116343D01*
Y116349D01*
Y116376D01*
Y116409D01*
X19878Y116458D01*
X19883Y116518D01*
X19889Y116583D01*
X19900Y116660D01*
X19916Y116736D01*
X19960Y116911D01*
X19987Y116998D01*
X20020Y117091D01*
X20064Y117178D01*
X20113Y117260D01*
X20167Y117342D01*
X20227Y117419D01*
X20233Y117424D01*
X20244Y117435D01*
X20266Y117452D01*
X20293Y117479D01*
X20326Y117506D01*
X20369Y117539D01*
X20418Y117577D01*
X20479Y117610D01*
X20539Y117648D01*
X20610Y117681D01*
X20686Y117714D01*
X20768Y117741D01*
X20855Y117768D01*
X20948Y117785D01*
X21046Y117796D01*
X21150Y117801D01*
X21205D01*
X21243Y117796D01*
D02*
G37*
G36*
X203064Y63373D02*
X203577D01*
Y62947D01*
X203064D01*
Y62041D01*
X202600D01*
Y62947D01*
X200956D01*
Y63373D01*
X202687Y65819D01*
X203064D01*
Y63373D01*
D02*
G37*
G36*
X199296Y65814D02*
X199346D01*
X199460Y65808D01*
X199580Y65792D01*
X199711Y65776D01*
X199831Y65748D01*
X199891Y65732D01*
X199941Y65716D01*
X199946D01*
X199952Y65710D01*
X199984Y65694D01*
X200033Y65672D01*
X200094Y65634D01*
X200159Y65584D01*
X200230Y65519D01*
X200295Y65443D01*
X200361Y65355D01*
Y65350D01*
X200366Y65344D01*
X200388Y65311D01*
X200410Y65257D01*
X200443Y65186D01*
X200470Y65104D01*
X200498Y65006D01*
X200514Y64902D01*
X200519Y64787D01*
Y64782D01*
Y64771D01*
Y64749D01*
X200514Y64722D01*
Y64684D01*
X200508Y64645D01*
X200487Y64553D01*
X200454Y64443D01*
X200410Y64329D01*
X200345Y64214D01*
X200301Y64160D01*
X200257Y64105D01*
X200252Y64099D01*
X200246Y64094D01*
X200230Y64078D01*
X200208Y64061D01*
X200181Y64039D01*
X200148Y64017D01*
X200104Y63990D01*
X200061Y63958D01*
X200006Y63930D01*
X199946Y63903D01*
X199881Y63870D01*
X199810Y63843D01*
X199728Y63821D01*
X199646Y63794D01*
X199553Y63777D01*
X199455Y63761D01*
X199466Y63755D01*
X199487Y63744D01*
X199520Y63723D01*
X199564Y63701D01*
X199662Y63641D01*
X199711Y63603D01*
X199755Y63570D01*
X199766Y63559D01*
X199793Y63532D01*
X199837Y63488D01*
X199891Y63433D01*
X199952Y63357D01*
X200023Y63275D01*
X200094Y63177D01*
X200170Y63068D01*
X200820Y62041D01*
X200197D01*
X199700Y62827D01*
Y62833D01*
X199689Y62844D01*
X199679Y62860D01*
X199662Y62882D01*
X199624Y62942D01*
X199575Y63018D01*
X199515Y63100D01*
X199455Y63188D01*
X199395Y63270D01*
X199340Y63346D01*
X199335Y63351D01*
X199318Y63373D01*
X199291Y63406D01*
X199253Y63444D01*
X199171Y63526D01*
X199127Y63564D01*
X199083Y63597D01*
X199078Y63603D01*
X199067Y63608D01*
X199045Y63619D01*
X199012Y63635D01*
X198980Y63652D01*
X198941Y63668D01*
X198854Y63695D01*
X198849D01*
X198838Y63701D01*
X198816D01*
X198789Y63706D01*
X198750Y63712D01*
X198707D01*
X198647Y63717D01*
X198002D01*
Y62041D01*
X197500D01*
Y65819D01*
X199253D01*
X199296Y65814D01*
D02*
G37*
G36*
X104314Y69319D02*
X104385Y69308D01*
X104472Y69292D01*
X104571Y69265D01*
X104669Y69232D01*
X104767Y69188D01*
X104773D01*
X104778Y69183D01*
X104811Y69166D01*
X104860Y69134D01*
X104915Y69095D01*
X104980Y69041D01*
X105046Y68981D01*
X105111Y68910D01*
X105166Y68828D01*
X105171Y68817D01*
X105188Y68790D01*
X105209Y68740D01*
X105237Y68680D01*
X105264Y68609D01*
X105286Y68528D01*
X105302Y68435D01*
X105308Y68342D01*
Y68331D01*
Y68298D01*
X105302Y68255D01*
X105291Y68195D01*
X105275Y68124D01*
X105248Y68047D01*
X105215Y67971D01*
X105171Y67894D01*
X105166Y67883D01*
X105149Y67861D01*
X105117Y67823D01*
X105073Y67779D01*
X105018Y67730D01*
X104953Y67676D01*
X104876Y67627D01*
X104784Y67577D01*
X104789D01*
X104800Y67572D01*
X104816Y67567D01*
X104838Y67561D01*
X104898Y67539D01*
X104975Y67506D01*
X105062Y67463D01*
X105149Y67408D01*
X105231Y67337D01*
X105308Y67255D01*
X105313Y67244D01*
X105335Y67212D01*
X105368Y67157D01*
X105401Y67086D01*
X105433Y66999D01*
X105466Y66895D01*
X105488Y66775D01*
X105493Y66644D01*
Y66638D01*
Y66622D01*
Y66595D01*
X105488Y66562D01*
X105482Y66518D01*
X105472Y66469D01*
X105461Y66414D01*
X105450Y66355D01*
X105406Y66223D01*
X105373Y66152D01*
X105341Y66087D01*
X105297Y66016D01*
X105248Y65945D01*
X105193Y65874D01*
X105128Y65808D01*
X105122Y65803D01*
X105111Y65792D01*
X105089Y65776D01*
X105062Y65754D01*
X105029Y65727D01*
X104986Y65699D01*
X104936Y65667D01*
X104876Y65639D01*
X104816Y65606D01*
X104745Y65574D01*
X104674Y65546D01*
X104593Y65519D01*
X104505Y65497D01*
X104412Y65481D01*
X104320Y65470D01*
X104216Y65465D01*
X104167D01*
X104134Y65470D01*
X104090Y65475D01*
X104041Y65481D01*
X103986Y65492D01*
X103926Y65503D01*
X103795Y65535D01*
X103659Y65590D01*
X103588Y65623D01*
X103522Y65661D01*
X103457Y65710D01*
X103391Y65759D01*
X103386Y65765D01*
X103375Y65776D01*
X103358Y65792D01*
X103342Y65814D01*
X103315Y65841D01*
X103287Y65879D01*
X103255Y65918D01*
X103222Y65967D01*
X103189Y66021D01*
X103156Y66076D01*
X103096Y66207D01*
X103047Y66360D01*
X103031Y66442D01*
X103020Y66529D01*
X103484Y66589D01*
Y66584D01*
X103489Y66573D01*
X103495Y66551D01*
X103500Y66524D01*
X103506Y66491D01*
X103517Y66453D01*
X103544Y66371D01*
X103582Y66273D01*
X103631Y66180D01*
X103686Y66092D01*
X103752Y66016D01*
X103762Y66010D01*
X103784Y65989D01*
X103828Y65961D01*
X103883Y65934D01*
X103948Y65901D01*
X104030Y65874D01*
X104123Y65852D01*
X104221Y65847D01*
X104254D01*
X104276Y65852D01*
X104336Y65858D01*
X104412Y65874D01*
X104500Y65901D01*
X104593Y65939D01*
X104685Y65994D01*
X104773Y66070D01*
X104784Y66082D01*
X104811Y66114D01*
X104844Y66163D01*
X104887Y66229D01*
X104931Y66311D01*
X104964Y66404D01*
X104991Y66513D01*
X105002Y66633D01*
Y66638D01*
Y66649D01*
Y66666D01*
X104997Y66688D01*
X104991Y66748D01*
X104975Y66819D01*
X104953Y66906D01*
X104915Y66993D01*
X104860Y67081D01*
X104789Y67163D01*
X104778Y67173D01*
X104751Y67195D01*
X104707Y67228D01*
X104647Y67266D01*
X104571Y67304D01*
X104478Y67337D01*
X104374Y67359D01*
X104259Y67370D01*
X104210D01*
X104172Y67365D01*
X104123Y67359D01*
X104068Y67348D01*
X104003Y67337D01*
X103932Y67321D01*
X103986Y67730D01*
X104014D01*
X104035Y67725D01*
X104106D01*
X104167Y67736D01*
X104238Y67747D01*
X104320Y67763D01*
X104412Y67790D01*
X104500Y67829D01*
X104593Y67878D01*
X104598D01*
X104603Y67883D01*
X104631Y67905D01*
X104669Y67943D01*
X104713Y67993D01*
X104756Y68063D01*
X104795Y68145D01*
X104822Y68238D01*
X104833Y68293D01*
Y68353D01*
Y68358D01*
Y68364D01*
Y68397D01*
X104822Y68440D01*
X104811Y68500D01*
X104789Y68566D01*
X104762Y68637D01*
X104718Y68708D01*
X104658Y68773D01*
X104653Y68779D01*
X104625Y68800D01*
X104587Y68828D01*
X104538Y68861D01*
X104472Y68888D01*
X104396Y68915D01*
X104308Y68937D01*
X104210Y68942D01*
X104167D01*
X104117Y68932D01*
X104052Y68921D01*
X103981Y68899D01*
X103910Y68871D01*
X103833Y68828D01*
X103762Y68773D01*
X103757Y68768D01*
X103735Y68740D01*
X103702Y68702D01*
X103664Y68648D01*
X103626Y68577D01*
X103588Y68489D01*
X103555Y68386D01*
X103533Y68265D01*
X103069Y68347D01*
Y68353D01*
X103075Y68369D01*
X103080Y68391D01*
X103085Y68424D01*
X103096Y68462D01*
X103113Y68506D01*
X103146Y68609D01*
X103200Y68730D01*
X103266Y68850D01*
X103348Y68964D01*
X103451Y69068D01*
X103457Y69073D01*
X103468Y69079D01*
X103484Y69090D01*
X103506Y69106D01*
X103533Y69128D01*
X103571Y69150D01*
X103610Y69172D01*
X103659Y69199D01*
X103768Y69243D01*
X103894Y69287D01*
X104041Y69314D01*
X104117Y69325D01*
X104254D01*
X104314Y69319D01*
D02*
G37*
G36*
X101196Y69303D02*
X101245D01*
X101360Y69297D01*
X101480Y69281D01*
X101611Y69265D01*
X101731Y69237D01*
X101792Y69221D01*
X101841Y69205D01*
X101846D01*
X101851Y69199D01*
X101884Y69183D01*
X101933Y69161D01*
X101994Y69123D01*
X102059Y69073D01*
X102130Y69008D01*
X102196Y68932D01*
X102261Y68844D01*
Y68839D01*
X102267Y68833D01*
X102288Y68800D01*
X102310Y68746D01*
X102343Y68675D01*
X102370Y68593D01*
X102398Y68495D01*
X102414Y68391D01*
X102419Y68276D01*
Y68271D01*
Y68260D01*
Y68238D01*
X102414Y68211D01*
Y68173D01*
X102409Y68134D01*
X102387Y68042D01*
X102354Y67932D01*
X102310Y67818D01*
X102245Y67703D01*
X102201Y67649D01*
X102157Y67594D01*
X102152Y67588D01*
X102146Y67583D01*
X102130Y67567D01*
X102108Y67550D01*
X102081Y67528D01*
X102048Y67506D01*
X102004Y67479D01*
X101961Y67447D01*
X101906Y67419D01*
X101846Y67392D01*
X101781Y67359D01*
X101710Y67332D01*
X101628Y67310D01*
X101546Y67283D01*
X101453Y67266D01*
X101355Y67250D01*
X101366Y67244D01*
X101387Y67234D01*
X101420Y67212D01*
X101464Y67190D01*
X101562Y67130D01*
X101611Y67092D01*
X101655Y67059D01*
X101666Y67048D01*
X101693Y67021D01*
X101737Y66977D01*
X101792Y66922D01*
X101851Y66846D01*
X101923Y66764D01*
X101994Y66666D01*
X102070Y66557D01*
X102720Y65530D01*
X102097D01*
X101600Y66316D01*
Y66322D01*
X101590Y66333D01*
X101578Y66349D01*
X101562Y66371D01*
X101524Y66431D01*
X101475Y66507D01*
X101415Y66589D01*
X101355Y66677D01*
X101295Y66759D01*
X101240Y66835D01*
X101235Y66840D01*
X101218Y66862D01*
X101191Y66895D01*
X101153Y66933D01*
X101071Y67015D01*
X101027Y67053D01*
X100983Y67086D01*
X100978Y67092D01*
X100967Y67097D01*
X100945Y67108D01*
X100912Y67124D01*
X100880Y67141D01*
X100841Y67157D01*
X100754Y67184D01*
X100749D01*
X100738Y67190D01*
X100716D01*
X100689Y67195D01*
X100650Y67201D01*
X100607D01*
X100547Y67206D01*
X99902D01*
Y65530D01*
X99400D01*
Y69308D01*
X101153D01*
X101196Y69303D01*
D02*
G37*
G36*
X180703Y34500D02*
X180239D01*
Y37454D01*
X180233Y37448D01*
X180206Y37427D01*
X180173Y37394D01*
X180119Y37356D01*
X180058Y37306D01*
X179982Y37252D01*
X179895Y37192D01*
X179796Y37132D01*
X179791D01*
X179785Y37126D01*
X179753Y37104D01*
X179698Y37077D01*
X179633Y37044D01*
X179556Y37006D01*
X179474Y36968D01*
X179392Y36930D01*
X179310Y36897D01*
Y37345D01*
X179316D01*
X179327Y37356D01*
X179349Y37361D01*
X179376Y37377D01*
X179409Y37394D01*
X179447Y37416D01*
X179540Y37470D01*
X179649Y37530D01*
X179758Y37607D01*
X179873Y37694D01*
X179988Y37787D01*
X179993Y37792D01*
X179998Y37798D01*
X180015Y37814D01*
X180037Y37831D01*
X180086Y37885D01*
X180151Y37951D01*
X180217Y38027D01*
X180288Y38115D01*
X180348Y38202D01*
X180402Y38295D01*
X180703D01*
Y34500D01*
D02*
G37*
G36*
X177137Y38273D02*
X177187D01*
X177301Y38267D01*
X177421Y38251D01*
X177552Y38235D01*
X177672Y38207D01*
X177733Y38191D01*
X177782Y38175D01*
X177787D01*
X177793Y38169D01*
X177825Y38153D01*
X177874Y38131D01*
X177935Y38093D01*
X178000Y38043D01*
X178071Y37978D01*
X178137Y37902D01*
X178202Y37814D01*
Y37809D01*
X178208Y37803D01*
X178229Y37771D01*
X178251Y37716D01*
X178284Y37645D01*
X178311Y37563D01*
X178339Y37465D01*
X178355Y37361D01*
X178360Y37246D01*
Y37241D01*
Y37230D01*
Y37208D01*
X178355Y37181D01*
Y37143D01*
X178349Y37104D01*
X178328Y37012D01*
X178295Y36902D01*
X178251Y36788D01*
X178186Y36673D01*
X178142Y36619D01*
X178098Y36564D01*
X178093Y36558D01*
X178087Y36553D01*
X178071Y36537D01*
X178049Y36520D01*
X178022Y36498D01*
X177989Y36476D01*
X177945Y36449D01*
X177902Y36417D01*
X177847Y36389D01*
X177787Y36362D01*
X177722Y36329D01*
X177651Y36302D01*
X177569Y36280D01*
X177487Y36253D01*
X177394Y36236D01*
X177296Y36220D01*
X177307Y36214D01*
X177328Y36204D01*
X177361Y36182D01*
X177405Y36160D01*
X177503Y36100D01*
X177552Y36062D01*
X177596Y36029D01*
X177607Y36018D01*
X177634Y35991D01*
X177678Y35947D01*
X177733Y35892D01*
X177793Y35816D01*
X177864Y35734D01*
X177935Y35636D01*
X178011Y35526D01*
X178661Y34500D01*
X178038D01*
X177541Y35286D01*
Y35292D01*
X177531Y35303D01*
X177520Y35319D01*
X177503Y35341D01*
X177465Y35401D01*
X177416Y35477D01*
X177356Y35559D01*
X177296Y35647D01*
X177236Y35728D01*
X177181Y35805D01*
X177176Y35810D01*
X177159Y35832D01*
X177132Y35865D01*
X177094Y35903D01*
X177012Y35985D01*
X176968Y36023D01*
X176924Y36056D01*
X176919Y36062D01*
X176908Y36067D01*
X176886Y36078D01*
X176853Y36094D01*
X176821Y36111D01*
X176782Y36127D01*
X176695Y36154D01*
X176690D01*
X176679Y36160D01*
X176657D01*
X176630Y36165D01*
X176591Y36171D01*
X176548D01*
X176488Y36176D01*
X175843D01*
Y34500D01*
X175341D01*
Y38278D01*
X177094D01*
X177137Y38273D01*
D02*
G37*
G36*
X15640Y68095D02*
X15700Y68085D01*
X15771Y68063D01*
X15847Y68036D01*
X15935Y67997D01*
X16027Y67948D01*
X15858Y67522D01*
X15853Y67528D01*
X15831Y67539D01*
X15798Y67555D01*
X15754Y67571D01*
X15705Y67588D01*
X15645Y67604D01*
X15585Y67615D01*
X15525Y67620D01*
X15498D01*
X15470Y67615D01*
X15432Y67610D01*
X15394Y67599D01*
X15345Y67582D01*
X15296Y67560D01*
X15252Y67528D01*
X15247Y67522D01*
X15230Y67511D01*
X15214Y67489D01*
X15187Y67462D01*
X15159Y67424D01*
X15132Y67380D01*
X15105Y67331D01*
X15083Y67271D01*
X15077Y67260D01*
X15072Y67227D01*
X15061Y67178D01*
X15044Y67113D01*
X15028Y67031D01*
X15017Y66938D01*
X15012Y66840D01*
X15006Y66730D01*
Y65300D01*
X14542D01*
Y68041D01*
X14963D01*
Y67626D01*
X14968Y67631D01*
X14990Y67670D01*
X15017Y67719D01*
X15061Y67779D01*
X15105Y67839D01*
X15154Y67904D01*
X15203Y67959D01*
X15252Y68003D01*
X15258Y68008D01*
X15274Y68019D01*
X15307Y68036D01*
X15339Y68052D01*
X15383Y68068D01*
X15438Y68085D01*
X15492Y68095D01*
X15552Y68101D01*
X15590D01*
X15640Y68095D01*
D02*
G37*
G36*
X24540D02*
X24572D01*
X24616Y68090D01*
X24720Y68074D01*
X24834Y68046D01*
X24954Y68003D01*
X25075Y67948D01*
X25189Y67872D01*
X25195D01*
X25200Y67861D01*
X25233Y67828D01*
X25282Y67779D01*
X25342Y67708D01*
X25402Y67620D01*
X25462Y67511D01*
X25517Y67386D01*
X25555Y67238D01*
X25102Y67167D01*
Y67173D01*
X25096Y67178D01*
X25091Y67211D01*
X25075Y67260D01*
X25047Y67320D01*
X25020Y67386D01*
X24976Y67457D01*
X24927Y67522D01*
X24872Y67577D01*
X24867Y67582D01*
X24845Y67599D01*
X24807Y67620D01*
X24763Y67648D01*
X24703Y67675D01*
X24638Y67697D01*
X24561Y67713D01*
X24479Y67719D01*
X24447D01*
X24419Y67713D01*
X24359Y67708D01*
X24277Y67686D01*
X24190Y67659D01*
X24092Y67615D01*
X23999Y67550D01*
X23955Y67511D01*
X23912Y67468D01*
Y67462D01*
X23901Y67457D01*
X23890Y67440D01*
X23879Y67418D01*
X23862Y67391D01*
X23841Y67358D01*
X23824Y67320D01*
X23802Y67277D01*
X23780Y67222D01*
X23764Y67162D01*
X23742Y67096D01*
X23726Y67025D01*
X23715Y66949D01*
X23704Y66862D01*
X23693Y66769D01*
Y66671D01*
Y66665D01*
Y66649D01*
Y66616D01*
X23699Y66583D01*
Y66534D01*
X23704Y66485D01*
X23720Y66365D01*
X23742Y66234D01*
X23780Y66097D01*
X23830Y65977D01*
X23862Y65917D01*
X23901Y65868D01*
X23912Y65857D01*
X23939Y65830D01*
X23988Y65791D01*
X24048Y65748D01*
X24130Y65699D01*
X24223Y65660D01*
X24332Y65633D01*
X24392Y65628D01*
X24452Y65622D01*
X24463D01*
X24496Y65628D01*
X24550Y65633D01*
X24611Y65644D01*
X24681Y65660D01*
X24758Y65693D01*
X24834Y65731D01*
X24905Y65786D01*
X24916Y65791D01*
X24933Y65819D01*
X24965Y65857D01*
X25004Y65917D01*
X25042Y65988D01*
X25085Y66075D01*
X25118Y66185D01*
X25140Y66305D01*
X25599Y66245D01*
Y66239D01*
X25593Y66223D01*
X25588Y66201D01*
X25582Y66168D01*
X25571Y66124D01*
X25561Y66081D01*
X25522Y65972D01*
X25473Y65857D01*
X25402Y65731D01*
X25315Y65611D01*
X25266Y65557D01*
X25211Y65502D01*
X25206Y65497D01*
X25195Y65491D01*
X25178Y65480D01*
X25157Y65464D01*
X25129Y65442D01*
X25091Y65420D01*
X25047Y65398D01*
X25004Y65371D01*
X24894Y65322D01*
X24763Y65284D01*
X24621Y65251D01*
X24540Y65245D01*
X24458Y65240D01*
X24403D01*
X24365Y65245D01*
X24316Y65251D01*
X24261Y65262D01*
X24201Y65273D01*
X24135Y65284D01*
X23988Y65327D01*
X23917Y65360D01*
X23841Y65393D01*
X23764Y65437D01*
X23693Y65486D01*
X23622Y65540D01*
X23557Y65606D01*
X23551Y65611D01*
X23540Y65622D01*
X23524Y65644D01*
X23502Y65671D01*
X23480Y65710D01*
X23448Y65759D01*
X23420Y65813D01*
X23387Y65873D01*
X23355Y65944D01*
X23327Y66026D01*
X23295Y66108D01*
X23273Y66206D01*
X23251Y66305D01*
X23234Y66419D01*
X23224Y66534D01*
X23218Y66659D01*
Y66665D01*
Y66681D01*
Y66703D01*
Y66736D01*
X23224Y66774D01*
Y66818D01*
X23229Y66867D01*
X23234Y66922D01*
X23251Y67042D01*
X23278Y67173D01*
X23311Y67304D01*
X23360Y67435D01*
Y67440D01*
X23366Y67451D01*
X23377Y67468D01*
X23387Y67489D01*
X23420Y67550D01*
X23469Y67620D01*
X23535Y67702D01*
X23611Y67784D01*
X23704Y67866D01*
X23808Y67932D01*
X23813D01*
X23824Y67937D01*
X23841Y67948D01*
X23862Y67959D01*
X23890Y67970D01*
X23923Y67986D01*
X24004Y68019D01*
X24097Y68046D01*
X24212Y68074D01*
X24332Y68095D01*
X24463Y68101D01*
X24507D01*
X24540Y68095D01*
D02*
G37*
G36*
X10354Y65300D02*
X9879D01*
X9443Y66938D01*
X9333Y67408D01*
X8782Y65300D01*
X8291D01*
X7461Y68041D01*
X7947D01*
X8383Y66457D01*
X8536Y65868D01*
Y65873D01*
X8542Y65884D01*
X8547Y65912D01*
X8553Y65928D01*
X8558Y65955D01*
X8563Y65988D01*
X8574Y66026D01*
X8585Y66070D01*
X8602Y66124D01*
X8618Y66185D01*
X8635Y66255D01*
X8656Y66337D01*
X8678Y66430D01*
X9115Y68041D01*
X9590D01*
X10000Y66447D01*
X10136Y65922D01*
X10294Y66452D01*
X10764Y68041D01*
X11217D01*
X10354Y65300D01*
D02*
G37*
G36*
X19658Y66501D02*
Y66496D01*
Y66479D01*
Y66457D01*
Y66425D01*
X19653Y66381D01*
Y66337D01*
X19642Y66234D01*
X19631Y66114D01*
X19609Y65988D01*
X19576Y65873D01*
X19538Y65764D01*
Y65759D01*
X19533Y65753D01*
X19516Y65720D01*
X19489Y65677D01*
X19451Y65617D01*
X19396Y65557D01*
X19336Y65491D01*
X19260Y65426D01*
X19172Y65371D01*
X19161Y65365D01*
X19129Y65349D01*
X19080Y65327D01*
X19008Y65306D01*
X18921Y65278D01*
X18823Y65256D01*
X18714Y65240D01*
X18594Y65235D01*
X18544D01*
X18512Y65240D01*
X18468Y65245D01*
X18424Y65251D01*
X18310Y65273D01*
X18190Y65306D01*
X18064Y65355D01*
X17998Y65387D01*
X17938Y65426D01*
X17884Y65469D01*
X17829Y65518D01*
X17824Y65524D01*
X17818Y65529D01*
X17807Y65551D01*
X17791Y65573D01*
X17769Y65600D01*
X17747Y65639D01*
X17725Y65682D01*
X17698Y65731D01*
X17676Y65786D01*
X17654Y65851D01*
X17633Y65917D01*
X17611Y65993D01*
X17600Y66075D01*
X17583Y66168D01*
X17578Y66261D01*
Y66365D01*
X18031Y66430D01*
Y66425D01*
Y66414D01*
Y66392D01*
X18037Y66359D01*
X18042Y66326D01*
Y66288D01*
X18058Y66195D01*
X18075Y66097D01*
X18108Y65999D01*
X18140Y65912D01*
X18162Y65873D01*
X18190Y65841D01*
X18195Y65835D01*
X18217Y65819D01*
X18250Y65791D01*
X18293Y65764D01*
X18353Y65731D01*
X18419Y65710D01*
X18501Y65688D01*
X18588Y65682D01*
X18621D01*
X18654Y65688D01*
X18703Y65693D01*
X18752Y65704D01*
X18807Y65715D01*
X18861Y65737D01*
X18916Y65764D01*
X18921Y65770D01*
X18937Y65781D01*
X18959Y65802D01*
X18992Y65824D01*
X19019Y65862D01*
X19052Y65901D01*
X19080Y65944D01*
X19101Y65999D01*
Y66004D01*
X19112Y66026D01*
X19118Y66064D01*
X19129Y66114D01*
X19139Y66179D01*
X19145Y66261D01*
X19156Y66359D01*
Y66474D01*
Y69078D01*
X19658D01*
Y66501D01*
D02*
G37*
G36*
X26461Y66922D02*
X27559Y68041D01*
X28165D01*
X27111Y67020D01*
X28269Y65300D01*
X27695D01*
X26783Y66698D01*
X26461Y66386D01*
Y65300D01*
X25997D01*
Y69078D01*
X26461D01*
Y66922D01*
D02*
G37*
G36*
X21695Y68095D02*
X21777Y68090D01*
X21869Y68079D01*
X21962Y68063D01*
X22055Y68041D01*
X22142Y68014D01*
X22153Y68008D01*
X22181Y67997D01*
X22219Y67981D01*
X22268Y67959D01*
X22323Y67926D01*
X22377Y67893D01*
X22426Y67850D01*
X22470Y67806D01*
X22476Y67801D01*
X22487Y67784D01*
X22503Y67757D01*
X22525Y67724D01*
X22552Y67675D01*
X22574Y67626D01*
X22596Y67566D01*
X22612Y67495D01*
Y67489D01*
X22618Y67473D01*
X22623Y67440D01*
X22628Y67397D01*
Y67337D01*
X22634Y67266D01*
X22639Y67173D01*
Y67069D01*
Y66447D01*
Y66441D01*
Y66419D01*
Y66386D01*
Y66343D01*
Y66294D01*
Y66234D01*
X22645Y66103D01*
Y65966D01*
X22650Y65830D01*
X22656Y65770D01*
Y65715D01*
X22661Y65666D01*
X22667Y65628D01*
Y65622D01*
X22672Y65600D01*
X22678Y65567D01*
X22694Y65524D01*
X22705Y65475D01*
X22727Y65420D01*
X22754Y65360D01*
X22781Y65300D01*
X22295D01*
X22290Y65306D01*
X22285Y65327D01*
X22274Y65355D01*
X22257Y65398D01*
X22241Y65447D01*
X22230Y65508D01*
X22219Y65573D01*
X22208Y65644D01*
X22203D01*
X22197Y65633D01*
X22164Y65606D01*
X22115Y65567D01*
X22050Y65518D01*
X21968Y65469D01*
X21886Y65415D01*
X21799Y65365D01*
X21706Y65327D01*
X21695Y65322D01*
X21662Y65316D01*
X21613Y65300D01*
X21553Y65284D01*
X21476Y65267D01*
X21389Y65256D01*
X21291Y65245D01*
X21192Y65240D01*
X21149D01*
X21116Y65245D01*
X21078D01*
X21034Y65251D01*
X20936Y65267D01*
X20827Y65294D01*
X20707Y65333D01*
X20597Y65387D01*
X20499Y65458D01*
X20488Y65469D01*
X20461Y65497D01*
X20423Y65546D01*
X20379Y65611D01*
X20335Y65693D01*
X20297Y65786D01*
X20270Y65901D01*
X20264Y65955D01*
X20259Y66021D01*
Y66032D01*
Y66053D01*
X20264Y66092D01*
X20270Y66141D01*
X20281Y66201D01*
X20297Y66261D01*
X20319Y66326D01*
X20346Y66386D01*
X20352Y66392D01*
X20363Y66414D01*
X20384Y66447D01*
X20412Y66485D01*
X20445Y66528D01*
X20488Y66572D01*
X20532Y66616D01*
X20586Y66654D01*
X20592Y66659D01*
X20614Y66671D01*
X20641Y66692D01*
X20685Y66714D01*
X20734Y66736D01*
X20794Y66763D01*
X20854Y66785D01*
X20925Y66807D01*
X20930D01*
X20952Y66812D01*
X20985Y66823D01*
X21029Y66829D01*
X21083Y66840D01*
X21154Y66851D01*
X21236Y66867D01*
X21335Y66878D01*
X21340D01*
X21362Y66883D01*
X21389D01*
X21427Y66889D01*
X21471Y66894D01*
X21526Y66905D01*
X21586Y66911D01*
X21651Y66922D01*
X21782Y66949D01*
X21924Y66976D01*
X22050Y67009D01*
X22110Y67025D01*
X22164Y67042D01*
Y67047D01*
Y67058D01*
X22170Y67091D01*
Y67129D01*
Y67151D01*
Y67162D01*
Y67167D01*
Y67173D01*
Y67206D01*
X22164Y67260D01*
X22153Y67320D01*
X22137Y67386D01*
X22110Y67451D01*
X22077Y67511D01*
X22033Y67560D01*
X22028Y67566D01*
X22001Y67588D01*
X21957Y67610D01*
X21902Y67642D01*
X21826Y67670D01*
X21738Y67697D01*
X21629Y67713D01*
X21504Y67719D01*
X21449D01*
X21395Y67713D01*
X21318Y67702D01*
X21242Y67691D01*
X21160Y67670D01*
X21083Y67642D01*
X21018Y67604D01*
X21012Y67599D01*
X20990Y67582D01*
X20963Y67555D01*
X20930Y67511D01*
X20898Y67457D01*
X20859Y67386D01*
X20827Y67298D01*
X20794Y67200D01*
X20341Y67260D01*
Y67266D01*
X20346Y67271D01*
Y67287D01*
X20352Y67309D01*
X20368Y67358D01*
X20390Y67429D01*
X20417Y67500D01*
X20450Y67577D01*
X20494Y67653D01*
X20543Y67724D01*
X20548Y67730D01*
X20570Y67751D01*
X20603Y67784D01*
X20647Y67828D01*
X20707Y67872D01*
X20777Y67915D01*
X20859Y67965D01*
X20952Y68003D01*
X20958D01*
X20963Y68008D01*
X20980Y68014D01*
X21001Y68019D01*
X21056Y68036D01*
X21132Y68052D01*
X21220Y68068D01*
X21329Y68085D01*
X21444Y68095D01*
X21575Y68101D01*
X21635D01*
X21695Y68095D01*
D02*
G37*
G36*
X3032Y69073D02*
X3125Y69067D01*
X3224Y69062D01*
X3317Y69051D01*
X3398Y69040D01*
X3409D01*
X3447Y69029D01*
X3497Y69018D01*
X3562Y69002D01*
X3633Y68975D01*
X3710Y68942D01*
X3791Y68904D01*
X3862Y68860D01*
X3873Y68854D01*
X3895Y68838D01*
X3928Y68805D01*
X3972Y68767D01*
X4021Y68718D01*
X4070Y68652D01*
X4124Y68581D01*
X4168Y68500D01*
X4174Y68489D01*
X4185Y68461D01*
X4206Y68412D01*
X4228Y68347D01*
X4245Y68270D01*
X4267Y68183D01*
X4277Y68085D01*
X4283Y67981D01*
Y67975D01*
Y67959D01*
Y67937D01*
X4277Y67899D01*
X4272Y67861D01*
X4267Y67812D01*
X4256Y67757D01*
X4245Y67697D01*
X4206Y67571D01*
X4185Y67506D01*
X4152Y67435D01*
X4114Y67364D01*
X4075Y67298D01*
X4026Y67233D01*
X3972Y67167D01*
X3966Y67162D01*
X3955Y67151D01*
X3939Y67135D01*
X3912Y67118D01*
X3879Y67091D01*
X3835Y67064D01*
X3781Y67031D01*
X3720Y67004D01*
X3650Y66971D01*
X3568Y66938D01*
X3480Y66911D01*
X3376Y66889D01*
X3267Y66867D01*
X3147Y66851D01*
X3011Y66840D01*
X2869Y66834D01*
X1902D01*
Y65300D01*
X1400D01*
Y69078D01*
X2951D01*
X3032Y69073D01*
D02*
G37*
G36*
X12822Y68095D02*
X12866Y68090D01*
X12921Y68079D01*
X12981Y68068D01*
X13052Y68052D01*
X13117Y68036D01*
X13194Y68008D01*
X13265Y67981D01*
X13341Y67943D01*
X13418Y67899D01*
X13494Y67850D01*
X13565Y67790D01*
X13630Y67724D01*
X13636Y67719D01*
X13647Y67708D01*
X13663Y67686D01*
X13685Y67653D01*
X13712Y67615D01*
X13740Y67571D01*
X13772Y67517D01*
X13805Y67451D01*
X13838Y67380D01*
X13871Y67304D01*
X13898Y67216D01*
X13925Y67124D01*
X13947Y67020D01*
X13963Y66911D01*
X13974Y66796D01*
X13980Y66671D01*
Y66665D01*
Y66643D01*
Y66605D01*
X13974Y66550D01*
X11927D01*
Y66545D01*
Y66528D01*
X11932Y66507D01*
Y66474D01*
X11938Y66436D01*
X11949Y66392D01*
X11965Y66294D01*
X11998Y66185D01*
X12042Y66064D01*
X12102Y65955D01*
X12178Y65857D01*
X12184D01*
X12189Y65846D01*
X12222Y65819D01*
X12271Y65781D01*
X12336Y65742D01*
X12424Y65699D01*
X12522Y65660D01*
X12631Y65633D01*
X12691Y65628D01*
X12757Y65622D01*
X12800D01*
X12850Y65628D01*
X12910Y65639D01*
X12975Y65655D01*
X13052Y65677D01*
X13123Y65710D01*
X13194Y65753D01*
X13199Y65759D01*
X13226Y65781D01*
X13259Y65813D01*
X13297Y65857D01*
X13341Y65917D01*
X13390Y65993D01*
X13439Y66081D01*
X13483Y66185D01*
X13963Y66124D01*
Y66119D01*
X13958Y66108D01*
X13952Y66086D01*
X13942Y66053D01*
X13925Y66021D01*
X13909Y65977D01*
X13865Y65884D01*
X13811Y65781D01*
X13734Y65671D01*
X13647Y65567D01*
X13538Y65469D01*
X13532D01*
X13521Y65458D01*
X13505Y65447D01*
X13483Y65431D01*
X13450Y65415D01*
X13418Y65398D01*
X13374Y65376D01*
X13325Y65355D01*
X13270Y65333D01*
X13215Y65311D01*
X13079Y65278D01*
X12926Y65251D01*
X12757Y65240D01*
X12697D01*
X12659Y65245D01*
X12609Y65251D01*
X12549Y65262D01*
X12484Y65273D01*
X12413Y65284D01*
X12260Y65327D01*
X12178Y65360D01*
X12102Y65393D01*
X12020Y65437D01*
X11943Y65486D01*
X11872Y65540D01*
X11801Y65606D01*
X11796Y65611D01*
X11785Y65622D01*
X11768Y65644D01*
X11747Y65677D01*
X11719Y65715D01*
X11692Y65759D01*
X11659Y65813D01*
X11627Y65873D01*
X11594Y65944D01*
X11561Y66021D01*
X11534Y66108D01*
X11507Y66201D01*
X11485Y66299D01*
X11468Y66408D01*
X11457Y66523D01*
X11452Y66643D01*
Y66649D01*
Y66676D01*
Y66709D01*
X11457Y66758D01*
X11463Y66818D01*
X11468Y66883D01*
X11479Y66960D01*
X11496Y67036D01*
X11539Y67211D01*
X11567Y67298D01*
X11599Y67391D01*
X11643Y67479D01*
X11692Y67560D01*
X11747Y67642D01*
X11807Y67719D01*
X11812Y67724D01*
X11823Y67735D01*
X11845Y67751D01*
X11872Y67779D01*
X11905Y67806D01*
X11949Y67839D01*
X11998Y67877D01*
X12058Y67910D01*
X12118Y67948D01*
X12189Y67981D01*
X12265Y68014D01*
X12347Y68041D01*
X12435Y68068D01*
X12528Y68085D01*
X12626Y68095D01*
X12730Y68101D01*
X12784D01*
X12822Y68095D01*
D02*
G37*
G36*
X6063D02*
X6112Y68090D01*
X6167Y68079D01*
X6227Y68068D01*
X6298Y68057D01*
X6445Y68008D01*
X6521Y67981D01*
X6598Y67943D01*
X6674Y67904D01*
X6751Y67850D01*
X6822Y67795D01*
X6893Y67730D01*
X6898Y67724D01*
X6909Y67713D01*
X6926Y67691D01*
X6947Y67664D01*
X6975Y67626D01*
X7007Y67577D01*
X7040Y67522D01*
X7073Y67462D01*
X7106Y67397D01*
X7139Y67315D01*
X7171Y67233D01*
X7198Y67140D01*
X7220Y67042D01*
X7237Y66938D01*
X7248Y66829D01*
X7253Y66709D01*
Y66703D01*
Y66687D01*
Y66659D01*
Y66621D01*
X7248Y66578D01*
X7242Y66523D01*
Y66468D01*
X7231Y66408D01*
X7215Y66272D01*
X7182Y66135D01*
X7144Y65999D01*
X7089Y65873D01*
Y65868D01*
X7084Y65862D01*
X7073Y65846D01*
X7062Y65824D01*
X7024Y65770D01*
X6975Y65704D01*
X6909Y65628D01*
X6827Y65551D01*
X6734Y65475D01*
X6625Y65404D01*
X6620D01*
X6614Y65398D01*
X6598Y65387D01*
X6571Y65376D01*
X6543Y65365D01*
X6511Y65355D01*
X6429Y65322D01*
X6336Y65294D01*
X6221Y65267D01*
X6101Y65245D01*
X5970Y65240D01*
X5915D01*
X5872Y65245D01*
X5823Y65251D01*
X5768Y65262D01*
X5703Y65273D01*
X5637Y65284D01*
X5489Y65327D01*
X5408Y65360D01*
X5331Y65393D01*
X5255Y65437D01*
X5178Y65486D01*
X5107Y65540D01*
X5036Y65606D01*
X5031Y65611D01*
X5020Y65622D01*
X5004Y65644D01*
X4982Y65677D01*
X4955Y65715D01*
X4927Y65759D01*
X4894Y65813D01*
X4862Y65879D01*
X4829Y65950D01*
X4796Y66032D01*
X4769Y66119D01*
X4741Y66212D01*
X4720Y66316D01*
X4703Y66425D01*
X4692Y66545D01*
X4687Y66671D01*
Y66681D01*
Y66703D01*
X4692Y66741D01*
Y66796D01*
X4698Y66856D01*
X4709Y66932D01*
X4720Y67009D01*
X4741Y67096D01*
X4763Y67184D01*
X4791Y67277D01*
X4823Y67375D01*
X4867Y67468D01*
X4911Y67555D01*
X4971Y67642D01*
X5031Y67724D01*
X5107Y67795D01*
X5113Y67801D01*
X5124Y67806D01*
X5146Y67822D01*
X5173Y67844D01*
X5206Y67866D01*
X5249Y67893D01*
X5293Y67921D01*
X5348Y67948D01*
X5408Y67975D01*
X5473Y68003D01*
X5621Y68052D01*
X5790Y68090D01*
X5877Y68095D01*
X5970Y68101D01*
X6025D01*
X6063Y68095D01*
D02*
G37*
G36*
X243574Y74819D02*
X243617Y74814D01*
X243672Y74808D01*
X243732Y74797D01*
X243792Y74787D01*
X243934Y74748D01*
X244076Y74694D01*
X244147Y74661D01*
X244218Y74623D01*
X244284Y74573D01*
X244344Y74519D01*
X244349Y74514D01*
X244360Y74508D01*
X244371Y74486D01*
X244393Y74464D01*
X244420Y74437D01*
X244447Y74399D01*
X244475Y74361D01*
X244507Y74312D01*
X244562Y74208D01*
X244617Y74077D01*
X244638Y74011D01*
X244649Y73935D01*
X244660Y73858D01*
X244666Y73776D01*
Y73765D01*
Y73738D01*
X244660Y73694D01*
X244655Y73634D01*
X244644Y73569D01*
X244622Y73492D01*
X244600Y73411D01*
X244567Y73329D01*
X244562Y73318D01*
X244551Y73290D01*
X244529Y73247D01*
X244496Y73187D01*
X244453Y73121D01*
X244398Y73039D01*
X244333Y72957D01*
X244256Y72865D01*
X244245Y72854D01*
X244218Y72821D01*
X244191Y72794D01*
X244163Y72766D01*
X244131Y72733D01*
X244087Y72690D01*
X244043Y72646D01*
X243989Y72597D01*
X243934Y72542D01*
X243869Y72482D01*
X243798Y72422D01*
X243721Y72351D01*
X243634Y72280D01*
X243547Y72204D01*
X243541Y72198D01*
X243530Y72188D01*
X243508Y72171D01*
X243481Y72149D01*
X243448Y72117D01*
X243410Y72084D01*
X243323Y72013D01*
X243230Y71931D01*
X243142Y71849D01*
X243066Y71778D01*
X243033Y71751D01*
X243006Y71723D01*
X243001Y71718D01*
X242984Y71702D01*
X242962Y71680D01*
X242935Y71647D01*
X242908Y71609D01*
X242875Y71570D01*
X242809Y71478D01*
X244671D01*
Y71030D01*
X242165D01*
Y71035D01*
Y71057D01*
Y71090D01*
X242171Y71134D01*
X242176Y71183D01*
X242187Y71237D01*
X242198Y71292D01*
X242220Y71352D01*
Y71358D01*
X242225Y71363D01*
X242236Y71396D01*
X242258Y71445D01*
X242291Y71510D01*
X242334Y71587D01*
X242389Y71674D01*
X242449Y71762D01*
X242525Y71855D01*
Y71860D01*
X242536Y71865D01*
X242564Y71898D01*
X242613Y71947D01*
X242684Y72018D01*
X242766Y72100D01*
X242869Y72198D01*
X242995Y72308D01*
X243131Y72422D01*
X243137Y72428D01*
X243159Y72444D01*
X243192Y72471D01*
X243230Y72504D01*
X243279Y72548D01*
X243339Y72597D01*
X243399Y72652D01*
X243470Y72712D01*
X243606Y72843D01*
X243743Y72974D01*
X243809Y73039D01*
X243869Y73105D01*
X243923Y73165D01*
X243967Y73225D01*
Y73230D01*
X243978Y73236D01*
X243989Y73252D01*
X244000Y73274D01*
X244038Y73334D01*
X244081Y73405D01*
X244120Y73492D01*
X244158Y73585D01*
X244180Y73689D01*
X244191Y73787D01*
Y73793D01*
Y73798D01*
X244185Y73831D01*
X244180Y73886D01*
X244163Y73946D01*
X244142Y74022D01*
X244103Y74098D01*
X244054Y74175D01*
X243989Y74251D01*
X243978Y74262D01*
X243951Y74284D01*
X243912Y74312D01*
X243852Y74350D01*
X243776Y74382D01*
X243688Y74415D01*
X243585Y74437D01*
X243470Y74442D01*
X243437D01*
X243415Y74437D01*
X243350Y74432D01*
X243273Y74415D01*
X243192Y74393D01*
X243099Y74355D01*
X243011Y74306D01*
X242930Y74240D01*
X242919Y74230D01*
X242897Y74202D01*
X242864Y74159D01*
X242831Y74093D01*
X242793Y74017D01*
X242760Y73918D01*
X242738Y73809D01*
X242727Y73684D01*
X242252Y73733D01*
Y73738D01*
X242258Y73755D01*
Y73782D01*
X242263Y73820D01*
X242274Y73864D01*
X242285Y73913D01*
X242302Y73973D01*
X242318Y74033D01*
X242362Y74164D01*
X242427Y74295D01*
X242465Y74361D01*
X242514Y74426D01*
X242564Y74486D01*
X242618Y74541D01*
X242624Y74546D01*
X242635Y74552D01*
X242651Y74568D01*
X242678Y74585D01*
X242711Y74606D01*
X242749Y74628D01*
X242793Y74655D01*
X242848Y74683D01*
X242908Y74710D01*
X242973Y74737D01*
X243044Y74759D01*
X243121Y74781D01*
X243202Y74797D01*
X243290Y74814D01*
X243383Y74819D01*
X243481Y74825D01*
X243535D01*
X243574Y74819D01*
D02*
G37*
G36*
X240532Y74803D02*
X240625Y74797D01*
X240724Y74792D01*
X240816Y74781D01*
X240898Y74770D01*
X240909D01*
X240948Y74759D01*
X240997Y74748D01*
X241062Y74732D01*
X241133Y74705D01*
X241210Y74672D01*
X241291Y74634D01*
X241363Y74590D01*
X241373Y74585D01*
X241395Y74568D01*
X241428Y74535D01*
X241472Y74497D01*
X241521Y74448D01*
X241570Y74382D01*
X241624Y74312D01*
X241668Y74230D01*
X241674Y74219D01*
X241685Y74191D01*
X241706Y74142D01*
X241728Y74077D01*
X241745Y74000D01*
X241767Y73913D01*
X241777Y73815D01*
X241783Y73711D01*
Y73705D01*
Y73689D01*
Y73667D01*
X241777Y73629D01*
X241772Y73591D01*
X241767Y73542D01*
X241756Y73487D01*
X241745Y73427D01*
X241706Y73301D01*
X241685Y73236D01*
X241652Y73165D01*
X241614Y73094D01*
X241575Y73028D01*
X241526Y72963D01*
X241472Y72897D01*
X241466Y72892D01*
X241455Y72881D01*
X241439Y72865D01*
X241412Y72848D01*
X241379Y72821D01*
X241335Y72794D01*
X241281Y72761D01*
X241220Y72733D01*
X241149Y72701D01*
X241068Y72668D01*
X240980Y72641D01*
X240877Y72619D01*
X240767Y72597D01*
X240647Y72581D01*
X240511Y72570D01*
X240369Y72564D01*
X239402D01*
Y71030D01*
X238900D01*
Y74808D01*
X240451D01*
X240532Y74803D01*
D02*
G37*
G36*
X249078Y113000D02*
X248614D01*
Y115954D01*
X248608Y115948D01*
X248581Y115927D01*
X248548Y115894D01*
X248494Y115856D01*
X248433Y115806D01*
X248357Y115752D01*
X248270Y115692D01*
X248171Y115632D01*
X248166D01*
X248161Y115626D01*
X248128Y115604D01*
X248073Y115577D01*
X248008Y115544D01*
X247931Y115506D01*
X247849Y115468D01*
X247767Y115430D01*
X247686Y115397D01*
Y115845D01*
X247691D01*
X247702Y115856D01*
X247724Y115861D01*
X247751Y115877D01*
X247784Y115894D01*
X247822Y115916D01*
X247915Y115970D01*
X248024Y116030D01*
X248133Y116107D01*
X248248Y116194D01*
X248362Y116287D01*
X248368Y116292D01*
X248374Y116298D01*
X248390Y116314D01*
X248412Y116331D01*
X248461Y116385D01*
X248526Y116451D01*
X248592Y116527D01*
X248663Y116614D01*
X248723Y116702D01*
X248778Y116795D01*
X249078D01*
Y113000D01*
D02*
G37*
G36*
X245633Y116773D02*
X245725Y116767D01*
X245824Y116762D01*
X245917Y116751D01*
X245998Y116740D01*
X246009D01*
X246047Y116729D01*
X246097Y116718D01*
X246162Y116702D01*
X246233Y116675D01*
X246310Y116642D01*
X246392Y116604D01*
X246462Y116560D01*
X246473Y116554D01*
X246495Y116538D01*
X246528Y116505D01*
X246572Y116467D01*
X246621Y116418D01*
X246670Y116352D01*
X246725Y116281D01*
X246768Y116200D01*
X246774Y116189D01*
X246785Y116161D01*
X246806Y116112D01*
X246828Y116047D01*
X246845Y115970D01*
X246866Y115883D01*
X246877Y115785D01*
X246883Y115681D01*
Y115675D01*
Y115659D01*
Y115637D01*
X246877Y115599D01*
X246872Y115561D01*
X246866Y115512D01*
X246856Y115457D01*
X246845Y115397D01*
X246806Y115271D01*
X246785Y115206D01*
X246752Y115135D01*
X246714Y115064D01*
X246675Y114998D01*
X246626Y114933D01*
X246572Y114867D01*
X246566Y114862D01*
X246555Y114851D01*
X246539Y114835D01*
X246512Y114818D01*
X246479Y114791D01*
X246435Y114764D01*
X246381Y114731D01*
X246321Y114704D01*
X246250Y114671D01*
X246168Y114638D01*
X246080Y114611D01*
X245976Y114589D01*
X245867Y114567D01*
X245747Y114551D01*
X245611Y114540D01*
X245469Y114534D01*
X244502D01*
Y113000D01*
X244000D01*
Y116778D01*
X245551D01*
X245633Y116773D01*
D02*
G37*
G36*
X232857Y106817D02*
X231344D01*
X231142Y105796D01*
X231148Y105801D01*
X231158Y105807D01*
X231175Y105818D01*
X231202Y105834D01*
X231235Y105851D01*
X231273Y105872D01*
X231361Y105916D01*
X231470Y105960D01*
X231590Y105998D01*
X231721Y106025D01*
X231786Y106036D01*
X231907D01*
X231939Y106031D01*
X231983Y106025D01*
X232032Y106020D01*
X232087Y106009D01*
X232147Y105992D01*
X232278Y105954D01*
X232349Y105927D01*
X232420Y105889D01*
X232491Y105851D01*
X232562Y105807D01*
X232627Y105752D01*
X232693Y105692D01*
X232698Y105687D01*
X232709Y105676D01*
X232726Y105659D01*
X232747Y105632D01*
X232775Y105594D01*
X232802Y105556D01*
X232835Y105507D01*
X232868Y105452D01*
X232895Y105392D01*
X232927Y105326D01*
X232955Y105250D01*
X232982Y105174D01*
X233004Y105092D01*
X233020Y104999D01*
X233031Y104906D01*
X233037Y104808D01*
Y104802D01*
Y104786D01*
Y104759D01*
X233031Y104720D01*
X233026Y104677D01*
X233020Y104628D01*
X233009Y104567D01*
X232998Y104507D01*
X232966Y104365D01*
X232911Y104218D01*
X232878Y104141D01*
X232835Y104070D01*
X232791Y103994D01*
X232736Y103923D01*
X232731Y103918D01*
X232720Y103901D01*
X232698Y103879D01*
X232671Y103852D01*
X232633Y103819D01*
X232589Y103776D01*
X232534Y103737D01*
X232474Y103694D01*
X232409Y103650D01*
X232332Y103612D01*
X232250Y103574D01*
X232163Y103535D01*
X232070Y103508D01*
X231967Y103486D01*
X231857Y103470D01*
X231743Y103464D01*
X231694D01*
X231655Y103470D01*
X231612Y103475D01*
X231562Y103481D01*
X231503Y103486D01*
X231442Y103503D01*
X231306Y103535D01*
X231169Y103585D01*
X231098Y103617D01*
X231028Y103656D01*
X230962Y103699D01*
X230896Y103748D01*
X230891Y103754D01*
X230880Y103759D01*
X230869Y103781D01*
X230847Y103803D01*
X230820Y103830D01*
X230793Y103863D01*
X230760Y103907D01*
X230733Y103956D01*
X230700Y104005D01*
X230667Y104065D01*
X230607Y104196D01*
X230558Y104349D01*
X230541Y104431D01*
X230531Y104518D01*
X231016Y104557D01*
Y104551D01*
Y104540D01*
X231022Y104524D01*
X231028Y104496D01*
X231044Y104436D01*
X231066Y104355D01*
X231098Y104273D01*
X231142Y104180D01*
X231197Y104098D01*
X231262Y104021D01*
X231273Y104016D01*
X231295Y103994D01*
X231339Y103967D01*
X231399Y103934D01*
X231464Y103901D01*
X231546Y103874D01*
X231639Y103852D01*
X231743Y103847D01*
X231775D01*
X231797Y103852D01*
X231863Y103858D01*
X231939Y103879D01*
X232032Y103907D01*
X232125Y103950D01*
X232223Y104016D01*
X232267Y104054D01*
X232311Y104098D01*
X232316Y104103D01*
X232322Y104109D01*
X232332Y104125D01*
X232349Y104141D01*
X232387Y104202D01*
X232431Y104278D01*
X232469Y104371D01*
X232507Y104485D01*
X232534Y104622D01*
X232545Y104693D01*
Y104769D01*
Y104775D01*
Y104786D01*
Y104808D01*
X232540Y104835D01*
Y104868D01*
X232534Y104906D01*
X232518Y104993D01*
X232491Y105097D01*
X232453Y105201D01*
X232398Y105299D01*
X232322Y105392D01*
Y105397D01*
X232311Y105403D01*
X232283Y105430D01*
X232234Y105468D01*
X232169Y105512D01*
X232081Y105550D01*
X231983Y105588D01*
X231868Y105616D01*
X231803Y105627D01*
X231699D01*
X231655Y105621D01*
X231601Y105616D01*
X231535Y105599D01*
X231470Y105583D01*
X231399Y105556D01*
X231328Y105523D01*
X231322Y105517D01*
X231300Y105507D01*
X231268Y105479D01*
X231224Y105452D01*
X231180Y105414D01*
X231137Y105365D01*
X231087Y105315D01*
X231049Y105255D01*
X230612Y105315D01*
X230978Y107259D01*
X232857D01*
Y106817D01*
D02*
G37*
G36*
X228833Y107303D02*
X228925Y107297D01*
X229024Y107292D01*
X229117Y107281D01*
X229198Y107270D01*
X229209D01*
X229247Y107259D01*
X229297Y107248D01*
X229362Y107232D01*
X229433Y107205D01*
X229510Y107172D01*
X229591Y107134D01*
X229662Y107090D01*
X229673Y107085D01*
X229695Y107068D01*
X229728Y107035D01*
X229772Y106997D01*
X229821Y106948D01*
X229870Y106882D01*
X229925Y106811D01*
X229968Y106730D01*
X229974Y106719D01*
X229985Y106691D01*
X230006Y106642D01*
X230028Y106577D01*
X230045Y106500D01*
X230066Y106413D01*
X230077Y106315D01*
X230083Y106211D01*
Y106205D01*
Y106189D01*
Y106167D01*
X230077Y106129D01*
X230072Y106091D01*
X230066Y106042D01*
X230056Y105987D01*
X230045Y105927D01*
X230006Y105801D01*
X229985Y105736D01*
X229952Y105665D01*
X229914Y105594D01*
X229875Y105528D01*
X229826Y105463D01*
X229772Y105397D01*
X229766Y105392D01*
X229755Y105381D01*
X229739Y105365D01*
X229712Y105348D01*
X229679Y105321D01*
X229635Y105294D01*
X229581Y105261D01*
X229521Y105234D01*
X229450Y105201D01*
X229368Y105168D01*
X229280Y105141D01*
X229176Y105119D01*
X229067Y105097D01*
X228947Y105081D01*
X228811Y105070D01*
X228669Y105064D01*
X227702D01*
Y103530D01*
X227200D01*
Y107308D01*
X228751D01*
X228833Y107303D01*
D02*
G37*
G36*
X226830Y69819D02*
X226901Y69808D01*
X226988Y69792D01*
X227087Y69765D01*
X227185Y69732D01*
X227283Y69688D01*
X227289D01*
X227294Y69683D01*
X227327Y69666D01*
X227376Y69634D01*
X227431Y69595D01*
X227496Y69541D01*
X227562Y69481D01*
X227627Y69410D01*
X227682Y69328D01*
X227687Y69317D01*
X227704Y69290D01*
X227726Y69240D01*
X227753Y69180D01*
X227780Y69109D01*
X227802Y69028D01*
X227818Y68935D01*
X227824Y68842D01*
Y68831D01*
Y68798D01*
X227818Y68755D01*
X227807Y68695D01*
X227791Y68624D01*
X227764Y68547D01*
X227731Y68471D01*
X227687Y68394D01*
X227682Y68383D01*
X227665Y68361D01*
X227633Y68323D01*
X227589Y68279D01*
X227534Y68230D01*
X227469Y68176D01*
X227393Y68127D01*
X227300Y68077D01*
X227305D01*
X227316Y68072D01*
X227332Y68067D01*
X227354Y68061D01*
X227414Y68039D01*
X227491Y68006D01*
X227578Y67963D01*
X227665Y67908D01*
X227747Y67837D01*
X227824Y67755D01*
X227829Y67744D01*
X227851Y67712D01*
X227884Y67657D01*
X227917Y67586D01*
X227949Y67499D01*
X227982Y67395D01*
X228004Y67275D01*
X228009Y67144D01*
Y67138D01*
Y67122D01*
Y67095D01*
X228004Y67062D01*
X227998Y67018D01*
X227988Y66969D01*
X227977Y66914D01*
X227966Y66855D01*
X227922Y66723D01*
X227889Y66652D01*
X227857Y66587D01*
X227813Y66516D01*
X227764Y66445D01*
X227709Y66374D01*
X227644Y66308D01*
X227638Y66303D01*
X227627Y66292D01*
X227605Y66276D01*
X227578Y66254D01*
X227545Y66227D01*
X227502Y66199D01*
X227452Y66167D01*
X227393Y66139D01*
X227332Y66106D01*
X227261Y66074D01*
X227190Y66046D01*
X227109Y66019D01*
X227021Y65997D01*
X226928Y65981D01*
X226835Y65970D01*
X226732Y65965D01*
X226683D01*
X226650Y65970D01*
X226606Y65975D01*
X226557Y65981D01*
X226502Y65992D01*
X226442Y66003D01*
X226311Y66035D01*
X226175Y66090D01*
X226104Y66123D01*
X226038Y66161D01*
X225973Y66210D01*
X225907Y66259D01*
X225902Y66265D01*
X225891Y66276D01*
X225875Y66292D01*
X225858Y66314D01*
X225831Y66341D01*
X225804Y66379D01*
X225771Y66418D01*
X225738Y66467D01*
X225705Y66521D01*
X225673Y66576D01*
X225612Y66707D01*
X225563Y66860D01*
X225547Y66942D01*
X225536Y67029D01*
X226000Y67089D01*
Y67084D01*
X226006Y67073D01*
X226011Y67051D01*
X226016Y67024D01*
X226022Y66991D01*
X226033Y66953D01*
X226060Y66871D01*
X226098Y66773D01*
X226148Y66680D01*
X226202Y66592D01*
X226268Y66516D01*
X226279Y66510D01*
X226301Y66489D01*
X226344Y66461D01*
X226399Y66434D01*
X226464Y66401D01*
X226546Y66374D01*
X226639Y66352D01*
X226737Y66347D01*
X226770D01*
X226792Y66352D01*
X226852Y66358D01*
X226928Y66374D01*
X227016Y66401D01*
X227109Y66439D01*
X227201Y66494D01*
X227289Y66571D01*
X227300Y66581D01*
X227327Y66614D01*
X227360Y66663D01*
X227403Y66729D01*
X227447Y66811D01*
X227480Y66904D01*
X227507Y67013D01*
X227518Y67133D01*
Y67138D01*
Y67149D01*
Y67166D01*
X227513Y67188D01*
X227507Y67248D01*
X227491Y67319D01*
X227469Y67406D01*
X227431Y67493D01*
X227376Y67581D01*
X227305Y67663D01*
X227294Y67673D01*
X227267Y67695D01*
X227223Y67728D01*
X227163Y67766D01*
X227087Y67804D01*
X226994Y67837D01*
X226890Y67859D01*
X226776Y67870D01*
X226726D01*
X226688Y67865D01*
X226639Y67859D01*
X226584Y67848D01*
X226519Y67837D01*
X226448Y67821D01*
X226502Y68230D01*
X226530D01*
X226552Y68225D01*
X226623D01*
X226683Y68236D01*
X226754Y68247D01*
X226835Y68263D01*
X226928Y68290D01*
X227016Y68329D01*
X227109Y68378D01*
X227114D01*
X227119Y68383D01*
X227147Y68405D01*
X227185Y68443D01*
X227229Y68493D01*
X227272Y68563D01*
X227311Y68645D01*
X227338Y68738D01*
X227349Y68793D01*
Y68853D01*
Y68858D01*
Y68864D01*
Y68897D01*
X227338Y68940D01*
X227327Y69000D01*
X227305Y69066D01*
X227278Y69137D01*
X227234Y69208D01*
X227174Y69273D01*
X227169Y69279D01*
X227141Y69301D01*
X227103Y69328D01*
X227054Y69361D01*
X226988Y69388D01*
X226912Y69415D01*
X226825Y69437D01*
X226726Y69442D01*
X226683D01*
X226634Y69432D01*
X226568Y69421D01*
X226497Y69399D01*
X226426Y69371D01*
X226350Y69328D01*
X226279Y69273D01*
X226273Y69268D01*
X226251Y69240D01*
X226219Y69202D01*
X226180Y69148D01*
X226142Y69077D01*
X226104Y68989D01*
X226071Y68886D01*
X226049Y68765D01*
X225585Y68847D01*
Y68853D01*
X225591Y68869D01*
X225596Y68891D01*
X225602Y68924D01*
X225612Y68962D01*
X225629Y69006D01*
X225662Y69109D01*
X225716Y69230D01*
X225782Y69350D01*
X225864Y69464D01*
X225967Y69568D01*
X225973Y69573D01*
X225984Y69579D01*
X226000Y69590D01*
X226022Y69606D01*
X226049Y69628D01*
X226087Y69650D01*
X226126Y69672D01*
X226175Y69699D01*
X226284Y69743D01*
X226410Y69787D01*
X226557Y69814D01*
X226634Y69825D01*
X226770D01*
X226830Y69819D01*
D02*
G37*
G36*
X223833Y69803D02*
X223925Y69797D01*
X224024Y69792D01*
X224116Y69781D01*
X224198Y69770D01*
X224209D01*
X224248Y69759D01*
X224297Y69748D01*
X224362Y69732D01*
X224433Y69705D01*
X224510Y69672D01*
X224591Y69634D01*
X224662Y69590D01*
X224673Y69585D01*
X224695Y69568D01*
X224728Y69535D01*
X224772Y69497D01*
X224821Y69448D01*
X224870Y69382D01*
X224924Y69311D01*
X224968Y69230D01*
X224974Y69219D01*
X224985Y69191D01*
X225006Y69142D01*
X225028Y69077D01*
X225045Y69000D01*
X225066Y68913D01*
X225077Y68815D01*
X225083Y68711D01*
Y68705D01*
Y68689D01*
Y68667D01*
X225077Y68629D01*
X225072Y68591D01*
X225066Y68542D01*
X225056Y68487D01*
X225045Y68427D01*
X225006Y68301D01*
X224985Y68236D01*
X224952Y68165D01*
X224914Y68094D01*
X224875Y68028D01*
X224826Y67963D01*
X224772Y67897D01*
X224766Y67892D01*
X224755Y67881D01*
X224739Y67865D01*
X224712Y67848D01*
X224679Y67821D01*
X224635Y67794D01*
X224581Y67761D01*
X224520Y67734D01*
X224449Y67701D01*
X224368Y67668D01*
X224280Y67641D01*
X224177Y67619D01*
X224067Y67597D01*
X223947Y67581D01*
X223811Y67570D01*
X223669Y67564D01*
X222702D01*
Y66030D01*
X222200D01*
Y69808D01*
X223751D01*
X223833Y69803D01*
D02*
G37*
G36*
X103980Y101362D02*
X104493D01*
Y100936D01*
X103980D01*
Y100030D01*
X103516D01*
Y100936D01*
X101872D01*
Y101362D01*
X103603Y103808D01*
X103980D01*
Y101362D01*
D02*
G37*
G36*
X100332Y103803D02*
X100425Y103797D01*
X100524Y103792D01*
X100617Y103781D01*
X100698Y103770D01*
X100709D01*
X100748Y103759D01*
X100797Y103748D01*
X100862Y103732D01*
X100933Y103705D01*
X101010Y103672D01*
X101092Y103634D01*
X101163Y103590D01*
X101173Y103585D01*
X101195Y103568D01*
X101228Y103535D01*
X101272Y103497D01*
X101321Y103448D01*
X101370Y103382D01*
X101425Y103312D01*
X101468Y103230D01*
X101474Y103219D01*
X101485Y103191D01*
X101506Y103142D01*
X101528Y103077D01*
X101545Y103000D01*
X101567Y102913D01*
X101577Y102815D01*
X101583Y102711D01*
Y102705D01*
Y102689D01*
Y102667D01*
X101577Y102629D01*
X101572Y102591D01*
X101567Y102542D01*
X101556Y102487D01*
X101545Y102427D01*
X101506Y102301D01*
X101485Y102236D01*
X101452Y102165D01*
X101414Y102094D01*
X101375Y102028D01*
X101326Y101963D01*
X101272Y101897D01*
X101266Y101892D01*
X101255Y101881D01*
X101239Y101865D01*
X101212Y101848D01*
X101179Y101821D01*
X101135Y101794D01*
X101081Y101761D01*
X101021Y101734D01*
X100950Y101701D01*
X100868Y101668D01*
X100780Y101641D01*
X100677Y101619D01*
X100567Y101597D01*
X100447Y101581D01*
X100311Y101570D01*
X100169Y101564D01*
X99202D01*
Y100030D01*
X98700D01*
Y103808D01*
X100251D01*
X100332Y103803D01*
D02*
G37*
G36*
X74169Y24462D02*
X74682D01*
Y24036D01*
X74169D01*
Y23130D01*
X73705D01*
Y24036D01*
X72062D01*
Y24462D01*
X73792Y26908D01*
X74169D01*
Y24462D01*
D02*
G37*
G36*
X70151Y26903D02*
X70260Y26897D01*
X70369Y26886D01*
X70478Y26870D01*
X70571Y26854D01*
X70577D01*
X70587Y26848D01*
X70604D01*
X70626Y26837D01*
X70686Y26821D01*
X70762Y26794D01*
X70850Y26755D01*
X70942Y26706D01*
X71035Y26652D01*
X71122Y26581D01*
X71128Y26575D01*
X71133Y26570D01*
X71150Y26553D01*
X71172Y26537D01*
X71226Y26482D01*
X71292Y26406D01*
X71363Y26313D01*
X71439Y26204D01*
X71510Y26078D01*
X71570Y25936D01*
Y25931D01*
X71576Y25920D01*
X71587Y25898D01*
X71592Y25866D01*
X71609Y25827D01*
X71619Y25784D01*
X71630Y25734D01*
X71647Y25674D01*
X71663Y25614D01*
X71674Y25543D01*
X71701Y25390D01*
X71718Y25221D01*
X71723Y25036D01*
Y25030D01*
Y25019D01*
Y24992D01*
Y24965D01*
X71718Y24926D01*
Y24883D01*
X71712Y24779D01*
X71696Y24659D01*
X71679Y24533D01*
X71652Y24402D01*
X71619Y24271D01*
Y24266D01*
X71614Y24255D01*
X71609Y24238D01*
X71603Y24216D01*
X71581Y24157D01*
X71548Y24080D01*
X71516Y23993D01*
X71472Y23905D01*
X71417Y23812D01*
X71363Y23725D01*
X71357Y23714D01*
X71336Y23687D01*
X71303Y23649D01*
X71259Y23600D01*
X71210Y23545D01*
X71150Y23490D01*
X71090Y23430D01*
X71019Y23381D01*
X71008Y23376D01*
X70986Y23359D01*
X70948Y23337D01*
X70893Y23310D01*
X70828Y23277D01*
X70751Y23250D01*
X70664Y23217D01*
X70566Y23190D01*
X70555D01*
X70538Y23185D01*
X70522Y23179D01*
X70467Y23174D01*
X70391Y23163D01*
X70303Y23152D01*
X70200Y23141D01*
X70085Y23135D01*
X69959Y23130D01*
X68600D01*
Y26908D01*
X70052D01*
X70151Y26903D01*
D02*
G37*
G36*
X131120Y43219D02*
X131190Y43208D01*
X131278Y43192D01*
X131376Y43165D01*
X131474Y43132D01*
X131573Y43088D01*
X131578D01*
X131584Y43083D01*
X131616Y43066D01*
X131666Y43034D01*
X131720Y42995D01*
X131786Y42941D01*
X131851Y42881D01*
X131917Y42810D01*
X131971Y42728D01*
X131977Y42717D01*
X131993Y42690D01*
X132015Y42641D01*
X132042Y42580D01*
X132070Y42509D01*
X132091Y42428D01*
X132108Y42335D01*
X132113Y42242D01*
Y42231D01*
Y42198D01*
X132108Y42154D01*
X132097Y42094D01*
X132080Y42024D01*
X132053Y41947D01*
X132020Y41871D01*
X131977Y41794D01*
X131971Y41783D01*
X131955Y41761D01*
X131922Y41723D01*
X131878Y41679D01*
X131824Y41630D01*
X131758Y41576D01*
X131682Y41527D01*
X131589Y41478D01*
X131595D01*
X131605Y41472D01*
X131622Y41467D01*
X131644Y41461D01*
X131704Y41439D01*
X131780Y41407D01*
X131868Y41363D01*
X131955Y41308D01*
X132037Y41237D01*
X132113Y41155D01*
X132119Y41144D01*
X132141Y41112D01*
X132173Y41057D01*
X132206Y40986D01*
X132239Y40899D01*
X132272Y40795D01*
X132293Y40675D01*
X132299Y40544D01*
Y40538D01*
Y40522D01*
Y40495D01*
X132293Y40462D01*
X132288Y40418D01*
X132277Y40369D01*
X132266Y40314D01*
X132255Y40255D01*
X132211Y40123D01*
X132179Y40052D01*
X132146Y39987D01*
X132102Y39916D01*
X132053Y39845D01*
X131999Y39774D01*
X131933Y39709D01*
X131928Y39703D01*
X131917Y39692D01*
X131895Y39676D01*
X131868Y39654D01*
X131835Y39627D01*
X131791Y39599D01*
X131742Y39566D01*
X131682Y39539D01*
X131622Y39506D01*
X131551Y39474D01*
X131480Y39446D01*
X131398Y39419D01*
X131311Y39397D01*
X131218Y39381D01*
X131125Y39370D01*
X131021Y39364D01*
X130972D01*
X130939Y39370D01*
X130896Y39375D01*
X130847Y39381D01*
X130792Y39392D01*
X130732Y39403D01*
X130601Y39435D01*
X130464Y39490D01*
X130393Y39523D01*
X130328Y39561D01*
X130262Y39610D01*
X130197Y39659D01*
X130191Y39665D01*
X130180Y39676D01*
X130164Y39692D01*
X130148Y39714D01*
X130120Y39741D01*
X130093Y39779D01*
X130060Y39818D01*
X130027Y39867D01*
X129995Y39921D01*
X129962Y39976D01*
X129902Y40107D01*
X129853Y40260D01*
X129836Y40342D01*
X129825Y40429D01*
X130289Y40489D01*
Y40484D01*
X130295Y40473D01*
X130300Y40451D01*
X130306Y40424D01*
X130311Y40391D01*
X130322Y40353D01*
X130350Y40271D01*
X130388Y40173D01*
X130437Y40080D01*
X130492Y39992D01*
X130557Y39916D01*
X130568Y39911D01*
X130590Y39889D01*
X130633Y39861D01*
X130688Y39834D01*
X130754Y39801D01*
X130835Y39774D01*
X130928Y39752D01*
X131027Y39747D01*
X131059D01*
X131081Y39752D01*
X131141Y39758D01*
X131218Y39774D01*
X131305Y39801D01*
X131398Y39840D01*
X131491Y39894D01*
X131578Y39970D01*
X131589Y39981D01*
X131616Y40014D01*
X131649Y40063D01*
X131693Y40129D01*
X131736Y40211D01*
X131769Y40304D01*
X131797Y40413D01*
X131807Y40533D01*
Y40538D01*
Y40549D01*
Y40566D01*
X131802Y40587D01*
X131797Y40648D01*
X131780Y40719D01*
X131758Y40806D01*
X131720Y40893D01*
X131666Y40981D01*
X131595Y41063D01*
X131584Y41074D01*
X131556Y41095D01*
X131513Y41128D01*
X131453Y41166D01*
X131376Y41205D01*
X131283Y41237D01*
X131179Y41259D01*
X131065Y41270D01*
X131016D01*
X130977Y41265D01*
X130928Y41259D01*
X130874Y41248D01*
X130808Y41237D01*
X130737Y41221D01*
X130792Y41630D01*
X130819D01*
X130841Y41625D01*
X130912D01*
X130972Y41636D01*
X131043Y41647D01*
X131125Y41663D01*
X131218Y41690D01*
X131305Y41729D01*
X131398Y41778D01*
X131403D01*
X131409Y41783D01*
X131436Y41805D01*
X131474Y41843D01*
X131518Y41892D01*
X131562Y41963D01*
X131600Y42045D01*
X131627Y42138D01*
X131638Y42193D01*
Y42253D01*
Y42258D01*
Y42264D01*
Y42296D01*
X131627Y42340D01*
X131616Y42400D01*
X131595Y42466D01*
X131567Y42537D01*
X131524Y42608D01*
X131463Y42673D01*
X131458Y42679D01*
X131431Y42700D01*
X131393Y42728D01*
X131343Y42761D01*
X131278Y42788D01*
X131201Y42815D01*
X131114Y42837D01*
X131016Y42843D01*
X130972D01*
X130923Y42832D01*
X130857Y42821D01*
X130786Y42799D01*
X130715Y42772D01*
X130639Y42728D01*
X130568Y42673D01*
X130562Y42668D01*
X130541Y42641D01*
X130508Y42602D01*
X130470Y42548D01*
X130431Y42477D01*
X130393Y42389D01*
X130360Y42286D01*
X130339Y42165D01*
X129875Y42247D01*
Y42253D01*
X129880Y42269D01*
X129885Y42291D01*
X129891Y42324D01*
X129902Y42362D01*
X129918Y42406D01*
X129951Y42509D01*
X130006Y42630D01*
X130071Y42750D01*
X130153Y42864D01*
X130257Y42968D01*
X130262Y42974D01*
X130273Y42979D01*
X130289Y42990D01*
X130311Y43006D01*
X130339Y43028D01*
X130377Y43050D01*
X130415Y43072D01*
X130464Y43099D01*
X130573Y43143D01*
X130699Y43187D01*
X130847Y43214D01*
X130923Y43225D01*
X131059D01*
X131120Y43219D01*
D02*
G37*
G36*
X127751Y43203D02*
X127860Y43197D01*
X127969Y43187D01*
X128078Y43170D01*
X128171Y43154D01*
X128176D01*
X128187Y43148D01*
X128204D01*
X128226Y43137D01*
X128286Y43121D01*
X128362Y43094D01*
X128449Y43055D01*
X128542Y43006D01*
X128635Y42952D01*
X128723Y42881D01*
X128728Y42875D01*
X128733Y42870D01*
X128750Y42853D01*
X128772Y42837D01*
X128826Y42782D01*
X128892Y42706D01*
X128963Y42613D01*
X129039Y42504D01*
X129110Y42378D01*
X129170Y42236D01*
Y42231D01*
X129176Y42220D01*
X129187Y42198D01*
X129192Y42165D01*
X129209Y42127D01*
X129219Y42084D01*
X129230Y42034D01*
X129247Y41974D01*
X129263Y41914D01*
X129274Y41843D01*
X129301Y41690D01*
X129318Y41521D01*
X129323Y41335D01*
Y41330D01*
Y41319D01*
Y41292D01*
Y41265D01*
X129318Y41226D01*
Y41183D01*
X129312Y41079D01*
X129296Y40959D01*
X129279Y40833D01*
X129252Y40702D01*
X129219Y40571D01*
Y40566D01*
X129214Y40555D01*
X129209Y40538D01*
X129203Y40516D01*
X129181Y40457D01*
X129148Y40380D01*
X129116Y40293D01*
X129072Y40205D01*
X129017Y40113D01*
X128963Y40025D01*
X128957Y40014D01*
X128936Y39987D01*
X128903Y39949D01*
X128859Y39900D01*
X128810Y39845D01*
X128750Y39790D01*
X128690Y39730D01*
X128619Y39681D01*
X128608Y39676D01*
X128586Y39659D01*
X128548Y39638D01*
X128493Y39610D01*
X128428Y39577D01*
X128351Y39550D01*
X128264Y39517D01*
X128166Y39490D01*
X128155D01*
X128138Y39485D01*
X128122Y39479D01*
X128067Y39474D01*
X127991Y39463D01*
X127903Y39452D01*
X127800Y39441D01*
X127685Y39435D01*
X127559Y39430D01*
X126200D01*
Y43208D01*
X127652D01*
X127751Y43203D01*
D02*
G37*
G36*
X71567Y96600D02*
X71103D01*
Y99554D01*
X71098Y99548D01*
X71070Y99527D01*
X71038Y99494D01*
X70983Y99456D01*
X70923Y99406D01*
X70846Y99352D01*
X70759Y99292D01*
X70661Y99232D01*
X70655D01*
X70650Y99226D01*
X70617Y99204D01*
X70562Y99177D01*
X70497Y99144D01*
X70421Y99106D01*
X70339Y99068D01*
X70257Y99030D01*
X70175Y98997D01*
Y99445D01*
X70180D01*
X70191Y99456D01*
X70213Y99461D01*
X70240Y99477D01*
X70273Y99494D01*
X70311Y99516D01*
X70404Y99570D01*
X70513Y99630D01*
X70623Y99707D01*
X70737Y99794D01*
X70852Y99887D01*
X70857Y99892D01*
X70863Y99898D01*
X70879Y99914D01*
X70901Y99931D01*
X70950Y99985D01*
X71016Y100051D01*
X71081Y100127D01*
X71152Y100215D01*
X71212Y100302D01*
X71267Y100395D01*
X71567D01*
Y96600D01*
D02*
G37*
G36*
X67751Y100373D02*
X67860Y100367D01*
X67969Y100356D01*
X68078Y100340D01*
X68171Y100324D01*
X68177D01*
X68187Y100318D01*
X68204D01*
X68226Y100307D01*
X68286Y100291D01*
X68362Y100264D01*
X68449Y100225D01*
X68542Y100176D01*
X68635Y100122D01*
X68722Y100051D01*
X68728Y100045D01*
X68733Y100040D01*
X68750Y100023D01*
X68772Y100007D01*
X68826Y99952D01*
X68892Y99876D01*
X68963Y99783D01*
X69039Y99674D01*
X69110Y99548D01*
X69170Y99406D01*
Y99401D01*
X69176Y99390D01*
X69187Y99368D01*
X69192Y99335D01*
X69209Y99297D01*
X69219Y99254D01*
X69230Y99204D01*
X69247Y99144D01*
X69263Y99084D01*
X69274Y99013D01*
X69301Y98860D01*
X69318Y98691D01*
X69323Y98506D01*
Y98500D01*
Y98489D01*
Y98462D01*
Y98435D01*
X69318Y98396D01*
Y98353D01*
X69312Y98249D01*
X69296Y98129D01*
X69279Y98003D01*
X69252Y97872D01*
X69219Y97741D01*
Y97736D01*
X69214Y97725D01*
X69209Y97708D01*
X69203Y97686D01*
X69181Y97627D01*
X69148Y97550D01*
X69116Y97463D01*
X69072Y97375D01*
X69017Y97282D01*
X68963Y97195D01*
X68957Y97184D01*
X68936Y97157D01*
X68903Y97119D01*
X68859Y97070D01*
X68810Y97015D01*
X68750Y96960D01*
X68690Y96900D01*
X68619Y96851D01*
X68608Y96846D01*
X68586Y96829D01*
X68548Y96807D01*
X68493Y96780D01*
X68428Y96747D01*
X68351Y96720D01*
X68264Y96687D01*
X68166Y96660D01*
X68155D01*
X68138Y96655D01*
X68122Y96649D01*
X68067Y96644D01*
X67991Y96633D01*
X67904Y96622D01*
X67800Y96611D01*
X67685Y96605D01*
X67559Y96600D01*
X66200D01*
Y100378D01*
X67652D01*
X67751Y100373D01*
D02*
G37*
G36*
X154763Y43089D02*
X154807Y43084D01*
X154861Y43078D01*
X154921Y43067D01*
X154982Y43056D01*
X155123Y43018D01*
X155265Y42964D01*
X155336Y42931D01*
X155407Y42893D01*
X155473Y42843D01*
X155533Y42789D01*
X155538Y42783D01*
X155549Y42778D01*
X155560Y42756D01*
X155582Y42734D01*
X155609Y42707D01*
X155637Y42669D01*
X155664Y42631D01*
X155697Y42581D01*
X155751Y42478D01*
X155806Y42347D01*
X155828Y42281D01*
X155839Y42205D01*
X155850Y42128D01*
X155855Y42046D01*
Y42035D01*
Y42008D01*
X155850Y41965D01*
X155844Y41904D01*
X155833Y41839D01*
X155812Y41763D01*
X155790Y41681D01*
X155757Y41599D01*
X155751Y41588D01*
X155740Y41560D01*
X155719Y41517D01*
X155686Y41457D01*
X155642Y41391D01*
X155588Y41309D01*
X155522Y41227D01*
X155446Y41135D01*
X155435Y41124D01*
X155407Y41091D01*
X155380Y41064D01*
X155353Y41036D01*
X155320Y41004D01*
X155276Y40960D01*
X155233Y40916D01*
X155178Y40867D01*
X155123Y40812D01*
X155058Y40752D01*
X154987Y40692D01*
X154911Y40621D01*
X154823Y40550D01*
X154736Y40474D01*
X154730Y40468D01*
X154719Y40457D01*
X154698Y40441D01*
X154670Y40419D01*
X154638Y40387D01*
X154599Y40354D01*
X154512Y40283D01*
X154419Y40201D01*
X154332Y40119D01*
X154255Y40048D01*
X154223Y40021D01*
X154195Y39993D01*
X154190Y39988D01*
X154174Y39972D01*
X154152Y39950D01*
X154124Y39917D01*
X154097Y39879D01*
X154064Y39840D01*
X153999Y39748D01*
X155861D01*
Y39300D01*
X153355D01*
Y39305D01*
Y39327D01*
Y39360D01*
X153360Y39404D01*
X153365Y39453D01*
X153376Y39507D01*
X153387Y39562D01*
X153409Y39622D01*
Y39628D01*
X153414Y39633D01*
X153425Y39666D01*
X153447Y39715D01*
X153480Y39781D01*
X153524Y39857D01*
X153578Y39944D01*
X153638Y40032D01*
X153715Y40124D01*
Y40130D01*
X153726Y40135D01*
X153753Y40168D01*
X153802Y40217D01*
X153873Y40288D01*
X153955Y40370D01*
X154059Y40468D01*
X154184Y40578D01*
X154321Y40692D01*
X154326Y40698D01*
X154348Y40714D01*
X154381Y40741D01*
X154419Y40774D01*
X154468Y40818D01*
X154528Y40867D01*
X154588Y40922D01*
X154659Y40982D01*
X154796Y41113D01*
X154932Y41244D01*
X154998Y41309D01*
X155058Y41375D01*
X155113Y41435D01*
X155156Y41495D01*
Y41500D01*
X155167Y41506D01*
X155178Y41522D01*
X155189Y41544D01*
X155227Y41604D01*
X155271Y41675D01*
X155309Y41763D01*
X155347Y41855D01*
X155369Y41959D01*
X155380Y42057D01*
Y42063D01*
Y42068D01*
X155375Y42101D01*
X155369Y42156D01*
X155353Y42216D01*
X155331Y42292D01*
X155293Y42369D01*
X155244Y42445D01*
X155178Y42521D01*
X155167Y42532D01*
X155140Y42554D01*
X155102Y42581D01*
X155042Y42620D01*
X154965Y42652D01*
X154878Y42685D01*
X154774Y42707D01*
X154659Y42713D01*
X154627D01*
X154605Y42707D01*
X154539Y42702D01*
X154463Y42685D01*
X154381Y42663D01*
X154288Y42625D01*
X154201Y42576D01*
X154119Y42511D01*
X154108Y42500D01*
X154086Y42472D01*
X154053Y42429D01*
X154021Y42363D01*
X153982Y42287D01*
X153950Y42188D01*
X153928Y42079D01*
X153917Y41954D01*
X153442Y42003D01*
Y42008D01*
X153447Y42024D01*
Y42052D01*
X153453Y42090D01*
X153464Y42134D01*
X153475Y42183D01*
X153491Y42243D01*
X153507Y42303D01*
X153551Y42434D01*
X153616Y42565D01*
X153655Y42631D01*
X153704Y42696D01*
X153753Y42756D01*
X153808Y42811D01*
X153813Y42816D01*
X153824Y42822D01*
X153840Y42838D01*
X153868Y42854D01*
X153901Y42876D01*
X153939Y42898D01*
X153982Y42925D01*
X154037Y42953D01*
X154097Y42980D01*
X154163Y43007D01*
X154234Y43029D01*
X154310Y43051D01*
X154392Y43067D01*
X154479Y43084D01*
X154572Y43089D01*
X154670Y43095D01*
X154725D01*
X154763Y43089D01*
D02*
G37*
G36*
X151351Y43073D02*
X151460Y43067D01*
X151569Y43056D01*
X151678Y43040D01*
X151771Y43024D01*
X151777D01*
X151787Y43018D01*
X151804D01*
X151826Y43007D01*
X151886Y42991D01*
X151962Y42964D01*
X152050Y42925D01*
X152142Y42876D01*
X152235Y42822D01*
X152322Y42751D01*
X152328Y42745D01*
X152333Y42740D01*
X152350Y42723D01*
X152372Y42707D01*
X152426Y42652D01*
X152492Y42576D01*
X152563Y42483D01*
X152639Y42374D01*
X152710Y42248D01*
X152770Y42106D01*
Y42101D01*
X152776Y42090D01*
X152787Y42068D01*
X152792Y42035D01*
X152808Y41997D01*
X152819Y41954D01*
X152830Y41904D01*
X152847Y41844D01*
X152863Y41784D01*
X152874Y41713D01*
X152901Y41560D01*
X152918Y41391D01*
X152923Y41205D01*
Y41200D01*
Y41189D01*
Y41162D01*
Y41135D01*
X152918Y41096D01*
Y41053D01*
X152912Y40949D01*
X152896Y40829D01*
X152879Y40703D01*
X152852Y40572D01*
X152819Y40441D01*
Y40436D01*
X152814Y40425D01*
X152808Y40408D01*
X152803Y40387D01*
X152781Y40326D01*
X152748Y40250D01*
X152716Y40163D01*
X152672Y40075D01*
X152617Y39983D01*
X152563Y39895D01*
X152557Y39884D01*
X152535Y39857D01*
X152503Y39819D01*
X152459Y39770D01*
X152410Y39715D01*
X152350Y39660D01*
X152290Y39600D01*
X152219Y39551D01*
X152208Y39546D01*
X152186Y39529D01*
X152148Y39507D01*
X152093Y39480D01*
X152028Y39447D01*
X151951Y39420D01*
X151864Y39387D01*
X151766Y39360D01*
X151755D01*
X151738Y39355D01*
X151722Y39349D01*
X151667Y39344D01*
X151591Y39333D01*
X151504Y39322D01*
X151400Y39311D01*
X151285Y39305D01*
X151160Y39300D01*
X149800D01*
Y43078D01*
X151252D01*
X151351Y43073D01*
D02*
G37*
G36*
X205873Y109353D02*
X205922Y109348D01*
X205982Y109343D01*
X206042Y109337D01*
X206113Y109321D01*
X206260Y109288D01*
X206424Y109239D01*
X206506Y109206D01*
X206583Y109168D01*
X206659Y109119D01*
X206735Y109070D01*
X206741Y109064D01*
X206752Y109059D01*
X206774Y109042D01*
X206801Y109015D01*
X206828Y108988D01*
X206867Y108949D01*
X206905Y108906D01*
X206948Y108862D01*
X206992Y108808D01*
X207036Y108742D01*
X207085Y108676D01*
X207129Y108606D01*
X207167Y108524D01*
X207210Y108442D01*
X207243Y108354D01*
X207276Y108256D01*
X206785Y108141D01*
Y108147D01*
X206779Y108158D01*
X206768Y108180D01*
X206757Y108207D01*
X206746Y108240D01*
X206730Y108283D01*
X206686Y108371D01*
X206632Y108469D01*
X206566Y108567D01*
X206484Y108660D01*
X206397Y108742D01*
X206386Y108753D01*
X206353Y108775D01*
X206299Y108802D01*
X206228Y108840D01*
X206135Y108873D01*
X206031Y108906D01*
X205906Y108928D01*
X205769Y108933D01*
X205725D01*
X205698Y108928D01*
X205660D01*
X205616Y108922D01*
X205512Y108906D01*
X205398Y108884D01*
X205278Y108846D01*
X205152Y108791D01*
X205037Y108720D01*
X205032D01*
X205027Y108709D01*
X204988Y108682D01*
X204939Y108638D01*
X204879Y108573D01*
X204808Y108491D01*
X204743Y108398D01*
X204682Y108283D01*
X204628Y108158D01*
Y108152D01*
X204622Y108141D01*
X204617Y108125D01*
X204611Y108098D01*
X204601Y108065D01*
X204590Y108027D01*
X204573Y107934D01*
X204552Y107825D01*
X204530Y107705D01*
X204519Y107573D01*
X204513Y107432D01*
Y107426D01*
Y107410D01*
Y107382D01*
Y107350D01*
X204519Y107311D01*
Y107262D01*
X204524Y107208D01*
X204530Y107148D01*
X204546Y107017D01*
X204573Y106875D01*
X204606Y106733D01*
X204650Y106591D01*
Y106585D01*
X204655Y106574D01*
X204666Y106558D01*
X204677Y106531D01*
X204710Y106465D01*
X204759Y106389D01*
X204819Y106301D01*
X204895Y106209D01*
X204983Y106127D01*
X205086Y106050D01*
X205092D01*
X205103Y106045D01*
X205119Y106034D01*
X205141Y106023D01*
X205168Y106012D01*
X205201Y105996D01*
X205278Y105963D01*
X205376Y105930D01*
X205485Y105903D01*
X205605Y105881D01*
X205731Y105876D01*
X205769D01*
X205802Y105881D01*
X205840D01*
X205878Y105886D01*
X205977Y105908D01*
X206091Y105936D01*
X206206Y105979D01*
X206326Y106039D01*
X206386Y106072D01*
X206441Y106116D01*
X206446Y106121D01*
X206452Y106127D01*
X206468Y106143D01*
X206490Y106159D01*
X206512Y106187D01*
X206539Y106219D01*
X206572Y106252D01*
X206599Y106296D01*
X206632Y106345D01*
X206670Y106400D01*
X206703Y106454D01*
X206735Y106520D01*
X206763Y106591D01*
X206790Y106667D01*
X206817Y106749D01*
X206839Y106836D01*
X207342Y106711D01*
Y106705D01*
X207336Y106684D01*
X207325Y106651D01*
X207309Y106607D01*
X207292Y106558D01*
X207271Y106498D01*
X207243Y106432D01*
X207210Y106361D01*
X207134Y106209D01*
X207036Y106056D01*
X206976Y105979D01*
X206916Y105903D01*
X206850Y105837D01*
X206774Y105772D01*
X206768Y105766D01*
X206757Y105755D01*
X206730Y105744D01*
X206703Y105723D01*
X206659Y105695D01*
X206615Y105668D01*
X206555Y105641D01*
X206495Y105613D01*
X206424Y105581D01*
X206348Y105553D01*
X206266Y105526D01*
X206178Y105499D01*
X206086Y105477D01*
X205987Y105466D01*
X205884Y105455D01*
X205774Y105450D01*
X205714D01*
X205671Y105455D01*
X205622D01*
X205562Y105461D01*
X205496Y105471D01*
X205420Y105482D01*
X205261Y105510D01*
X205098Y105553D01*
X204934Y105613D01*
X204857Y105652D01*
X204781Y105695D01*
X204775Y105701D01*
X204764Y105706D01*
X204743Y105723D01*
X204721Y105744D01*
X204688Y105766D01*
X204650Y105799D01*
X204606Y105837D01*
X204562Y105881D01*
X204519Y105930D01*
X204470Y105979D01*
X204371Y106105D01*
X204278Y106252D01*
X204197Y106416D01*
Y106421D01*
X204186Y106438D01*
X204180Y106465D01*
X204164Y106498D01*
X204153Y106542D01*
X204136Y106596D01*
X204115Y106656D01*
X204098Y106722D01*
X204082Y106793D01*
X204060Y106875D01*
X204033Y107044D01*
X204011Y107235D01*
X204000Y107432D01*
Y107437D01*
Y107459D01*
Y107492D01*
X204006Y107530D01*
Y107584D01*
X204011Y107639D01*
X204016Y107710D01*
X204027Y107781D01*
X204055Y107939D01*
X204093Y108114D01*
X204147Y108289D01*
X204224Y108458D01*
X204229Y108464D01*
X204235Y108480D01*
X204246Y108502D01*
X204268Y108529D01*
X204289Y108567D01*
X204317Y108611D01*
X204388Y108709D01*
X204481Y108818D01*
X204590Y108928D01*
X204715Y109037D01*
X204863Y109130D01*
X204868Y109135D01*
X204885Y109141D01*
X204906Y109151D01*
X204934Y109168D01*
X204977Y109184D01*
X205021Y109201D01*
X205076Y109222D01*
X205136Y109244D01*
X205201Y109266D01*
X205272Y109288D01*
X205425Y109321D01*
X205600Y109348D01*
X205780Y109359D01*
X205835D01*
X205873Y109353D01*
D02*
G37*
G36*
X209111Y109304D02*
X209154Y109299D01*
X209209Y109293D01*
X209269Y109283D01*
X209329Y109272D01*
X209471Y109233D01*
X209613Y109179D01*
X209684Y109146D01*
X209755Y109108D01*
X209820Y109059D01*
X209880Y109004D01*
X209886Y108999D01*
X209897Y108993D01*
X209908Y108971D01*
X209930Y108949D01*
X209957Y108922D01*
X209984Y108884D01*
X210012Y108846D01*
X210044Y108797D01*
X210099Y108693D01*
X210153Y108562D01*
X210175Y108496D01*
X210186Y108420D01*
X210197Y108343D01*
X210203Y108262D01*
Y108251D01*
Y108223D01*
X210197Y108180D01*
X210192Y108119D01*
X210181Y108054D01*
X210159Y107978D01*
X210137Y107896D01*
X210104Y107814D01*
X210099Y107803D01*
X210088Y107775D01*
X210066Y107732D01*
X210033Y107672D01*
X209990Y107606D01*
X209935Y107524D01*
X209870Y107442D01*
X209793Y107350D01*
X209782Y107339D01*
X209755Y107306D01*
X209728Y107279D01*
X209700Y107251D01*
X209667Y107219D01*
X209624Y107175D01*
X209580Y107131D01*
X209525Y107082D01*
X209471Y107027D01*
X209405Y106967D01*
X209334Y106907D01*
X209258Y106836D01*
X209171Y106765D01*
X209083Y106689D01*
X209078Y106684D01*
X209067Y106673D01*
X209045Y106656D01*
X209018Y106634D01*
X208985Y106602D01*
X208947Y106569D01*
X208859Y106498D01*
X208767Y106416D01*
X208679Y106334D01*
X208603Y106263D01*
X208570Y106236D01*
X208543Y106209D01*
X208537Y106203D01*
X208521Y106187D01*
X208499Y106165D01*
X208472Y106132D01*
X208444Y106094D01*
X208412Y106056D01*
X208346Y105963D01*
X210208D01*
Y105515D01*
X207702D01*
Y105521D01*
Y105542D01*
Y105575D01*
X207707Y105619D01*
X207713Y105668D01*
X207724Y105723D01*
X207735Y105777D01*
X207756Y105837D01*
Y105843D01*
X207762Y105848D01*
X207773Y105881D01*
X207795Y105930D01*
X207827Y105996D01*
X207871Y106072D01*
X207926Y106159D01*
X207986Y106247D01*
X208062Y106340D01*
Y106345D01*
X208073Y106351D01*
X208101Y106383D01*
X208150Y106432D01*
X208221Y106503D01*
X208302Y106585D01*
X208406Y106684D01*
X208532Y106793D01*
X208668Y106907D01*
X208674Y106913D01*
X208696Y106929D01*
X208728Y106957D01*
X208767Y106989D01*
X208816Y107033D01*
X208876Y107082D01*
X208936Y107137D01*
X209007Y107197D01*
X209143Y107328D01*
X209280Y107459D01*
X209345Y107524D01*
X209405Y107590D01*
X209460Y107650D01*
X209504Y107710D01*
Y107715D01*
X209515Y107721D01*
X209525Y107737D01*
X209536Y107759D01*
X209575Y107819D01*
X209618Y107890D01*
X209657Y107978D01*
X209695Y108070D01*
X209717Y108174D01*
X209728Y108272D01*
Y108278D01*
Y108283D01*
X209722Y108316D01*
X209717Y108371D01*
X209700Y108431D01*
X209678Y108507D01*
X209640Y108584D01*
X209591Y108660D01*
X209525Y108737D01*
X209515Y108747D01*
X209487Y108769D01*
X209449Y108797D01*
X209389Y108835D01*
X209313Y108868D01*
X209225Y108900D01*
X209121Y108922D01*
X209007Y108928D01*
X208974D01*
X208952Y108922D01*
X208887Y108917D01*
X208810Y108900D01*
X208728Y108879D01*
X208635Y108840D01*
X208548Y108791D01*
X208466Y108726D01*
X208455Y108715D01*
X208434Y108687D01*
X208401Y108644D01*
X208368Y108578D01*
X208330Y108502D01*
X208297Y108403D01*
X208275Y108294D01*
X208264Y108169D01*
X207789Y108218D01*
Y108223D01*
X207795Y108240D01*
Y108267D01*
X207800Y108305D01*
X207811Y108349D01*
X207822Y108398D01*
X207838Y108458D01*
X207855Y108518D01*
X207898Y108649D01*
X207964Y108780D01*
X208002Y108846D01*
X208051Y108911D01*
X208101Y108971D01*
X208155Y109026D01*
X208160Y109031D01*
X208171Y109037D01*
X208188Y109053D01*
X208215Y109070D01*
X208248Y109091D01*
X208286Y109113D01*
X208330Y109141D01*
X208384Y109168D01*
X208444Y109195D01*
X208510Y109222D01*
X208581Y109244D01*
X208657Y109266D01*
X208739Y109283D01*
X208827Y109299D01*
X208920Y109304D01*
X209018Y109310D01*
X209072D01*
X209111Y109304D01*
D02*
G37*
G36*
X102173Y46513D02*
X102222Y46508D01*
X102282Y46502D01*
X102342Y46497D01*
X102413Y46480D01*
X102560Y46448D01*
X102724Y46398D01*
X102806Y46366D01*
X102883Y46327D01*
X102959Y46278D01*
X103035Y46229D01*
X103041Y46224D01*
X103052Y46218D01*
X103074Y46202D01*
X103101Y46175D01*
X103128Y46147D01*
X103166Y46109D01*
X103205Y46066D01*
X103248Y46022D01*
X103292Y45967D01*
X103336Y45902D01*
X103385Y45836D01*
X103429Y45765D01*
X103467Y45683D01*
X103510Y45601D01*
X103543Y45514D01*
X103576Y45416D01*
X103085Y45301D01*
Y45307D01*
X103079Y45317D01*
X103068Y45339D01*
X103057Y45367D01*
X103046Y45399D01*
X103030Y45443D01*
X102986Y45530D01*
X102932Y45629D01*
X102866Y45727D01*
X102784Y45820D01*
X102697Y45902D01*
X102686Y45913D01*
X102653Y45934D01*
X102599Y45962D01*
X102528Y46000D01*
X102435Y46033D01*
X102331Y46066D01*
X102206Y46087D01*
X102069Y46093D01*
X102025D01*
X101998Y46087D01*
X101960D01*
X101916Y46082D01*
X101812Y46066D01*
X101698Y46044D01*
X101578Y46005D01*
X101452Y45951D01*
X101337Y45880D01*
X101332D01*
X101327Y45869D01*
X101288Y45842D01*
X101239Y45798D01*
X101179Y45732D01*
X101108Y45651D01*
X101043Y45558D01*
X100982Y45443D01*
X100928Y45317D01*
Y45312D01*
X100922Y45301D01*
X100917Y45285D01*
X100911Y45257D01*
X100901Y45225D01*
X100890Y45186D01*
X100873Y45094D01*
X100852Y44984D01*
X100830Y44864D01*
X100819Y44733D01*
X100813Y44591D01*
Y44586D01*
Y44569D01*
Y44542D01*
Y44509D01*
X100819Y44471D01*
Y44422D01*
X100824Y44367D01*
X100830Y44307D01*
X100846Y44176D01*
X100873Y44034D01*
X100906Y43892D01*
X100950Y43750D01*
Y43745D01*
X100955Y43734D01*
X100966Y43718D01*
X100977Y43690D01*
X101010Y43625D01*
X101059Y43548D01*
X101119Y43461D01*
X101195Y43368D01*
X101283Y43286D01*
X101386Y43210D01*
X101392D01*
X101403Y43204D01*
X101419Y43194D01*
X101441Y43183D01*
X101468Y43172D01*
X101501Y43155D01*
X101578Y43123D01*
X101676Y43090D01*
X101785Y43062D01*
X101905Y43041D01*
X102031Y43035D01*
X102069D01*
X102102Y43041D01*
X102140D01*
X102178Y43046D01*
X102277Y43068D01*
X102391Y43095D01*
X102506Y43139D01*
X102626Y43199D01*
X102686Y43232D01*
X102741Y43275D01*
X102746Y43281D01*
X102752Y43286D01*
X102768Y43303D01*
X102790Y43319D01*
X102812Y43346D01*
X102839Y43379D01*
X102872Y43412D01*
X102899Y43456D01*
X102932Y43505D01*
X102970Y43559D01*
X103003Y43614D01*
X103035Y43679D01*
X103063Y43750D01*
X103090Y43827D01*
X103117Y43909D01*
X103139Y43996D01*
X103641Y43870D01*
Y43865D01*
X103636Y43843D01*
X103625Y43810D01*
X103609Y43767D01*
X103592Y43718D01*
X103570Y43658D01*
X103543Y43592D01*
X103510Y43521D01*
X103434Y43368D01*
X103336Y43215D01*
X103276Y43139D01*
X103216Y43062D01*
X103150Y42997D01*
X103074Y42931D01*
X103068Y42926D01*
X103057Y42915D01*
X103030Y42904D01*
X103003Y42882D01*
X102959Y42855D01*
X102915Y42828D01*
X102855Y42800D01*
X102795Y42773D01*
X102724Y42740D01*
X102648Y42713D01*
X102566Y42686D01*
X102479Y42658D01*
X102386Y42637D01*
X102287Y42626D01*
X102184Y42615D01*
X102075Y42609D01*
X102014D01*
X101971Y42615D01*
X101922D01*
X101862Y42620D01*
X101796Y42631D01*
X101720Y42642D01*
X101561Y42669D01*
X101398Y42713D01*
X101234Y42773D01*
X101157Y42811D01*
X101081Y42855D01*
X101075Y42860D01*
X101064Y42866D01*
X101043Y42882D01*
X101021Y42904D01*
X100988Y42926D01*
X100950Y42959D01*
X100906Y42997D01*
X100862Y43041D01*
X100819Y43090D01*
X100770Y43139D01*
X100671Y43264D01*
X100578Y43412D01*
X100497Y43576D01*
Y43581D01*
X100486Y43597D01*
X100480Y43625D01*
X100464Y43658D01*
X100453Y43701D01*
X100436Y43756D01*
X100415Y43816D01*
X100398Y43881D01*
X100382Y43952D01*
X100360Y44034D01*
X100333Y44204D01*
X100311Y44395D01*
X100300Y44591D01*
Y44597D01*
Y44619D01*
Y44651D01*
X100305Y44690D01*
Y44744D01*
X100311Y44799D01*
X100316Y44870D01*
X100327Y44941D01*
X100355Y45099D01*
X100393Y45274D01*
X100447Y45448D01*
X100524Y45618D01*
X100529Y45623D01*
X100535Y45640D01*
X100546Y45661D01*
X100567Y45689D01*
X100589Y45727D01*
X100617Y45771D01*
X100688Y45869D01*
X100780Y45978D01*
X100890Y46087D01*
X101015Y46196D01*
X101163Y46289D01*
X101168Y46295D01*
X101184Y46300D01*
X101206Y46311D01*
X101234Y46327D01*
X101277Y46344D01*
X101321Y46360D01*
X101376Y46382D01*
X101436Y46404D01*
X101501Y46426D01*
X101572Y46448D01*
X101725Y46480D01*
X101900Y46508D01*
X102080Y46519D01*
X102135D01*
X102173Y46513D01*
D02*
G37*
G36*
X105815Y42675D02*
X105350D01*
Y45629D01*
X105345Y45623D01*
X105318Y45601D01*
X105285Y45569D01*
X105230Y45530D01*
X105170Y45481D01*
X105094Y45427D01*
X105007Y45367D01*
X104908Y45307D01*
X104903D01*
X104897Y45301D01*
X104865Y45279D01*
X104810Y45252D01*
X104744Y45219D01*
X104668Y45181D01*
X104586Y45143D01*
X104504Y45105D01*
X104422Y45072D01*
Y45520D01*
X104428D01*
X104439Y45530D01*
X104461Y45536D01*
X104488Y45552D01*
X104521Y45569D01*
X104559Y45590D01*
X104652Y45645D01*
X104761Y45705D01*
X104870Y45781D01*
X104985Y45869D01*
X105099Y45962D01*
X105105Y45967D01*
X105110Y45973D01*
X105127Y45989D01*
X105148Y46005D01*
X105198Y46060D01*
X105263Y46126D01*
X105329Y46202D01*
X105400Y46289D01*
X105460Y46377D01*
X105514Y46470D01*
X105815D01*
Y42675D01*
D02*
G37*
%LPC*%
G36*
X34997Y117435D02*
X34969D01*
X34948Y117430D01*
X34893Y117419D01*
X34822Y117402D01*
X34740Y117370D01*
X34653Y117321D01*
X34604Y117288D01*
X34560Y117250D01*
X34516Y117206D01*
X34473Y117157D01*
Y117151D01*
X34462Y117146D01*
X34451Y117129D01*
X34440Y117108D01*
X34423Y117075D01*
X34402Y117042D01*
X34380Y116998D01*
X34363Y116955D01*
X34341Y116900D01*
X34320Y116840D01*
X34303Y116774D01*
X34281Y116703D01*
X34271Y116622D01*
X34260Y116540D01*
X34249Y116452D01*
Y116354D01*
Y116349D01*
Y116332D01*
Y116305D01*
X34254Y116267D01*
Y116223D01*
X34260Y116174D01*
X34276Y116059D01*
X34303Y115928D01*
X34336Y115803D01*
X34391Y115677D01*
X34423Y115622D01*
X34462Y115573D01*
X34473Y115562D01*
X34500Y115535D01*
X34543Y115491D01*
X34604Y115448D01*
X34680Y115404D01*
X34767Y115360D01*
X34866Y115333D01*
X34920Y115328D01*
X34975Y115322D01*
X35008D01*
X35030Y115328D01*
X35084Y115339D01*
X35160Y115355D01*
X35242Y115388D01*
X35330Y115431D01*
X35417Y115497D01*
X35461Y115535D01*
X35504Y115579D01*
Y115584D01*
X35515Y115590D01*
X35526Y115606D01*
X35537Y115628D01*
X35559Y115655D01*
X35576Y115693D01*
X35597Y115732D01*
X35619Y115781D01*
X35636Y115830D01*
X35657Y115895D01*
X35679Y115961D01*
X35696Y116032D01*
X35706Y116114D01*
X35717Y116201D01*
X35728Y116294D01*
Y116392D01*
Y116398D01*
Y116414D01*
Y116441D01*
X35723Y116480D01*
Y116523D01*
X35717Y116572D01*
X35701Y116687D01*
X35674Y116813D01*
X35636Y116938D01*
X35581Y117064D01*
X35548Y117124D01*
X35510Y117173D01*
Y117178D01*
X35499Y117184D01*
X35472Y117217D01*
X35428Y117255D01*
X35368Y117304D01*
X35291Y117353D01*
X35204Y117397D01*
X35106Y117424D01*
X35051Y117430D01*
X34997Y117435D01*
D02*
G37*
G36*
X18262D02*
X18235D01*
X18213Y117430D01*
X18158Y117419D01*
X18087Y117402D01*
X18005Y117370D01*
X17918Y117321D01*
X17869Y117288D01*
X17825Y117250D01*
X17781Y117206D01*
X17738Y117157D01*
Y117151D01*
X17727Y117146D01*
X17716Y117129D01*
X17705Y117108D01*
X17688Y117075D01*
X17667Y117042D01*
X17645Y116998D01*
X17628Y116955D01*
X17607Y116900D01*
X17585Y116840D01*
X17568Y116774D01*
X17547Y116703D01*
X17536Y116622D01*
X17525Y116540D01*
X17514Y116452D01*
Y116354D01*
Y116349D01*
Y116332D01*
Y116305D01*
X17519Y116267D01*
Y116223D01*
X17525Y116174D01*
X17541Y116059D01*
X17568Y115928D01*
X17601Y115803D01*
X17656Y115677D01*
X17688Y115622D01*
X17727Y115573D01*
X17738Y115562D01*
X17765Y115535D01*
X17809Y115491D01*
X17869Y115448D01*
X17945Y115404D01*
X18033Y115360D01*
X18131Y115333D01*
X18185Y115328D01*
X18240Y115322D01*
X18273D01*
X18295Y115328D01*
X18349Y115339D01*
X18426Y115355D01*
X18507Y115388D01*
X18595Y115431D01*
X18682Y115497D01*
X18726Y115535D01*
X18770Y115579D01*
Y115584D01*
X18780Y115590D01*
X18791Y115606D01*
X18802Y115628D01*
X18824Y115655D01*
X18841Y115693D01*
X18862Y115732D01*
X18884Y115781D01*
X18901Y115830D01*
X18923Y115895D01*
X18944Y115961D01*
X18961Y116032D01*
X18972Y116114D01*
X18982Y116201D01*
X18993Y116294D01*
Y116392D01*
Y116398D01*
Y116414D01*
Y116441D01*
X18988Y116480D01*
Y116523D01*
X18982Y116572D01*
X18966Y116687D01*
X18939Y116813D01*
X18901Y116938D01*
X18846Y117064D01*
X18813Y117124D01*
X18775Y117173D01*
Y117178D01*
X18764Y117184D01*
X18737Y117217D01*
X18693Y117255D01*
X18633Y117304D01*
X18557Y117353D01*
X18469Y117397D01*
X18371Y117424D01*
X18316Y117430D01*
X18262Y117435D01*
D02*
G37*
G36*
X21156Y117419D02*
X21123D01*
X21101Y117413D01*
X21041Y117408D01*
X20970Y117392D01*
X20883Y117364D01*
X20790Y117326D01*
X20702Y117271D01*
X20615Y117200D01*
X20604Y117190D01*
X20582Y117162D01*
X20544Y117113D01*
X20506Y117048D01*
X20462Y116971D01*
X20424Y116873D01*
X20391Y116758D01*
X20375Y116632D01*
X21909D01*
Y116638D01*
Y116649D01*
X21904Y116665D01*
Y116687D01*
X21893Y116753D01*
X21876Y116824D01*
X21849Y116911D01*
X21822Y116993D01*
X21778Y117075D01*
X21729Y117146D01*
Y117151D01*
X21718Y117157D01*
X21691Y117190D01*
X21642Y117233D01*
X21576Y117282D01*
X21494Y117331D01*
X21396Y117375D01*
X21281Y117408D01*
X21221Y117413D01*
X21156Y117419D01*
D02*
G37*
G36*
X202600Y65066D02*
X201409Y63373D01*
X202600D01*
Y65066D01*
D02*
G37*
G36*
X199193Y65399D02*
X198002D01*
Y64149D01*
X199127D01*
X199193Y64154D01*
X199269Y64160D01*
X199356Y64165D01*
X199444Y64176D01*
X199531Y64192D01*
X199608Y64214D01*
X199618Y64219D01*
X199640Y64231D01*
X199673Y64247D01*
X199717Y64269D01*
X199766Y64301D01*
X199815Y64340D01*
X199864Y64389D01*
X199902Y64443D01*
X199908Y64449D01*
X199919Y64471D01*
X199935Y64504D01*
X199957Y64547D01*
X199973Y64596D01*
X199990Y64651D01*
X200001Y64716D01*
X200006Y64782D01*
Y64787D01*
Y64793D01*
X200001Y64826D01*
X199995Y64875D01*
X199984Y64940D01*
X199957Y65006D01*
X199924Y65082D01*
X199875Y65153D01*
X199810Y65224D01*
X199799Y65230D01*
X199771Y65251D01*
X199728Y65279D01*
X199657Y65311D01*
X199575Y65344D01*
X199466Y65372D01*
X199340Y65393D01*
X199193Y65399D01*
D02*
G37*
G36*
X101093Y68888D02*
X99902D01*
Y67638D01*
X101027D01*
X101093Y67643D01*
X101169Y67649D01*
X101256Y67654D01*
X101344Y67665D01*
X101431Y67681D01*
X101508Y67703D01*
X101518Y67708D01*
X101540Y67720D01*
X101573Y67736D01*
X101617Y67758D01*
X101666Y67790D01*
X101715Y67829D01*
X101764Y67878D01*
X101802Y67932D01*
X101808Y67938D01*
X101819Y67960D01*
X101835Y67993D01*
X101857Y68036D01*
X101873Y68085D01*
X101890Y68140D01*
X101901Y68205D01*
X101906Y68271D01*
Y68276D01*
Y68282D01*
X101901Y68315D01*
X101895Y68364D01*
X101884Y68429D01*
X101857Y68495D01*
X101824Y68571D01*
X101775Y68642D01*
X101710Y68713D01*
X101699Y68719D01*
X101671Y68740D01*
X101628Y68768D01*
X101557Y68800D01*
X101475Y68833D01*
X101366Y68861D01*
X101240Y68882D01*
X101093Y68888D01*
D02*
G37*
G36*
X177034Y37858D02*
X175843D01*
Y36608D01*
X176968D01*
X177034Y36613D01*
X177110Y36619D01*
X177197Y36624D01*
X177285Y36635D01*
X177372Y36651D01*
X177449Y36673D01*
X177460Y36678D01*
X177481Y36689D01*
X177514Y36706D01*
X177558Y36728D01*
X177607Y36760D01*
X177656Y36799D01*
X177705Y36848D01*
X177743Y36902D01*
X177749Y36908D01*
X177760Y36930D01*
X177776Y36963D01*
X177798Y37006D01*
X177814Y37055D01*
X177831Y37110D01*
X177842Y37175D01*
X177847Y37241D01*
Y37246D01*
Y37252D01*
X177842Y37285D01*
X177836Y37334D01*
X177825Y37399D01*
X177798Y37465D01*
X177765Y37541D01*
X177716Y37612D01*
X177651Y37683D01*
X177640Y37689D01*
X177612Y37710D01*
X177569Y37738D01*
X177498Y37771D01*
X177416Y37803D01*
X177307Y37831D01*
X177181Y37852D01*
X177034Y37858D01*
D02*
G37*
G36*
X22170Y66676D02*
X22164D01*
X22159Y66671D01*
X22142Y66665D01*
X22121Y66659D01*
X22093Y66649D01*
X22061Y66638D01*
X22022Y66627D01*
X21979Y66616D01*
X21930Y66600D01*
X21869Y66589D01*
X21810Y66572D01*
X21738Y66556D01*
X21662Y66539D01*
X21586Y66523D01*
X21498Y66512D01*
X21405Y66496D01*
X21395D01*
X21362Y66490D01*
X21307Y66479D01*
X21247Y66468D01*
X21182Y66457D01*
X21116Y66441D01*
X21056Y66425D01*
X21001Y66403D01*
X20996D01*
X20980Y66392D01*
X20958Y66381D01*
X20936Y66365D01*
X20870Y66321D01*
X20816Y66255D01*
Y66250D01*
X20805Y66239D01*
X20799Y66217D01*
X20788Y66190D01*
X20777Y66157D01*
X20767Y66124D01*
X20761Y66081D01*
X20756Y66037D01*
Y66032D01*
Y66004D01*
X20761Y65972D01*
X20772Y65928D01*
X20788Y65879D01*
X20816Y65830D01*
X20849Y65775D01*
X20892Y65726D01*
X20898Y65720D01*
X20920Y65710D01*
X20952Y65688D01*
X20996Y65666D01*
X21056Y65644D01*
X21127Y65622D01*
X21209Y65611D01*
X21307Y65606D01*
X21351D01*
X21405Y65611D01*
X21465Y65622D01*
X21542Y65633D01*
X21618Y65655D01*
X21700Y65682D01*
X21782Y65720D01*
X21793Y65726D01*
X21815Y65742D01*
X21853Y65770D01*
X21897Y65808D01*
X21946Y65851D01*
X22001Y65906D01*
X22044Y65972D01*
X22088Y66043D01*
X22093Y66048D01*
X22099Y66070D01*
X22110Y66108D01*
X22126Y66157D01*
X22142Y66223D01*
X22153Y66299D01*
X22159Y66392D01*
X22164Y66501D01*
X22170Y66676D01*
D02*
G37*
G36*
X2983Y68631D02*
X1902D01*
Y67282D01*
X2918D01*
X2956Y67287D01*
X2994D01*
X3038Y67293D01*
X3142Y67304D01*
X3256Y67326D01*
X3371Y67358D01*
X3475Y67402D01*
X3524Y67429D01*
X3562Y67462D01*
X3573Y67473D01*
X3595Y67495D01*
X3628Y67539D01*
X3666Y67593D01*
X3704Y67664D01*
X3737Y67751D01*
X3759Y67850D01*
X3770Y67965D01*
Y67970D01*
Y67975D01*
Y68003D01*
X3764Y68052D01*
X3753Y68106D01*
X3742Y68167D01*
X3720Y68238D01*
X3688Y68303D01*
X3650Y68369D01*
X3644Y68374D01*
X3628Y68396D01*
X3600Y68423D01*
X3568Y68461D01*
X3519Y68500D01*
X3464Y68532D01*
X3404Y68565D01*
X3333Y68592D01*
X3327D01*
X3306Y68598D01*
X3273Y68603D01*
X3229Y68614D01*
X3164Y68620D01*
X3082Y68625D01*
X2983Y68631D01*
D02*
G37*
G36*
X12735Y67719D02*
X12702D01*
X12680Y67713D01*
X12620Y67708D01*
X12549Y67691D01*
X12462Y67664D01*
X12369Y67626D01*
X12282Y67571D01*
X12194Y67500D01*
X12184Y67489D01*
X12162Y67462D01*
X12123Y67413D01*
X12085Y67348D01*
X12042Y67271D01*
X12003Y67173D01*
X11971Y67058D01*
X11954Y66932D01*
X13488D01*
Y66938D01*
Y66949D01*
X13483Y66965D01*
Y66987D01*
X13472Y67053D01*
X13456Y67124D01*
X13428Y67211D01*
X13401Y67293D01*
X13357Y67375D01*
X13308Y67446D01*
Y67451D01*
X13297Y67457D01*
X13270Y67489D01*
X13221Y67533D01*
X13155Y67582D01*
X13073Y67631D01*
X12975Y67675D01*
X12860Y67708D01*
X12800Y67713D01*
X12735Y67719D01*
D02*
G37*
G36*
X5970D02*
X5937D01*
X5910Y67713D01*
X5850Y67708D01*
X5768Y67686D01*
X5675Y67653D01*
X5577Y67610D01*
X5484Y67544D01*
X5435Y67500D01*
X5391Y67457D01*
Y67451D01*
X5380Y67446D01*
X5369Y67429D01*
X5353Y67408D01*
X5337Y67380D01*
X5320Y67348D01*
X5298Y67304D01*
X5277Y67260D01*
X5255Y67206D01*
X5233Y67151D01*
X5217Y67085D01*
X5200Y67014D01*
X5184Y66938D01*
X5173Y66856D01*
X5167Y66763D01*
X5162Y66671D01*
Y66665D01*
Y66649D01*
Y66621D01*
X5167Y66583D01*
Y66539D01*
X5173Y66490D01*
X5189Y66376D01*
X5217Y66245D01*
X5260Y66114D01*
X5315Y65988D01*
X5353Y65933D01*
X5391Y65879D01*
X5397D01*
X5402Y65868D01*
X5435Y65841D01*
X5484Y65797D01*
X5550Y65753D01*
X5632Y65704D01*
X5730Y65660D01*
X5844Y65633D01*
X5904Y65628D01*
X5970Y65622D01*
X6003D01*
X6030Y65628D01*
X6090Y65639D01*
X6172Y65655D01*
X6259Y65688D01*
X6358Y65731D01*
X6451Y65797D01*
X6500Y65841D01*
X6543Y65884D01*
X6549Y65890D01*
X6554Y65895D01*
X6565Y65912D01*
X6582Y65933D01*
X6598Y65961D01*
X6620Y65993D01*
X6642Y66037D01*
X6663Y66081D01*
X6685Y66135D01*
X6702Y66195D01*
X6724Y66261D01*
X6740Y66332D01*
X6756Y66414D01*
X6767Y66496D01*
X6778Y66589D01*
Y66687D01*
Y66692D01*
Y66709D01*
Y66736D01*
X6773Y66769D01*
Y66812D01*
X6767Y66862D01*
X6751Y66976D01*
X6724Y67096D01*
X6680Y67227D01*
X6620Y67348D01*
X6587Y67408D01*
X6543Y67457D01*
Y67462D01*
X6532Y67468D01*
X6500Y67500D01*
X6451Y67539D01*
X6385Y67588D01*
X6303Y67637D01*
X6205Y67681D01*
X6096Y67708D01*
X6036Y67713D01*
X5970Y67719D01*
D02*
G37*
G36*
X240483Y74361D02*
X239402D01*
Y73012D01*
X240418D01*
X240456Y73017D01*
X240494D01*
X240538Y73023D01*
X240642Y73034D01*
X240756Y73056D01*
X240871Y73088D01*
X240975Y73132D01*
X241024Y73159D01*
X241062Y73192D01*
X241073Y73203D01*
X241095Y73225D01*
X241128Y73269D01*
X241166Y73323D01*
X241204Y73394D01*
X241237Y73482D01*
X241259Y73580D01*
X241270Y73694D01*
Y73700D01*
Y73705D01*
Y73733D01*
X241264Y73782D01*
X241253Y73836D01*
X241242Y73896D01*
X241220Y73967D01*
X241188Y74033D01*
X241149Y74098D01*
X241144Y74104D01*
X241128Y74126D01*
X241100Y74153D01*
X241068Y74191D01*
X241019Y74230D01*
X240964Y74262D01*
X240904Y74295D01*
X240833Y74322D01*
X240827D01*
X240806Y74328D01*
X240773Y74333D01*
X240729Y74344D01*
X240664Y74350D01*
X240582Y74355D01*
X240483Y74361D01*
D02*
G37*
G36*
X245583Y116331D02*
X244502D01*
Y114982D01*
X245518D01*
X245556Y114987D01*
X245594D01*
X245638Y114993D01*
X245742Y115004D01*
X245856Y115026D01*
X245971Y115058D01*
X246075Y115102D01*
X246124Y115129D01*
X246162Y115162D01*
X246173Y115173D01*
X246195Y115195D01*
X246228Y115239D01*
X246266Y115293D01*
X246304Y115364D01*
X246337Y115452D01*
X246359Y115550D01*
X246370Y115665D01*
Y115670D01*
Y115675D01*
Y115703D01*
X246364Y115752D01*
X246353Y115806D01*
X246342Y115866D01*
X246321Y115937D01*
X246288Y116003D01*
X246250Y116068D01*
X246244Y116074D01*
X246228Y116096D01*
X246200Y116123D01*
X246168Y116161D01*
X246118Y116200D01*
X246064Y116232D01*
X246004Y116265D01*
X245933Y116292D01*
X245927D01*
X245905Y116298D01*
X245873Y116303D01*
X245829Y116314D01*
X245764Y116320D01*
X245682Y116325D01*
X245583Y116331D01*
D02*
G37*
G36*
X228783Y106861D02*
X227702D01*
Y105512D01*
X228718D01*
X228756Y105517D01*
X228794D01*
X228838Y105523D01*
X228942Y105534D01*
X229056Y105556D01*
X229171Y105588D01*
X229275Y105632D01*
X229324Y105659D01*
X229362Y105692D01*
X229373Y105703D01*
X229395Y105725D01*
X229428Y105769D01*
X229466Y105823D01*
X229504Y105894D01*
X229537Y105982D01*
X229559Y106080D01*
X229570Y106194D01*
Y106200D01*
Y106205D01*
Y106233D01*
X229564Y106282D01*
X229553Y106336D01*
X229542Y106396D01*
X229521Y106467D01*
X229488Y106533D01*
X229450Y106598D01*
X229444Y106604D01*
X229428Y106626D01*
X229400Y106653D01*
X229368Y106691D01*
X229318Y106730D01*
X229264Y106762D01*
X229204Y106795D01*
X229133Y106822D01*
X229127D01*
X229105Y106828D01*
X229073Y106833D01*
X229029Y106844D01*
X228964Y106850D01*
X228882Y106855D01*
X228783Y106861D01*
D02*
G37*
G36*
X223783Y69361D02*
X222702D01*
Y68012D01*
X223718D01*
X223756Y68017D01*
X223794D01*
X223838Y68023D01*
X223942Y68034D01*
X224056Y68056D01*
X224171Y68088D01*
X224275Y68132D01*
X224324Y68159D01*
X224362Y68192D01*
X224373Y68203D01*
X224395Y68225D01*
X224428Y68269D01*
X224466Y68323D01*
X224504Y68394D01*
X224537Y68481D01*
X224559Y68580D01*
X224570Y68695D01*
Y68700D01*
Y68705D01*
Y68733D01*
X224564Y68782D01*
X224553Y68836D01*
X224542Y68897D01*
X224520Y68967D01*
X224488Y69033D01*
X224449Y69099D01*
X224444Y69104D01*
X224428Y69126D01*
X224400Y69153D01*
X224368Y69191D01*
X224319Y69230D01*
X224264Y69262D01*
X224204Y69295D01*
X224133Y69322D01*
X224127D01*
X224106Y69328D01*
X224073Y69333D01*
X224029Y69344D01*
X223964Y69350D01*
X223882Y69355D01*
X223783Y69361D01*
D02*
G37*
G36*
X103516Y103055D02*
X102325Y101362D01*
X103516D01*
Y103055D01*
D02*
G37*
G36*
X100283Y103361D02*
X99202D01*
Y102012D01*
X100218D01*
X100256Y102017D01*
X100294D01*
X100338Y102023D01*
X100442Y102034D01*
X100556Y102056D01*
X100671Y102088D01*
X100775Y102132D01*
X100824Y102159D01*
X100862Y102192D01*
X100873Y102203D01*
X100895Y102225D01*
X100928Y102269D01*
X100966Y102323D01*
X101004Y102394D01*
X101037Y102481D01*
X101059Y102580D01*
X101070Y102694D01*
Y102700D01*
Y102705D01*
Y102733D01*
X101064Y102782D01*
X101053Y102836D01*
X101042Y102896D01*
X101021Y102968D01*
X100988Y103033D01*
X100950Y103098D01*
X100944Y103104D01*
X100928Y103126D01*
X100900Y103153D01*
X100868Y103191D01*
X100819Y103230D01*
X100764Y103262D01*
X100704Y103295D01*
X100633Y103322D01*
X100627D01*
X100605Y103328D01*
X100573Y103333D01*
X100529Y103344D01*
X100464Y103350D01*
X100382Y103355D01*
X100283Y103361D01*
D02*
G37*
G36*
X73705Y26155D02*
X72515Y24462D01*
X73705D01*
Y26155D01*
D02*
G37*
G36*
X69976Y26461D02*
X69102D01*
Y23578D01*
X69998D01*
X70036Y23583D01*
X70118Y23589D01*
X70211Y23594D01*
X70309Y23605D01*
X70407Y23621D01*
X70489Y23643D01*
X70500Y23649D01*
X70527Y23654D01*
X70566Y23671D01*
X70615Y23692D01*
X70669Y23725D01*
X70724Y23758D01*
X70779Y23796D01*
X70833Y23840D01*
X70839Y23851D01*
X70860Y23873D01*
X70893Y23911D01*
X70931Y23965D01*
X70975Y24036D01*
X71024Y24118D01*
X71068Y24211D01*
X71106Y24315D01*
Y24320D01*
X71112Y24331D01*
X71117Y24348D01*
X71122Y24369D01*
X71128Y24397D01*
X71139Y24435D01*
X71150Y24473D01*
X71161Y24517D01*
X71177Y24626D01*
X71193Y24752D01*
X71204Y24894D01*
X71210Y25047D01*
Y25052D01*
Y25074D01*
Y25101D01*
X71204Y25145D01*
Y25194D01*
X71199Y25249D01*
X71193Y25314D01*
X71188Y25379D01*
X71161Y25527D01*
X71128Y25680D01*
X71079Y25822D01*
X71046Y25893D01*
X71013Y25953D01*
Y25958D01*
X71002Y25969D01*
X70991Y25986D01*
X70981Y26007D01*
X70937Y26062D01*
X70882Y26127D01*
X70811Y26199D01*
X70729Y26270D01*
X70637Y26330D01*
X70538Y26379D01*
X70527Y26384D01*
X70500Y26390D01*
X70451Y26406D01*
X70380Y26422D01*
X70293Y26433D01*
X70183Y26450D01*
X70118Y26455D01*
X70047D01*
X69976Y26461D01*
D02*
G37*
G36*
X127576Y42761D02*
X126702D01*
Y39878D01*
X127598D01*
X127636Y39883D01*
X127718Y39889D01*
X127811Y39894D01*
X127909Y39905D01*
X128007Y39921D01*
X128089Y39943D01*
X128100Y39949D01*
X128127Y39954D01*
X128166Y39970D01*
X128215Y39992D01*
X128269Y40025D01*
X128324Y40058D01*
X128378Y40096D01*
X128433Y40140D01*
X128439Y40151D01*
X128460Y40173D01*
X128493Y40211D01*
X128531Y40265D01*
X128575Y40336D01*
X128624Y40418D01*
X128668Y40511D01*
X128706Y40615D01*
Y40620D01*
X128712Y40631D01*
X128717Y40648D01*
X128723Y40669D01*
X128728Y40697D01*
X128739Y40735D01*
X128750Y40773D01*
X128761Y40817D01*
X128777Y40926D01*
X128794Y41052D01*
X128804Y41194D01*
X128810Y41346D01*
Y41352D01*
Y41374D01*
Y41401D01*
X128804Y41445D01*
Y41494D01*
X128799Y41548D01*
X128794Y41614D01*
X128788Y41679D01*
X128761Y41827D01*
X128728Y41980D01*
X128679Y42122D01*
X128646Y42193D01*
X128613Y42253D01*
Y42258D01*
X128602Y42269D01*
X128592Y42286D01*
X128581Y42307D01*
X128537Y42362D01*
X128482Y42428D01*
X128411Y42498D01*
X128329Y42570D01*
X128237Y42630D01*
X128138Y42679D01*
X128127Y42684D01*
X128100Y42690D01*
X128051Y42706D01*
X127980Y42722D01*
X127893Y42733D01*
X127783Y42750D01*
X127718Y42755D01*
X127647D01*
X127576Y42761D01*
D02*
G37*
G36*
X67576Y99931D02*
X66702D01*
Y97048D01*
X67598D01*
X67636Y97053D01*
X67718Y97059D01*
X67811Y97064D01*
X67909Y97075D01*
X68007Y97091D01*
X68089Y97113D01*
X68100Y97119D01*
X68127Y97124D01*
X68166Y97141D01*
X68215Y97162D01*
X68269Y97195D01*
X68324Y97228D01*
X68379Y97266D01*
X68433Y97310D01*
X68439Y97321D01*
X68460Y97343D01*
X68493Y97381D01*
X68531Y97435D01*
X68575Y97506D01*
X68624Y97588D01*
X68668Y97681D01*
X68706Y97785D01*
Y97790D01*
X68712Y97801D01*
X68717Y97818D01*
X68722Y97839D01*
X68728Y97867D01*
X68739Y97905D01*
X68750Y97943D01*
X68761Y97987D01*
X68777Y98096D01*
X68793Y98222D01*
X68804Y98364D01*
X68810Y98516D01*
Y98522D01*
Y98544D01*
Y98571D01*
X68804Y98615D01*
Y98664D01*
X68799Y98719D01*
X68793Y98784D01*
X68788Y98849D01*
X68761Y98997D01*
X68728Y99150D01*
X68679Y99292D01*
X68646Y99363D01*
X68613Y99423D01*
Y99428D01*
X68602Y99439D01*
X68591Y99456D01*
X68581Y99477D01*
X68537Y99532D01*
X68482Y99598D01*
X68411Y99669D01*
X68329Y99739D01*
X68237Y99800D01*
X68138Y99849D01*
X68127Y99854D01*
X68100Y99860D01*
X68051Y99876D01*
X67980Y99892D01*
X67893Y99903D01*
X67783Y99920D01*
X67718Y99925D01*
X67647D01*
X67576Y99931D01*
D02*
G37*
G36*
X151176Y42631D02*
X150302D01*
Y39748D01*
X151198D01*
X151236Y39753D01*
X151318Y39759D01*
X151411Y39764D01*
X151509Y39775D01*
X151607Y39791D01*
X151689Y39813D01*
X151700Y39819D01*
X151727Y39824D01*
X151766Y39840D01*
X151815Y39862D01*
X151869Y39895D01*
X151924Y39928D01*
X151979Y39966D01*
X152033Y40010D01*
X152039Y40021D01*
X152060Y40043D01*
X152093Y40081D01*
X152131Y40135D01*
X152175Y40206D01*
X152224Y40288D01*
X152268Y40381D01*
X152306Y40485D01*
Y40490D01*
X152312Y40501D01*
X152317Y40518D01*
X152322Y40539D01*
X152328Y40567D01*
X152339Y40605D01*
X152350Y40643D01*
X152361Y40687D01*
X152377Y40796D01*
X152393Y40922D01*
X152404Y41064D01*
X152410Y41216D01*
Y41222D01*
Y41244D01*
Y41271D01*
X152404Y41315D01*
Y41364D01*
X152399Y41418D01*
X152393Y41484D01*
X152388Y41550D01*
X152361Y41697D01*
X152328Y41850D01*
X152279Y41992D01*
X152246Y42063D01*
X152213Y42123D01*
Y42128D01*
X152202Y42139D01*
X152191Y42156D01*
X152181Y42177D01*
X152137Y42232D01*
X152082Y42298D01*
X152011Y42369D01*
X151929Y42439D01*
X151837Y42500D01*
X151738Y42549D01*
X151727Y42554D01*
X151700Y42560D01*
X151651Y42576D01*
X151580Y42592D01*
X151493Y42603D01*
X151383Y42620D01*
X151318Y42625D01*
X151247D01*
X151176Y42631D01*
D02*
G37*
%LPD*%
D10*
X167441Y84476D02*
X166703Y84903D01*
Y84050D01*
X167441Y84476D01*
X251050Y44231D02*
X250311Y44657D01*
Y43805D01*
X251050Y44231D01*
X250650Y86201D02*
X249911Y86627D01*
Y85775D01*
X250650Y86201D01*
X92968Y89000D02*
X92230Y89426D01*
Y88574D01*
X92968Y89000D01*
X130392Y24943D02*
X129654Y25370D01*
Y24517D01*
X130392Y24943D01*
X153992Y24913D02*
X153254Y25340D01*
Y24487D01*
X153992Y24913D01*
X95368Y15530D02*
X94630Y15956D01*
Y15104D01*
X95368Y15530D01*
X61421Y45030D02*
X60683Y45456D01*
Y44604D01*
X61421Y45030D01*
D11*
X92530Y74530D02*
Y81530D01*
X99605D01*
X110665Y82000D02*
X116000D01*
X115970Y87970D02*
X116000Y82000D01*
X132500Y53500D02*
X134000D01*
X132500D02*
Y84500D01*
X134000Y53500D02*
X145000D01*
Y84500D01*
X132500D02*
X145000D01*
X77000Y68000D02*
X78333D01*
X77666D01*
Y71999D01*
X77000Y71332D01*
X80332D02*
X80999Y71999D01*
X82332D01*
X82998Y71332D01*
Y68666D01*
X82332Y68000D01*
X80999D01*
X80332Y68666D01*
Y71332D01*
X84331D02*
X84997Y71999D01*
X86330D01*
X86997Y71332D01*
Y68666D01*
X86330Y68000D01*
X84997D01*
X84331Y68666D01*
Y71332D01*
X88330Y68000D02*
Y70666D01*
X88996D01*
X89663Y69999D01*
Y68000D01*
Y69999D01*
X90329Y70666D01*
X90996Y69999D01*
Y68000D01*
X92328D02*
Y70666D01*
X93661Y71999D01*
X94994Y70666D01*
Y68000D01*
Y69999D01*
X92328D01*
X115666Y93999D02*
X113000D01*
Y91999D01*
X114333Y92666D01*
X114999D01*
X115666Y91999D01*
Y90666D01*
X114999Y90000D01*
X113666D01*
X113000Y90666D01*
X116999Y93332D02*
X117665Y93999D01*
X118998D01*
X119665Y93332D01*
Y90666D01*
X118998Y90000D01*
X117665D01*
X116999Y90666D01*
Y93332D01*
X120997D02*
X121664Y93999D01*
X122997D01*
X123663Y93332D01*
Y90666D01*
X122997Y90000D01*
X121664D01*
X120997Y90666D01*
Y93332D01*
X124996Y90000D02*
Y92666D01*
X125663D01*
X126329Y91999D01*
Y90000D01*
Y91999D01*
X126996Y92666D01*
X127662Y91999D01*
Y90000D01*
X128995D02*
Y92666D01*
X130328Y93999D01*
X131661Y92666D01*
Y90000D01*
Y91999D01*
X128995D01*
X226000Y124498D02*
Y118500D01*
X228999D01*
X229999Y119500D01*
Y120499D01*
X228999Y121499D01*
X226000D01*
X228999D01*
X229999Y122499D01*
Y123498D01*
X228999Y124498D01*
X226000D01*
X232998Y122499D02*
X234997D01*
X235997Y121499D01*
Y118500D01*
X232998D01*
X231998Y119500D01*
X232998Y120499D01*
X235997D01*
X238996Y123498D02*
Y122499D01*
X237996D01*
X239996D01*
X238996D01*
Y119500D01*
X239996Y118500D01*
X248993Y124498D02*
X250992D01*
X249992D01*
Y118500D01*
X248993D01*
X250992D01*
X253991D02*
Y122499D01*
X256990D01*
X257990Y121499D01*
Y118500D01*
X136500Y82500D02*
X142498D01*
Y79501D01*
X141498Y78501D01*
X139499D01*
X138499Y79501D01*
Y82500D01*
X140499Y76502D02*
X136500D01*
X138499D01*
X139499Y75502D01*
X140499Y74503D01*
Y73503D01*
X136500Y69504D02*
Y67505D01*
X137500Y66505D01*
X139499D01*
X140499Y67505D01*
Y69504D01*
X139499Y70504D01*
X137500D01*
X136500Y69504D01*
X134501Y62507D02*
Y61507D01*
X135500Y60507D01*
X140499D01*
Y63506D01*
X139499Y64506D01*
X137500D01*
X136500Y63506D01*
Y60507D01*
X63000Y123998D02*
X66999D01*
X64999D01*
Y118000D01*
X68998Y123998D02*
Y118000D01*
Y120999D01*
X69998Y121999D01*
X71997D01*
X72997Y120999D01*
Y118000D01*
X75996D02*
X77995D01*
X78995Y119000D01*
Y120999D01*
X77995Y121999D01*
X75996D01*
X74996Y120999D01*
Y119000D01*
X75996Y118000D01*
X80994D02*
Y121999D01*
X81994D01*
X82994Y120999D01*
Y118000D01*
Y120999D01*
X83993Y121999D01*
X84993Y120999D01*
Y118000D01*
X87992Y121999D02*
X89991D01*
X90991Y120999D01*
Y118000D01*
X87992D01*
X86992Y119000D01*
X87992Y119999D01*
X90991D01*
X92990Y118000D02*
X95989D01*
X96989Y119000D01*
X95989Y119999D01*
X93990D01*
X92990Y120999D01*
X93990Y121999D01*
X96989D01*
X104986Y123998D02*
Y118000D01*
X106986Y119999D01*
X108985Y118000D01*
Y123998D01*
X110985Y118000D02*
X112984D01*
X111984D01*
Y121999D01*
X110985D01*
X115983Y118000D02*
X117982D01*
X116982D01*
Y123998D01*
X115983D01*
X120981Y118000D02*
X123980D01*
X124980Y119000D01*
X123980Y119999D01*
X121981D01*
X120981Y120999D01*
X121981Y121999D01*
X124980D01*
X127979Y118000D02*
X129978D01*
X130978Y119000D01*
Y120999D01*
X129978Y121999D01*
X127979D01*
X126979Y120999D01*
Y119000D01*
X127979Y118000D01*
X132977D02*
Y121999D01*
X135976D01*
X136976Y120999D01*
Y118000D01*
X144974Y123998D02*
Y118000D01*
X147973D01*
X148972Y119000D01*
Y119999D01*
X147973Y120999D01*
X144974D01*
X147973D01*
X148972Y121999D01*
Y122998D01*
X147973Y123998D01*
X144974D01*
X150971Y122998D02*
X151971Y123998D01*
X153971D01*
X154970Y122998D01*
Y119000D01*
X153971Y118000D01*
X151971D01*
X150971Y119000D01*
Y122998D01*
X156970D02*
X157969Y123998D01*
X159969D01*
X160968Y122998D01*
Y119000D01*
X159969Y118000D01*
X157969D01*
X156970Y119000D01*
Y122998D01*
X162968D02*
X163967Y123998D01*
X165967D01*
X166966Y122998D01*
Y121999D01*
X165967Y120999D01*
X166966Y119999D01*
Y119000D01*
X165967Y118000D01*
X163967D01*
X162968Y119000D01*
Y119999D01*
X163967Y120999D01*
X162968Y121999D01*
Y122998D01*
X163967Y120999D02*
X165967D01*
X168966Y122998D02*
X169965Y123998D01*
X171965D01*
X172964Y122998D01*
Y121999D01*
X171965Y120999D01*
X170965D01*
X171965D01*
X172964Y119999D01*
Y119000D01*
X171965Y118000D01*
X169965D01*
X168966Y119000D01*
X178963Y123998D02*
X176963Y122998D01*
X174964Y120999D01*
Y119000D01*
X175963Y118000D01*
X177963D01*
X178963Y119000D01*
Y119999D01*
X177963Y120999D01*
X174964D01*
X180962Y123998D02*
X184960D01*
Y122998D01*
X180962Y119000D01*
Y118000D01*
X190959Y123998D02*
X188959Y122998D01*
X186960Y120999D01*
Y119000D01*
X187960Y118000D01*
X189959D01*
X190959Y119000D01*
Y119999D01*
X189959Y120999D01*
X186960D01*
X196957Y123998D02*
X194957Y122998D01*
X192958Y120999D01*
Y119000D01*
X193958Y118000D01*
X195957D01*
X196957Y119000D01*
Y119999D01*
X195957Y120999D01*
X192958D01*
X124000Y15998D02*
Y10000D01*
X126999D01*
X127999Y11000D01*
Y11999D01*
X126999Y12999D01*
X124000D01*
X126999D01*
X127999Y13999D01*
Y14998D01*
X126999Y15998D01*
X124000D01*
X132997Y10000D02*
X130998D01*
X129998Y11000D01*
Y12999D01*
X130998Y13999D01*
X132997D01*
X133997Y12999D01*
Y11999D01*
X129998D01*
X135996Y10000D02*
Y13999D01*
X138995D01*
X139995Y12999D01*
Y10000D01*
X147992D02*
Y15998D01*
X150991D01*
X151991Y14998D01*
Y12999D01*
X150991Y11999D01*
X147992D01*
X149992D02*
X151991Y10000D01*
X153990Y13999D02*
Y11000D01*
X154990Y10000D01*
X157989D01*
Y13999D01*
X159988Y10000D02*
X162987D01*
X163987Y11000D01*
X162987Y11999D01*
X160988D01*
X159988Y12999D01*
X160988Y13999D01*
X163987D01*
X165986Y10000D02*
X168985D01*
X169985Y11000D01*
X168985Y11999D01*
X166986D01*
X165986Y12999D01*
X166986Y13999D01*
X169985D01*
X174984Y10000D02*
X172984D01*
X171985Y11000D01*
Y12999D01*
X172984Y13999D01*
X174984D01*
X175983Y12999D01*
Y11999D01*
X171985D01*
X177982Y10000D02*
X179982D01*
X178982D01*
Y15998D01*
X177982D01*
X182981Y10000D02*
X184980D01*
X183981D01*
Y15998D01*
X182981D01*
X193977D02*
Y10000D01*
X196976D01*
X197976Y11000D01*
Y11999D01*
X196976Y12999D01*
X193977D01*
X196976D01*
X197976Y13999D01*
Y14998D01*
X196976Y15998D01*
X193977D01*
X199975Y14998D02*
X200975Y15998D01*
X202975D01*
X203974Y14998D01*
Y11000D01*
X202975Y10000D01*
X200975D01*
X199975Y11000D01*
Y14998D01*
X205974D02*
X206973Y15998D01*
X208973D01*
X209972Y14998D01*
Y11000D01*
X208973Y10000D01*
X206973D01*
X205974Y11000D01*
Y14998D01*
X211971D02*
X212971Y15998D01*
X214971D01*
X215970Y14998D01*
Y13999D01*
X214971Y12999D01*
X215970Y11999D01*
Y11000D01*
X214971Y10000D01*
X212971D01*
X211971Y11000D01*
Y11999D01*
X212971Y12999D01*
X211971Y13999D01*
Y14998D01*
X212971Y12999D02*
X214971D01*
X217970Y14998D02*
X218969Y15998D01*
X220969D01*
X221968Y14998D01*
Y13999D01*
X220969Y12999D01*
X219969D01*
X220969D01*
X221968Y11999D01*
Y11000D01*
X220969Y10000D01*
X218969D01*
X217970Y11000D01*
X223968Y14998D02*
X224967Y15998D01*
X226967D01*
X227966Y14998D01*
Y13999D01*
X226967Y12999D01*
X227966Y11999D01*
Y11000D01*
X226967Y10000D01*
X224967D01*
X223968Y11000D01*
Y11999D01*
X224967Y12999D01*
X223968Y13999D01*
Y14998D01*
X224967Y12999D02*
X226967D01*
X229966Y14998D02*
X230965Y15998D01*
X232965D01*
X233964Y14998D01*
Y13999D01*
X232965Y12999D01*
X231965D01*
X232965D01*
X233964Y11999D01*
Y11000D01*
X232965Y10000D01*
X230965D01*
X229966Y11000D01*
X235964Y10000D02*
X237963D01*
X236964D01*
Y15998D01*
X235964Y14998D01*
X243961Y10000D02*
Y15998D01*
X240962Y12999D01*
X244961D01*
X216000Y45999D02*
X219999D01*
X216500Y57999D02*
X220499D01*
X218499Y59998D02*
Y56000D01*
X221500Y84499D02*
X225499D01*
X222000Y95499D02*
X225999D01*
X223999Y97498D02*
Y93500D01*
D12*
X161634Y85657D02*
X162815D01*
X161634Y97862D02*
X162815D01*
Y85657D02*
Y97862D01*
X161634Y85657D02*
Y97862D01*
X267979Y43345D02*
Y57715D01*
X256365Y35668D02*
Y41573D01*
X252821D02*
X256365D01*
X252821Y59487D02*
X256365D01*
Y65392D01*
X252821Y41573D02*
Y45313D01*
Y55747D02*
Y59487D01*
X267579Y85315D02*
Y99685D01*
X255965Y77638D02*
Y83543D01*
X252421D02*
X255965D01*
X252421Y101457D02*
X255965D01*
Y107362D01*
X252421Y83543D02*
Y87283D01*
Y97717D02*
Y101457D01*
X75606Y94118D02*
X80862D01*
Y83882D02*
Y94118D01*
X75606Y83882D02*
X80862D01*
X133246Y28684D02*
Y35376D01*
X126554Y28684D02*
Y35376D01*
X156846Y28654D02*
Y35346D01*
X150154Y28654D02*
Y35346D01*
X106354Y35532D02*
Y39469D01*
X100646Y35532D02*
Y39469D01*
X212456Y92250D02*
Y95781D01*
X205344Y92250D02*
Y95781D01*
X233695Y41939D02*
Y63121D01*
X223105Y41939D02*
X233695D01*
X223105D02*
Y63121D01*
X233695D01*
X99605Y65939D02*
X110195D01*
Y97121D01*
X99605D02*
X110195D01*
X99605Y65939D02*
Y97121D01*
X238695Y79439D02*
Y100621D01*
X228105Y79439D02*
X238695D01*
X228105D02*
Y100621D01*
X238695D01*
X78006Y20648D02*
X83262D01*
Y10412D02*
Y20648D01*
X78006Y10412D02*
X83262D01*
X1874Y62747D02*
X58567D01*
X1874Y27313D02*
Y62747D01*
X58567Y54479D02*
Y62747D01*
X1874Y27313D02*
X35536D01*
X52465D02*
X58567D01*
Y35581D01*
D13*
X79330Y89000D02*
D03*
X81731Y15530D02*
D03*
M02*
