G04*
G04 #@! TF.GenerationSoftware,Altium Limited,Altium Designer,19.1.6 (110)*
G04*
G04 Layer_Color=16711935*
%FSLAX25Y25*%
%MOIN*%
G70*
G01*
G75*
%ADD14R,0.06706X0.02178*%
%ADD26C,0.06800*%
%ADD27R,0.07099X0.07099*%
%ADD28C,0.07099*%
%ADD29R,0.14580X0.06706*%
%ADD30R,0.06706X0.14580*%
%ADD31R,0.06706X0.16548*%
%ADD32C,0.03950*%
%ADD33C,0.00900*%
%ADD55R,0.04737X0.04343*%
D14*
X51772Y102327D02*
D03*
Y100358D02*
D03*
Y98390D02*
D03*
Y96421D02*
D03*
Y94453D02*
D03*
Y88547D02*
D03*
Y86579D02*
D03*
Y84610D02*
D03*
Y82642D02*
D03*
Y80673D02*
D03*
D26*
X267000Y123000D02*
D03*
Y5000D02*
D03*
X5000D02*
D03*
Y123000D02*
D03*
D27*
X228400Y47530D02*
D03*
X104900Y91530D02*
D03*
X233400Y85030D02*
D03*
D28*
X228400Y57530D02*
D03*
X104900Y81530D02*
D03*
Y71530D02*
D03*
X233400Y95030D02*
D03*
D29*
X44000Y26526D02*
D03*
D30*
X32189Y45030D02*
D03*
D31*
X55811D02*
D03*
D32*
X137500Y47500D02*
D03*
Y89500D02*
D03*
D33*
X55700Y102327D02*
D03*
X85826Y26526D02*
D03*
X187411Y58089D02*
D03*
X55059Y89000D02*
D03*
D55*
X52756Y106559D02*
D03*
Y76441D02*
D03*
M02*
