%FSTAX23Y23*%
%MOIN*%
%SFA1B1*%

%IPPOS*%
%ADD12C,0.007870*%
%ADD56C,0.003940*%
%ADD57C,0.001970*%
%LNpcb1_(1)-1*%
%LPD*%
G54D12*
X01277Y00271D02*
X0132D01*
Y00369*
X01277D02*
X0132D01*
X01277Y00271D02*
Y00369D01*
X01513Y0027D02*
X01556D01*
Y00369*
X01513D02*
X01556D01*
X01513Y0027D02*
Y00369D01*
X01018Y00347D02*
X01051D01*
Y00402*
X01018D02*
X01051D01*
X01018Y00347D02*
Y00402D01*
X02043Y0103D02*
X02134D01*
X02043Y00849D02*
Y0103D01*
Y00849D02*
X02134D01*
Y0103*
G54D56*
X01602Y00917D02*
X01641D01*
X01622Y00897D02*
Y00937D01*
X00765Y0089D02*
X00804D01*
X00785Y0087D02*
Y00909D01*
X01799Y00281D02*
Y00318D01*
X0178Y003D02*
X01818D01*
X01036Y00548D02*
Y00585D01*
X01017Y00566D02*
X01055D01*
X02Y00535D02*
Y00573D01*
X01981Y00554D02*
X02018D01*
X00789Y00155D02*
X00828D01*
X00809Y00135D02*
Y00174D01*
X0044Y0043D02*
Y00469D01*
X0042Y0045D02*
X00459D01*
G54D57*
X0023Y00915D02*
X00269D01*
X0025Y00895D02*
Y00934D01*
X01714Y00836D02*
Y00998D01*
X01529Y00836D02*
Y00998D01*
Y00836D02*
X01714D01*
X01529Y00998D02*
X01714D01*
X02604Y00485D02*
Y00524D01*
X02584Y00505D02*
X02623D01*
X02483Y00331D02*
X02703D01*
Y00679*
X02483D02*
X02703D01*
X02483Y00331D02*
Y00679D01*
X026Y00905D02*
Y00944D01*
X0258Y00925D02*
X02619D01*
X02479Y0075D02*
X02699D01*
Y01099*
X02479D02*
X02699D01*
X02479Y0075D02*
Y01099D01*
X00907Y00834D02*
Y00945D01*
X00662Y00834D02*
Y00945D01*
Y00834D02*
X00907D01*
X00662Y00945D02*
X00907D01*
X01754Y00276D02*
X01844D01*
X01754Y00323D02*
X01844D01*
Y00276D02*
Y00323D01*
X01754Y00276D02*
Y00323D01*
X02284Y00505D02*
Y00544D01*
X02264Y00525D02*
X02303D01*
X02223Y00411D02*
X02344D01*
Y00639*
X02223D02*
X02344D01*
X02223Y00411D02*
Y00639D01*
X01049Y00795D02*
Y00834D01*
X01029Y00815D02*
X01068D01*
X01109Y00651D02*
Y00979D01*
X00988Y00651D02*
X01109D01*
X00988D02*
Y00979D01*
X01109*
X02334Y0088D02*
Y00919D01*
X02314Y009D02*
X02353D01*
X02273Y00786D02*
X02394D01*
Y01014*
X02273D02*
X02394D01*
X02273Y00786D02*
Y01014D01*
X00995Y00499D02*
X01078D01*
X00995Y00633D02*
X01078D01*
X00995Y00499D02*
Y00633D01*
X01078Y00499D02*
Y00633D01*
X01976Y00509D02*
X02023D01*
X01976Y00599D02*
X02023D01*
X01976Y00509D02*
Y00599D01*
X02023Y00509D02*
Y00599D01*
X00931Y001D02*
Y0021D01*
X00686Y001D02*
Y0021D01*
Y001D02*
X00931D01*
X00686Y0021D02*
X00931D01*
X00014Y00231D02*
Y00631D01*
X00591*
X00014Y00231D02*
X00591D01*
Y00631*
M02*