%FSTAX23Y23*%
%MOIN*%
%SFA1B1*%

%IPPOS*%
%ADD12C,0.007870*%
%LNpcb1_(1)-1*%
%LPD*%
G36*
X01292Y0036D02*
X01292Y0036D01*
X01292Y0036*
X01293Y0036*
X01293Y0036*
X01294Y0036*
X01294Y0036*
X01295Y00359*
X01295Y00359*
X01296Y00359*
X01296Y00358*
X01297Y00358*
X01297Y00358*
X01297Y00358*
X01297Y00358*
X01297Y00358*
X01297Y00357*
X01297Y00357*
X01298Y00357*
X01298Y00356*
X01298Y00356*
X01298Y00355*
X01298Y00355*
X01299Y00354*
X01299Y00354*
X01299Y00353*
X01299Y00353*
X01299Y00352*
Y00352*
X01299Y00351*
X01299Y00351*
X01299Y00351*
X01299Y0035*
X01299Y0035*
X01298Y00349*
X01298Y00348*
X01298Y00348*
X01298Y00347*
X01297Y00347*
X01297Y00346*
X01297Y00346*
X01297Y00346*
X01297Y00346*
X01297Y00346*
X01296Y00346*
X01296Y00346*
X01296Y00346*
X01296Y00345*
X01295Y00345*
X01295Y00345*
X01294Y00344*
X01293Y00344*
X01292Y00344*
X01292Y00344*
X01291Y00347*
X01291*
X01292Y00347*
X01292Y00347*
X01292Y00347*
X01292Y00347*
X01292Y00347*
X01293Y00347*
X01294Y00348*
X01294Y00348*
X01295Y00348*
X01295Y00349*
X01295Y00349*
X01295Y00349*
X01296Y00349*
X01296Y0035*
X01296Y0035*
X01296Y00351*
X01296Y00351*
X01296Y00352*
Y00352*
X01296Y00352*
X01296Y00353*
X01296Y00353*
X01296Y00354*
X01296Y00354*
X01295Y00355*
X01295Y00356*
X01295Y00356*
X01295Y00356*
X01294Y00356*
X01294Y00356*
X01293Y00357*
X01293Y00357*
X01292Y00357*
X01291Y00357*
X01291*
X01291*
X01291*
X01291Y00357*
X0129Y00357*
X0129Y00357*
X01289Y00357*
X01289Y00357*
X01288Y00356*
X01288Y00356*
X01288Y00356*
X01287Y00356*
X01287Y00355*
X01287Y00355*
X01287Y00354*
X01286Y00354*
X01286Y00353*
X01286Y00352*
Y00352*
X01286Y00352*
X01286Y00351*
X01286Y00351*
X01286Y00351*
X01287Y0035*
X01284Y0035*
Y00351*
X01284Y00351*
Y00351*
X01284Y00352*
X01284Y00352*
X01284Y00353*
X01283Y00353*
X01283Y00354*
X01283Y00354*
Y00354*
X01283Y00355*
X01283Y00355*
X01282Y00355*
X01282Y00355*
X01282Y00356*
X01281Y00356*
X0128Y00356*
X0128Y00356*
X0128*
X0128*
X0128*
X01279*
X01279Y00356*
X01279Y00356*
X01278Y00356*
X01278Y00356*
X01277Y00355*
X01277Y00355*
X01277Y00355*
X01277Y00355*
X01277Y00354*
X01276Y00354*
X01276Y00354*
X01276Y00353*
X01276Y00353*
X01276Y00352*
Y00352*
X01276Y00351*
X01276Y00351*
X01276Y0035*
X01276Y0035*
X01277Y00349*
X01277Y00349*
X01277Y00349*
X01277Y00349*
X01277Y00349*
X01278Y00348*
X01278Y00348*
X01279Y00348*
X01279Y00348*
X0128Y00347*
X0128Y00344*
X0128*
X0128Y00344*
X01279Y00344*
X01279Y00344*
X01279Y00344*
X01279Y00345*
X01278Y00345*
X01277Y00345*
X01276Y00346*
X01276Y00346*
X01275Y00347*
X01275Y00347*
X01275Y00347*
X01275Y00347*
X01275Y00347*
X01275Y00347*
X01274Y00348*
X01274Y00348*
X01274Y00348*
X01274Y00349*
X01273Y0035*
X01273Y00351*
X01273Y00351*
Y00352*
X01273Y00353*
X01273Y00353*
X01273Y00354*
X01274Y00354*
X01274Y00355*
X01274Y00356*
Y00356*
X01274Y00356*
X01274Y00356*
X01274Y00356*
X01275Y00357*
X01275Y00357*
X01276Y00357*
X01276Y00358*
X01277Y00358*
X01277Y00358*
X01277Y00358*
X01277Y00359*
X01278Y00359*
X01278Y00359*
X01279Y00359*
X01279Y00359*
X0128Y00359*
X0128*
X0128*
X0128Y00359*
X01281Y00359*
X01281Y00359*
X01282Y00359*
X01282Y00359*
X01283Y00358*
X01283Y00358*
X01283Y00358*
X01283Y00358*
X01284Y00358*
X01284Y00357*
X01284Y00357*
X01285Y00356*
X01285Y00356*
Y00356*
X01285Y00356*
X01285Y00356*
X01285Y00356*
X01285Y00356*
X01285Y00357*
X01286Y00358*
X01286Y00358*
X01286Y00359*
X01287Y00359*
X01287Y00359*
X01287Y00359*
X01288Y0036*
X01288Y0036*
X01289Y0036*
X01289Y0036*
X0129Y0036*
X01291Y0036*
X01291*
X01291*
X01291*
X01292Y0036*
G37*
G36*
X01287Y00341D02*
X01287D01*
X01288Y00341*
X01288Y0034*
X01289Y0034*
X0129Y0034*
X01291Y0034*
X01291*
X01291Y0034*
X01291Y0034*
X01291Y0034*
X01292Y0034*
X01292Y00339*
X01293Y00339*
X01293Y00339*
X01294Y00339*
X01295Y00338*
X01295Y00338*
X01295Y00338*
X01295Y00338*
X01295Y00338*
X01296Y00337*
X01296Y00337*
X01297Y00336*
X01297Y00336*
X01297Y00336*
X01297Y00336*
X01297Y00335*
X01297Y00335*
X01298Y00335*
X01298Y00334*
X01298Y00334*
X01298Y00333*
Y00333*
X01298Y00333*
X01298Y00333*
X01298Y00332*
X01298Y00332*
X01298Y00331*
X01298Y0033*
X01298Y0033*
X01299Y00329*
Y0032*
X01273*
Y00329*
X01273Y0033*
X01273Y00331*
X01273Y00332*
X01274Y00332*
X01274Y00333*
Y00333*
X01274Y00333*
Y00333*
X01274Y00333*
X01274Y00334*
X01274Y00334*
X01274Y00335*
X01275Y00335*
X01275Y00336*
X01276Y00337*
X01276Y00337*
X01276Y00337*
X01276Y00337*
X01276Y00337*
X01276Y00337*
X01277Y00338*
X01277Y00338*
X01278Y00339*
X01279Y00339*
X0128Y0034*
X0128*
X0128Y0034*
X0128Y0034*
X0128Y0034*
X01281Y0034*
X01281Y0034*
X01281Y0034*
X01282Y0034*
X01282Y0034*
X01282Y0034*
X01283Y0034*
X01285Y00341*
X01286Y00341*
X01286*
X01286*
X01286*
X01286*
X01287Y00341*
G37*
G36*
X01535Y00343D02*
X01534D01*
X01534*
X01534*
X01534Y00343*
X01533Y00343*
X01533Y00343*
X01533Y00343*
X01532Y00344*
X01532*
X01532Y00344*
X01532Y00344*
X01532Y00344*
X01531Y00344*
X01531Y00344*
X0153Y00345*
X0153Y00345*
X01529Y00346*
X01529*
X01529Y00346*
X01529Y00346*
X01528Y00346*
X01528Y00347*
X01527Y00347*
X01527Y00348*
X01526Y00349*
X01525Y0035*
X01525Y0035*
X01525Y0035*
X01525Y0035*
X01525Y0035*
X01524Y00351*
X01524Y00351*
X01524Y00351*
X01523Y00352*
X01522Y00353*
X01522Y00354*
X01521Y00354*
X01521Y00355*
X0152Y00355*
X0152Y00355*
X0152*
X0152Y00355*
X0152Y00355*
X0152Y00355*
X01519Y00356*
X01519Y00356*
X01518Y00356*
X01517Y00356*
X01517Y00357*
X01516Y00357*
X01516*
X01516*
X01516Y00357*
X01515Y00357*
X01515Y00357*
X01515Y00356*
X01514Y00356*
X01514Y00356*
X01513Y00355*
X01513Y00355*
X01513Y00355*
X01513Y00355*
X01512Y00354*
X01512Y00354*
X01512Y00353*
X01512Y00353*
X01512Y00352*
Y00352*
X01512Y00352*
X01512Y00351*
X01512Y00351*
X01512Y0035*
X01512Y00349*
X01513Y00349*
X01513Y00348*
X01513Y00348*
X01513Y00348*
X01514Y00348*
X01514Y00348*
X01515Y00347*
X01515Y00347*
X01516Y00347*
X01517Y00347*
X01516Y00344*
X01516*
X01516Y00344*
X01516*
X01516Y00344*
X01516Y00344*
X01515Y00344*
X01515Y00344*
X01514Y00344*
X01514Y00345*
X01513Y00345*
X01512Y00345*
X01512Y00346*
X01511Y00346*
X01511Y00346*
X01511Y00346*
X01511Y00346*
X01511Y00346*
X01511Y00347*
X01511Y00347*
X01511Y00347*
X0151Y00347*
X0151Y00348*
X0151Y00348*
X0151Y00349*
X0151Y00349*
X01509Y0035*
X01509Y0035*
X01509Y00351*
X01509Y00351*
X01509Y00352*
Y00352*
X01509Y00353*
X01509Y00353*
X01509Y00353*
X01509Y00354*
X01509Y00354*
X0151Y00355*
X0151Y00356*
X0151Y00356*
X01511Y00357*
X01511Y00357*
X01511Y00358*
X01511Y00358*
X01511Y00358*
X01511Y00358*
X01512Y00358*
X01512Y00358*
X01512Y00358*
X01512Y00359*
X01513Y00359*
X01513Y00359*
X01514Y0036*
X01515Y0036*
X01515Y0036*
X01516Y0036*
X01516Y0036*
X01516*
X01516*
X01517Y0036*
X01517Y0036*
X01518Y0036*
X01518Y0036*
X01519Y00359*
X01519Y00359*
X01519Y00359*
X01519Y00359*
X0152Y00359*
X0152Y00359*
X01521Y00358*
X01521Y00358*
X01522Y00358*
X01522Y00357*
X01522Y00357*
X01523Y00357*
X01523Y00357*
X01523Y00357*
X01523Y00356*
X01523Y00356*
X01524Y00356*
X01524Y00355*
X01524Y00355*
X01525Y00355*
X01525Y00354*
X01526Y00354*
X01526Y00353*
X01527Y00352*
X01527Y00352*
X01527Y00352*
X01527Y00352*
X01527Y00352*
X01527Y00352*
X01527Y00352*
X01528Y00351*
X01528Y0035*
X01529Y0035*
X0153Y00349*
X0153Y00349*
X0153Y00349*
X0153Y00349*
X0153Y00349*
X0153Y00349*
X0153Y00348*
X01531Y00348*
X01531Y00348*
X01532Y00347*
Y0036*
X01535*
Y00343*
G37*
G36*
X01523Y0034D02*
X01523D01*
X01524Y0034*
X01524Y0034*
X01525Y0034*
X01526Y0034*
X01527Y0034*
X01527*
X01527Y0034*
X01527Y0034*
X01527Y0034*
X01528Y00339*
X01528Y00339*
X01529Y00339*
X01529Y00339*
X0153Y00338*
X01531Y00338*
X01531Y00338*
X01531Y00338*
X01531Y00338*
X01531Y00337*
X01532Y00337*
X01532Y00337*
X01533Y00336*
X01533Y00336*
X01533Y00336*
X01533Y00335*
X01533Y00335*
X01533Y00335*
X01534Y00334*
X01534Y00334*
X01534Y00333*
X01534Y00333*
Y00333*
X01534Y00332*
X01534Y00332*
X01534Y00332*
X01534Y00331*
X01534Y00331*
X01534Y0033*
X01534Y00329*
X01535Y00329*
Y0032*
X01509*
Y00329*
X01509Y0033*
X01509Y00331*
X01509Y00331*
X0151Y00332*
X0151Y00333*
Y00333*
X0151Y00333*
Y00333*
X0151Y00333*
X0151Y00333*
X0151Y00334*
X0151Y00335*
X01511Y00335*
X01511Y00336*
X01511Y00336*
X01512Y00336*
X01512Y00336*
X01512Y00337*
X01512Y00337*
X01512Y00337*
X01513Y00337*
X01513Y00338*
X01514Y00338*
X01515Y00339*
X01516Y00339*
X01516*
X01516Y00339*
X01516Y00339*
X01516Y00339*
X01517Y0034*
X01517Y0034*
X01517Y0034*
X01518Y0034*
X01518Y0034*
X01518Y0034*
X01519Y0034*
X01521Y0034*
X01522Y0034*
X01522*
X01522*
X01522*
X01522*
X01523Y0034*
G37*
G36*
X01027Y00408D02*
X01007D01*
X01007Y00408*
X01008Y00408*
X01008Y00408*
X01008Y00407*
X01008Y00407*
X01009Y00406*
X01009Y00406*
X0101Y00405*
Y00405*
X0101Y00405*
X0101Y00405*
X0101Y00405*
X0101Y00404*
X0101Y00404*
X01011Y00403*
X01011Y00403*
X01011Y00402*
X01008*
Y00402*
X01008Y00402*
X01008Y00402*
X01008Y00402*
X01008Y00403*
X01008Y00403*
X01007Y00404*
X01007Y00404*
X01006Y00405*
X01006Y00406*
X01005Y00406*
X01005Y00407*
X01005Y00407*
X01005Y00407*
X01005Y00407*
X01005Y00407*
X01004Y00408*
X01004Y00408*
X01003Y00409*
X01002Y00409*
X01002Y00409*
Y00411*
X01027*
Y00408*
G37*
G36*
X01019Y00397D02*
X0102Y00397D01*
X0102Y00397*
X0102Y00396*
X01021Y00396*
X01021Y00396*
X01021Y00396*
X01022Y00395*
X01023Y00395*
X01024Y00394*
X01025Y00394*
X01025Y00394*
X01025Y00393*
X01025Y00393*
X01025Y00393*
X01026Y00393*
X01026Y00393*
X01026Y00392*
X01026Y00392*
X01026Y00392*
X01026Y00391*
X01027Y00391*
X01027Y0039*
X01027Y0039*
X01027Y00389*
X01027Y00388*
X01027Y00388*
X01027Y00387*
X01028Y00386*
Y00386*
X01027Y00386*
Y00385*
X01027Y00385*
X01027Y00384*
X01027Y00384*
X01027Y00383*
X01027Y00382*
X01026Y00381*
X01026Y0038*
X01026Y0038*
X01026Y0038*
X01026Y0038*
X01026Y00379*
X01026Y00379*
X01025Y00379*
X01025Y00379*
X01025Y00379*
X01025Y00378*
X01024Y00378*
X01024Y00378*
X01023Y00377*
X01022Y00376*
X01021Y00376*
X01021*
X01021Y00376*
X01021Y00376*
X01021Y00376*
X0102Y00376*
X0102Y00375*
X01019Y00375*
X01019Y00375*
X01019Y00375*
X01018Y00375*
X01017Y00375*
X01016Y00375*
X01014Y00375*
X01014*
X01014*
X01014*
X01014Y00375*
X01013*
X01013Y00375*
X01012Y00375*
X01012Y00375*
X01011Y00375*
X0101Y00375*
X01009Y00375*
X01007Y00376*
X01007Y00376*
X01007Y00376*
X01007Y00376*
X01007Y00376*
X01007Y00376*
X01006Y00377*
X01006Y00377*
X01005Y00378*
X01004Y00378*
X01004Y00379*
X01003Y0038*
X01003Y0038*
X01003Y0038*
X01003Y00381*
X01003Y00381*
X01003Y00381*
X01003Y00381*
X01002Y00382*
X01002Y00382*
X01002Y00383*
X01002Y00383*
X01002Y00384*
X01002Y00385*
X01001Y00386*
Y00387*
X01002Y00387*
X01002Y00387*
X01002Y00388*
X01002Y00388*
X01002Y00389*
X01002Y0039*
X01002Y00391*
X01002Y00391*
X01003Y00392*
X01003Y00392*
X01003Y00393*
X01003Y00393*
X01003Y00393*
X01004Y00393*
X01004Y00393*
X01004Y00393*
X01004Y00394*
X01004Y00394*
X01005Y00394*
X01005Y00394*
X01006Y00395*
X01006Y00395*
X01006Y00395*
X01007Y00396*
X01008Y00396*
X01008Y00396*
X01009Y00396*
X0101Y00393*
X0101*
X01009Y00393*
X01009Y00393*
X01009Y00393*
X01009Y00393*
X01009Y00393*
X01008Y00392*
X01007Y00392*
X01007Y00392*
X01006Y00391*
X01006Y0039*
X01006Y0039*
X01005Y0039*
X01005Y0039*
X01005Y00389*
X01005Y00389*
X01004Y00388*
X01004Y00387*
X01004Y00386*
Y00386*
X01004Y00386*
Y00386*
X01004Y00385*
X01004Y00385*
X01005Y00384*
X01005Y00383*
X01005Y00382*
X01006Y00381*
Y00381*
X01006Y00381*
X01006Y00381*
X01006Y00381*
X01007Y0038*
X01007Y0038*
X01008Y00379*
X01009Y00379*
X01009Y00379*
X0101*
X0101Y00379*
X0101Y00379*
X0101Y00379*
X0101Y00379*
X0101Y00378*
X01011Y00378*
X01012Y00378*
X01012Y00378*
X01013Y00378*
X01014Y00378*
X01014*
X01014*
X01015*
X01015*
X01015Y00378*
X01015*
X01016Y00378*
X01016Y00378*
X01017Y00378*
X01018Y00378*
X01019Y00379*
X0102Y00379*
X0102*
X0102Y00379*
X0102Y00379*
X0102Y00379*
X01021Y00379*
X01021Y0038*
X01022Y0038*
X01022Y0038*
X01023Y00381*
X01024Y00382*
Y00382*
X01024Y00382*
X01024Y00382*
X01024Y00382*
X01024Y00382*
X01024Y00383*
X01024Y00383*
X01024Y00384*
X01025Y00384*
X01025Y00385*
X01025Y00386*
Y00386*
X01025Y00387*
Y00387*
X01025Y00387*
X01024Y00388*
X01024Y00388*
X01024Y00389*
X01024Y0039*
X01023Y0039*
X01023Y00391*
X01023Y00391*
X01023Y00391*
X01023Y00391*
X01023Y00391*
X01023Y00391*
X01022Y00391*
X01022Y00392*
X01022Y00392*
X01022Y00392*
X01021Y00392*
X01021Y00393*
X0102Y00393*
X0102Y00393*
X01019Y00393*
X01019Y00393*
X01018Y00393*
X01019Y00397*
X01019*
X01019Y00397*
G37*
G36*
X02109Y0094D02*
X0211D01*
X0211Y0094*
X02111Y0094*
X02111Y00939*
X02112Y00939*
X02113Y00939*
X02114Y00939*
X02116Y00938*
X02116Y00938*
X02116Y00938*
X02116Y00938*
X02116Y00938*
X02116Y00938*
X02117Y00938*
X02117Y00937*
X02118Y00936*
X02119Y00936*
X02119Y00935*
X0212Y00934*
X0212Y00934*
X0212Y00934*
X0212Y00934*
X0212Y00933*
X0212Y00933*
X0212Y00933*
X02121Y00932*
X02121Y00932*
X02121Y00932*
X02121Y00931*
X02121Y0093*
X02121Y00929*
X02122Y00928*
Y00927*
X02122Y00927*
X02121Y00927*
X02121Y00926*
X02121Y00926*
X02121Y00926*
X02121Y00925*
X02121Y00923*
X02121Y00923*
X0212Y00922*
X0212Y00922*
X0212Y00921*
X0212Y00921*
X0212Y00921*
X02119Y00921*
X02119Y00921*
X02119Y00921*
X02119Y00921*
X02119Y0092*
X02118Y0092*
X02118Y0092*
X02117Y00919*
X02117Y00919*
X02117Y00919*
X02116Y00919*
X02115Y00918*
X02115Y00918*
X02114Y00918*
X02113Y00921*
X02113*
X02114Y00921*
X02114Y00921*
X02114Y00921*
X02114Y00921*
X02114Y00921*
X02115Y00922*
X02116Y00922*
X02116Y00923*
X02117Y00923*
X02117Y00924*
X02118Y00924*
X02118Y00924*
X02118Y00924*
X02118Y00925*
X02118Y00925*
X02119Y00926*
X02119Y00927*
X02119Y00928*
Y00928*
X02119Y00928*
Y00929*
X02119Y00929*
X02119Y0093*
X02118Y0093*
X02118Y00931*
X02118Y00932*
X02117Y00933*
Y00933*
X02117Y00933*
X02117Y00933*
X02117Y00933*
X02116Y00934*
X02116Y00934*
X02115Y00935*
X02114Y00935*
X02114Y00935*
X02113*
X02113Y00936*
X02113Y00936*
X02113Y00936*
X02113Y00936*
X02113Y00936*
X02112Y00936*
X02111Y00936*
X02111Y00936*
X0211Y00936*
X02109Y00936*
X02109*
X02109*
X02108*
X02108*
X02108Y00936*
X02108*
X02107Y00936*
X02107Y00936*
X02106Y00936*
X02105Y00936*
X02104Y00936*
X02103Y00935*
X02103*
X02103Y00935*
X02103Y00935*
X02103Y00935*
X02102Y00935*
X02102Y00935*
X02101Y00934*
X02101Y00934*
X021Y00933*
X02099Y00932*
Y00932*
X02099Y00932*
X02099Y00932*
X02099Y00932*
X02099Y00932*
X02099Y00932*
X02099Y00931*
X02099Y0093*
X02098Y0093*
X02098Y00929*
X02098Y00928*
Y00928*
X02098Y00928*
Y00927*
X02098Y00927*
X02099Y00926*
X02099Y00926*
X02099Y00925*
X02099Y00924*
X021Y00924*
X021Y00923*
X021Y00923*
X021Y00923*
X021Y00923*
X021Y00923*
X021Y00923*
X02101Y00923*
X02101Y00923*
X02101Y00922*
X02101Y00922*
X02102Y00922*
X02102Y00922*
X02103Y00921*
X02103Y00921*
X02104Y00921*
X02104Y00921*
X02105Y00921*
X02104Y00917*
X02104*
X02104Y00917*
X02103Y00917*
X02103Y00918*
X02103Y00918*
X02102Y00918*
X02102Y00918*
X02102Y00918*
X02101Y00919*
X021Y00919*
X02099Y0092*
X02098Y0092*
X02098Y00921*
X02098Y00921*
X02098Y00921*
X02098Y00921*
X02097Y00921*
X02097Y00922*
X02097Y00922*
X02097Y00922*
X02097Y00923*
X02097Y00923*
X02096Y00923*
X02096Y00924*
X02096Y00925*
X02096Y00925*
X02096Y00926*
X02096Y00926*
X02096Y00927*
X02095Y00928*
Y00928*
X02096Y00929*
Y00929*
X02096Y00929*
X02096Y0093*
X02096Y0093*
X02096Y00931*
X02096Y00932*
X02097Y00933*
X02097Y00934*
X02097Y00934*
X02097Y00934*
X02097Y00935*
X02097Y00935*
X02097Y00935*
X02098Y00935*
X02098Y00935*
X02098Y00936*
X02098Y00936*
X02099Y00936*
X02099Y00937*
X021Y00937*
X02101Y00938*
X02102Y00938*
X02102*
X02102Y00938*
X02102Y00938*
X02102Y00939*
X02103Y00939*
X02103Y00939*
X02104Y00939*
X02104Y00939*
X02104Y00939*
X02105Y00939*
X02106Y00939*
X02107Y0094*
X02109Y0094*
X02109*
X02109*
X02109*
X02109Y0094*
G37*
G36*
X02097Y00915D02*
X02097Y00915D01*
X02097Y00915*
X02098Y00915*
X02098Y00915*
X02098*
X02098Y00915*
X02098Y00915*
X02099Y00914*
X02099Y00914*
X021Y00914*
X021Y00913*
X02101Y00913*
X02101Y00913*
X02101*
X02101Y00913*
X02102Y00912*
X02102Y00912*
X02103Y00912*
X02103Y00911*
X02104Y0091*
X02104Y00909*
X02105Y00909*
X02105Y00908*
X02105Y00908*
X02106Y00908*
X02106Y00908*
X02106Y00908*
X02106Y00907*
X02107Y00907*
X02107Y00906*
X02108Y00905*
X02109Y00904*
X02109Y00904*
X0211Y00904*
X0211Y00903*
X02111Y00903*
X02111*
X02111Y00903*
X02111Y00903*
X02111Y00903*
X02111Y00902*
X02112Y00902*
X02112Y00902*
X02113Y00902*
X02114Y00902*
X02114Y00901*
X02114*
X02114*
X02115Y00902*
X02115Y00902*
X02115Y00902*
X02116Y00902*
X02116Y00902*
X02117Y00902*
X02117Y00903*
X02117Y00903*
X02118Y00903*
X02118Y00903*
X02118Y00904*
X02118Y00904*
X02118Y00905*
X02119Y00906*
X02119Y00906*
Y00906*
X02119Y00907*
X02119Y00907*
X02118Y00908*
X02118Y00908*
X02118Y00909*
X02118Y00909*
X02117Y0091*
X02117Y0091*
X02117Y0091*
X02117Y0091*
X02116Y00911*
X02116Y00911*
X02115Y00911*
X02114Y00911*
X02114Y00911*
X02114Y00914*
X02114*
X02114Y00914*
X02114*
X02115Y00914*
X02115Y00914*
X02115Y00914*
X02116Y00914*
X02116Y00914*
X02117Y00914*
X02118Y00913*
X02118Y00913*
X02119Y00913*
X02119Y00912*
X02119Y00912*
X02119Y00912*
X02119Y00912*
X0212Y00912*
X0212Y00912*
X0212Y00911*
X0212Y00911*
X0212Y00911*
X0212Y0091*
X0212Y0091*
X02121Y0091*
X02121Y00909*
X02121Y00909*
X02121Y00908*
X02121Y00907*
X02121Y00907*
X02121Y00906*
Y00906*
X02121Y00906*
X02121Y00905*
X02121Y00905*
X02121Y00905*
X02121Y00904*
X02121Y00903*
X0212Y00902*
X0212Y00902*
X0212Y00901*
X0212Y00901*
X02119Y009*
X02119Y009*
X02119Y009*
X02119Y009*
X02119Y009*
X02119Y009*
X02118Y009*
X02118Y009*
X02118Y00899*
X02117Y00899*
X02116Y00899*
X02116Y00898*
X02115Y00898*
X02115Y00898*
X02114Y00898*
X02114*
X02114*
X02114Y00898*
X02113Y00898*
X02113Y00898*
X02112Y00899*
X02112Y00899*
X02111Y00899*
X02111Y00899*
X02111Y00899*
X02111Y00899*
X0211Y00899*
X0211Y009*
X02109Y009*
X02109Y00901*
X02108Y00901*
X02108Y00901*
X02108Y00901*
X02108Y00901*
X02107Y00902*
X02107Y00902*
X02107Y00902*
X02107Y00902*
X02106Y00903*
X02106Y00903*
X02106Y00904*
X02105Y00904*
X02105Y00905*
X02104Y00905*
X02104Y00906*
X02104Y00906*
X02104Y00906*
X02104Y00906*
X02103Y00906*
X02103Y00906*
X02103Y00907*
X02102Y00907*
X02102Y00908*
X02101Y00908*
X02101Y00909*
X02101Y00909*
X02101Y00909*
X02101Y00909*
X021Y0091*
X021Y0091*
X021Y0091*
X021Y0091*
X021Y0091*
X02099Y00911*
Y00898*
X02096*
Y00915*
X02096*
X02096*
X02096*
X02097Y00915*
G37*
%LNpcb1_(1)-2*%
%LPC*%
G36*
X01286Y00337D02*
X01286D01*
X01286*
X01285*
X01285Y00337*
X01285*
X01284Y00337*
X01284Y00337*
X01284Y00337*
X01283Y00337*
X01282Y00337*
X01281Y00336*
X0128Y00336*
X0128Y00336*
X0128*
X0128Y00336*
X01279Y00336*
X01279Y00336*
X01279Y00335*
X01279Y00335*
X01278Y00335*
X01278Y00334*
X01277Y00333*
X01277Y00333*
X01277Y00333*
X01277Y00332*
X01277Y00332*
X01277Y00332*
X01276Y00331*
X01276Y0033*
X01276Y0033*
Y00329*
X01276Y00329*
Y00323*
X01296*
Y00329*
X01295Y00329*
X01295Y0033*
X01295Y00331*
X01295Y00331*
X01295Y00332*
X01295Y00332*
X01295Y00332*
X01295Y00333*
X01295Y00333*
X01295Y00333*
X01295Y00334*
X01294Y00334*
X01294Y00334*
X01294Y00335*
X01294Y00335*
X01294Y00335*
X01293Y00335*
X01293Y00335*
X01292Y00336*
X01292Y00336*
X01291Y00336*
X01291Y00337*
X01291*
X0129Y00337*
X0129Y00337*
X0129Y00337*
X0129Y00337*
X0129Y00337*
X0129Y00337*
X01289Y00337*
X01289Y00337*
X01288Y00337*
X01287Y00337*
X01286Y00337*
G37*
G36*
X01522Y00337D02*
X01522D01*
X01522*
X01521*
X01521Y00337*
X01521*
X0152Y00337*
X0152Y00337*
X0152Y00337*
X01519Y00337*
X01518Y00336*
X01517Y00336*
X01516Y00336*
X01516Y00336*
X01516*
X01516Y00336*
X01515Y00335*
X01515Y00335*
X01515Y00335*
X01515Y00335*
X01514Y00334*
X01514Y00334*
X01513Y00333*
X01513Y00332*
X01513Y00332*
X01513Y00332*
X01513Y00332*
X01513Y00331*
X01512Y00331*
X01512Y0033*
X01512Y0033*
Y00329*
X01512Y00329*
Y00323*
X01532*
Y00329*
X01531Y00329*
X01531Y0033*
X01531Y0033*
X01531Y00331*
X01531Y00332*
X01531Y00332*
X01531Y00332*
X01531Y00332*
X01531Y00333*
X01531Y00333*
X01531Y00333*
X0153Y00334*
X0153Y00334*
X0153Y00334*
X0153Y00334*
X0153Y00335*
X01529Y00335*
X01529Y00335*
X01528Y00335*
X01528Y00336*
X01527Y00336*
X01527Y00336*
X01527*
X01526Y00336*
X01526Y00336*
X01526Y00336*
X01526Y00336*
X01526Y00336*
X01526Y00337*
X01525Y00337*
X01525Y00337*
X01524Y00337*
X01523Y00337*
X01522Y00337*
G37*
%LNpcb1_(1)-3*%
%LPD*%
G54D12*
X01277Y00271D02*
X0132D01*
Y00369*
X01277D02*
X0132D01*
X01277Y00271D02*
Y00369D01*
X01513Y0027D02*
X01556D01*
Y00369*
X01513D02*
X01556D01*
X01513Y0027D02*
Y00369D01*
X01018Y00347D02*
X01051D01*
Y00402*
X01018D02*
X01051D01*
X01018Y00347D02*
Y00402D01*
X02043Y0103D02*
X02134D01*
X02043Y00849D02*
Y0103D01*
Y00849D02*
X02134D01*
Y0103*
M02*