%FSTAX23Y23*%
%MOIN*%
%SFA1B1*%

%IPPOS*%
%ADD12C,0.007870*%
%ADD56C,0.003940*%
%LNpcb1_(1)-1*%
%LPD*%
G54D12*
X01281Y00286D02*
X01316D01*
Y00353*
X01281D02*
X01316D01*
X01281Y00286D02*
Y00353D01*
X01517Y00286D02*
X01552D01*
Y00353*
X01517D02*
X01552D01*
X01517Y00286D02*
Y00353D01*
X01022Y00352D02*
X01047D01*
Y00397*
X01022D02*
X01047D01*
X01022Y00352D02*
Y00397D01*
X02057Y01003D02*
X0212D01*
X02057Y00877D02*
Y01003D01*
Y00877D02*
X0212D01*
Y01003*
G54D56*
X00054Y00713D02*
Y00752D01*
Y01077D02*
Y01117D01*
X00016Y00713D02*
X00054D01*
X00016Y01117D02*
X00054D01*
X00016Y00713D02*
Y01117D01*
X00054Y01077D02*
X00477D01*
Y00752D02*
Y01077D01*
X00054Y00752D02*
X00477D01*
X01657Y00856D02*
Y00978D01*
X01586Y00856D02*
Y00978D01*
Y00856D02*
X01657D01*
X01586Y00978D02*
X01657D01*
X02566Y00648D02*
X02676D01*
X02566Y00362D02*
X02676D01*
Y00648*
X02531Y00421D02*
Y00588D01*
X02566Y00362D02*
Y00421D01*
X02531D02*
X02566D01*
X02531Y00588D02*
X02566D01*
Y00648*
X02562Y01067D02*
X02672D01*
X02562Y00782D02*
X02672D01*
Y01067*
X02527Y00841D02*
Y01008D01*
X02562Y00782D02*
Y00841D01*
X02527D02*
X02562D01*
X02527Y01008D02*
X02562D01*
Y01067*
X00699Y00838D02*
X0087D01*
X00699Y00941D02*
X0087D01*
Y00838D02*
Y00941D01*
X00699Y00838D02*
Y00941D01*
X01764Y00281D02*
X01833D01*
X01764Y00318D02*
X01833D01*
Y00281D02*
Y00318D01*
X01764Y00281D02*
Y00318D01*
X02234Y00425D02*
X02334D01*
Y00625*
X02234D02*
X02334D01*
X02234Y00425D02*
Y00625D01*
X01099Y00665D02*
Y00965D01*
X00999Y00665D02*
Y00965D01*
X01099*
X00999Y00665D02*
X01099D01*
X02284Y008D02*
X02384D01*
Y01*
X02284D02*
X02384D01*
X02284Y008D02*
Y01D01*
X01017Y00532D02*
X01055D01*
X01017Y00601D02*
X01055D01*
X01017Y00532D02*
Y00601D01*
X01055Y00532D02*
Y00601D01*
X01981Y00519D02*
X02018D01*
X01981Y00588D02*
X02018D01*
X01981Y00519D02*
Y00588D01*
X02018Y00519D02*
Y00588D01*
X00723Y00104D02*
X00894D01*
X00723Y00206D02*
X00894D01*
Y00104D02*
Y00206D01*
X00723Y00104D02*
Y00206D01*
X00018Y00273D02*
X00585D01*
X00018D02*
Y00627D01*
X00585*
Y00273D02*
Y00627D01*
M02*