G04*
G04 #@! TF.GenerationSoftware,Altium Limited,Altium Designer,19.1.6 (110)*
G04*
G04 Layer_Color=16711935*
%FSLAX25Y25*%
%MOIN*%
G70*
G01*
G75*
%ADD12C,0.00787*%
%ADD56C,0.00394*%
D12*
X128128Y28684D02*
X131672D01*
Y35376D01*
X128128D02*
X131672D01*
X128128Y28684D02*
Y35376D01*
X151728Y28654D02*
X155272D01*
Y35346D01*
X151728D02*
X155272D01*
X151728Y28654D02*
Y35346D01*
X102220Y35236D02*
X104779D01*
Y39764D01*
X102220D02*
X104779D01*
X102220Y35236D02*
Y39764D01*
X205750Y100314D02*
X212050D01*
X205750Y87716D02*
Y100314D01*
Y87716D02*
X212050D01*
Y100314D01*
D56*
X5433Y71362D02*
Y75299D01*
Y107779D02*
Y111716D01*
X1693Y71362D02*
X5433D01*
X1693Y111716D02*
X5433D01*
X1693Y71362D02*
Y111716D01*
X5433Y107779D02*
X47756Y107779D01*
Y75299D02*
Y107779D01*
X5433Y75299D02*
X47756Y75299D01*
X165768Y85657D02*
Y97862D01*
X158681Y85657D02*
Y97862D01*
Y85657D02*
X165768D01*
X158681Y97862D02*
X165768D01*
X256660Y64802D02*
X267683D01*
X256660Y36258D02*
X267683D01*
Y64802D01*
X253117Y42164D02*
Y58896D01*
X256660Y36258D02*
Y42164D01*
X253117D02*
X256660D01*
X253117Y58896D02*
X256660D01*
Y64802D01*
X256260Y106772D02*
X267283D01*
X256260Y78228D02*
X267283D01*
Y106772D01*
X252717Y84134D02*
Y100866D01*
X256260Y78228D02*
Y84134D01*
X252717D02*
X256260D01*
X252717Y100866D02*
X256260D01*
Y106772D01*
X69996Y83882D02*
X87004D01*
X69996Y94118D02*
X87004D01*
Y83882D02*
Y94118D01*
X69996Y83882D02*
Y94118D01*
X176496Y28130D02*
X183386D01*
X176496Y31870D02*
X183386D01*
Y28130D02*
Y31870D01*
X176496Y28130D02*
Y31870D01*
X223400Y42530D02*
X233400D01*
Y62530D01*
X223400D02*
X233400D01*
X223400Y42530D02*
Y62530D01*
X109900Y66530D02*
Y96530D01*
X99900Y66530D02*
Y96530D01*
X109900D01*
X99900Y66530D02*
X109900D01*
X228400Y80030D02*
X238400D01*
Y100030D01*
X228400D02*
X238400D01*
X228400Y80030D02*
Y100030D01*
X101798Y53231D02*
X105538D01*
X101798Y60121D02*
X105538D01*
X101798Y53231D02*
Y60121D01*
X105538Y53231D02*
Y60121D01*
X198130Y51996D02*
X201870D01*
X198130Y58886D02*
X201870D01*
X198130Y51996D02*
Y58886D01*
X201870Y51996D02*
Y58886D01*
X72396Y10412D02*
X89404D01*
X72396Y20648D02*
X89404D01*
Y10412D02*
Y20648D01*
X72396Y10412D02*
Y20648D01*
X1873Y27313D02*
X58566D01*
X1873D02*
Y62746D01*
X58566D01*
Y27313D02*
Y62746D01*
M02*
