%FSTAX23Y23*%
%MOIN*%
%SFA1B1*%

%IPPOS*%
%ADD14R,0.067060X0.021780*%
%ADD15R,0.047370X0.054460*%
%ADD16R,0.059180X0.035560*%
%ADD17R,0.070990X0.039890*%
%ADD18R,0.126110X0.090680*%
%ADD19R,0.086740X0.086740*%
%ADD20R,0.031500X0.031500*%
%ADD21R,0.019680X0.015750*%
%ADD22R,0.037530X0.041470*%
%ADD23R,0.071110X0.051360*%
%ADD24R,0.049340X0.043430*%
%ADD25R,0.041470X0.037530*%
%ADD26C,0.068000*%
%ADD27R,0.070990X0.070990*%
%ADD28C,0.070990*%
%ADD29R,0.145800X0.067060*%
%ADD30R,0.067060X0.145800*%
%ADD31R,0.067060X0.165480*%
%ADD32C,0.039500*%
%ADD33C,0.009000*%
%LNpcb1_(1)-1*%
%LPD*%
G54D14*
X00517Y01023D03*
Y01003D03*
Y00983D03*
Y00964D03*
Y00944D03*
Y00924D03*
Y00905D03*
Y00885D03*
Y00865D03*
Y00846D03*
Y00826D03*
Y00806D03*
G54D15*
X00527Y00769D03*
Y0106D03*
G54D16*
X01669Y0088D03*
Y00917D03*
Y00955D03*
X01575D03*
Y0088D03*
G54D17*
X02522Y00529D03*
Y0048D03*
X02518Y00949D03*
Y009D03*
G54D18*
X02636Y0063D03*
Y0038D03*
X02632Y0105D03*
Y008D03*
G54D19*
X00863Y0089D03*
X00706D03*
X00887Y00155D03*
X0073D03*
G54D20*
X01299Y00349D03*
Y0029D03*
X01535Y00349D03*
Y0029D03*
G54D21*
X01035Y0039D03*
Y00359D03*
G54D22*
X01825Y003D03*
X01773D03*
G54D23*
X02089Y00885D03*
Y00995D03*
G54D24*
X01036Y00538D03*
Y00595D03*
G54D25*
X02Y00528D03*
Y0058D03*
G54D26*
X0267Y0123D03*
Y0005D03*
X0005D03*
Y0123D03*
G54D27*
X02284Y00475D03*
X01049Y00915D03*
X02334Y0085D03*
G54D28*
X02284Y00575D03*
X01049Y00815D03*
Y00715D03*
X02334Y0095D03*
G54D29*
X0044Y00265D03*
G54D30*
X00321Y0045D03*
G54D31*
X00558Y0045D03*
G54D32*
X01375Y00475D03*
Y00895D03*
G54D33*
X00557Y01023D03*
X00858Y00265D03*
X01874Y0058D03*
X0055Y0089D03*
M02*