G04*
G04 #@! TF.GenerationSoftware,Altium Limited,Altium Designer,19.1.6 (110)*
G04*
G04 Layer_Physical_Order=1*
G04 Layer_Color=255*
%FSLAX25Y25*%
%MOIN*%
G70*
G01*
G75*
%ADD20R,0.03150X0.03150*%
%ADD21R,0.01968X0.01575*%
%ADD23R,0.07111X0.05136*%
%ADD34R,0.05906X0.01378*%
%ADD35R,0.03937X0.04646*%
%ADD36R,0.05118X0.02756*%
%ADD37R,0.06299X0.03189*%
%ADD38R,0.11811X0.08268*%
%ADD39R,0.07874X0.07874*%
%ADD40R,0.02953X0.03347*%
%ADD41R,0.04134X0.03543*%
%ADD42R,0.03347X0.02953*%
%ADD43C,0.00050*%
%ADD44C,0.00591*%
%ADD45C,0.00025*%
%ADD46C,0.06000*%
%ADD47R,0.06299X0.06299*%
%ADD48C,0.06299*%
%ADD49R,0.13780X0.05906*%
%ADD50R,0.05906X0.13780*%
%ADD51R,0.05906X0.15748*%
%ADD52C,0.03150*%
%ADD53C,0.00100*%
D20*
X129900Y34983D02*
D03*
Y29077D02*
D03*
X153500Y34953D02*
D03*
Y29047D02*
D03*
D21*
X103500Y39075D02*
D03*
Y35925D02*
D03*
D23*
X208900Y88500D02*
D03*
Y99530D02*
D03*
D34*
X51772Y102327D02*
D03*
Y100358D02*
D03*
Y98390D02*
D03*
Y96421D02*
D03*
Y94453D02*
D03*
Y92484D02*
D03*
Y90516D02*
D03*
Y88547D02*
D03*
Y86579D02*
D03*
Y84610D02*
D03*
Y82642D02*
D03*
Y80673D02*
D03*
D35*
X52756Y76972D02*
D03*
Y106028D02*
D03*
D36*
X166949Y88020D02*
D03*
Y91760D02*
D03*
Y95500D02*
D03*
X157500D02*
D03*
Y88020D02*
D03*
D37*
X252250Y52991D02*
D03*
Y48069D02*
D03*
X251850Y94961D02*
D03*
Y90039D02*
D03*
D38*
X263668Y63030D02*
D03*
Y38030D02*
D03*
X263268Y105000D02*
D03*
Y80000D02*
D03*
D39*
X86374Y89000D02*
D03*
X70626D02*
D03*
X88774Y15530D02*
D03*
X73026D02*
D03*
D40*
X182500Y30000D02*
D03*
X177382D02*
D03*
D41*
X103668Y53821D02*
D03*
Y59530D02*
D03*
D42*
X200000Y52882D02*
D03*
Y58000D02*
D03*
D43*
X199900Y52971D02*
X200971D01*
X252769Y48069D02*
X255500Y50800D01*
X252230Y47530D02*
X252510Y47810D01*
X252769Y48069D01*
X32189Y38337D02*
Y45030D01*
X48600Y80873D02*
X48800Y80673D01*
X48600Y80873D02*
Y102127D01*
X252250Y48069D02*
X252769D01*
X48800Y80673D02*
X51772D01*
X255500Y50800D02*
Y62930D01*
D44*
X153500Y29530D02*
X177841D01*
X129930Y29047D02*
X153500D01*
X129900Y29077D02*
X129930Y29047D01*
X153500Y29530D02*
Y30030D01*
X129900Y34983D02*
X130430Y34453D01*
X128958Y35925D02*
X129900Y34983D01*
X103500Y35925D02*
X128958D01*
X215500Y67500D02*
Y87000D01*
Y60430D02*
Y67500D01*
Y60430D02*
X222959Y52971D01*
X51772Y102327D02*
X55700D01*
X208900Y88500D02*
X214000D01*
X103668Y44368D02*
Y53821D01*
X103500Y39075D02*
X103668Y44368D01*
Y53821D02*
X130195D01*
X136668Y47349D01*
X32189Y45030D02*
Y78462D01*
X34400Y80673D01*
X48800D01*
X48600Y102127D02*
X51772Y102327D01*
X233400Y85030D02*
X255500Y62930D01*
X233400Y85030D02*
X238409Y90039D01*
X186200Y91760D02*
X189460Y88500D01*
X166949Y91760D02*
X186200D01*
X88774Y15530D02*
X103230D01*
X103500Y15800D01*
X130430Y34453D02*
X153500D01*
X161100Y42053D01*
Y94800D01*
X86374Y89000D02*
X92874Y95500D01*
X228400Y57530D02*
Y90030D01*
X233400Y95030D01*
X228900Y99530D02*
X233400Y95030D01*
X241369Y94961D02*
X249350D01*
X201900Y99530D02*
X208900D01*
X197870Y95500D02*
X201900Y99530D01*
X55811Y32745D02*
X73026Y15530D01*
X55811Y32745D02*
Y45030D01*
X136668Y89711D02*
X146200D01*
X147892Y88020D01*
X103668Y59530D02*
Y64900D01*
X104900Y66132D01*
Y71530D01*
X214000Y88500D02*
X215500Y87000D01*
X200971Y52971D02*
X222959D01*
X85826Y26526D02*
X103668Y44368D01*
X32189Y38337D02*
X44000Y26526D01*
X222959Y52971D02*
X228400Y47530D01*
X252230D01*
X238409Y90039D02*
X249350D01*
X189460Y88500D02*
X208900D01*
X92874Y95500D02*
X157500D01*
X160400D01*
X161100Y94800D01*
X103500Y15800D02*
Y35925D01*
X228400Y57530D02*
X232939Y52991D01*
X252250D01*
X208900Y99530D02*
X228900D01*
X233400Y95030D02*
X241300D01*
X166949Y95500D02*
X197870D01*
X187411Y58089D02*
X199900D01*
X147892Y88020D02*
X157500D01*
X166949D02*
X182739D01*
X182959Y29530D02*
Y87800D01*
X55059Y89000D02*
X70626D01*
D45*
X241300Y95030D02*
X241369Y94961D01*
X182739Y88020D02*
X182959Y87800D01*
D46*
X267000Y123000D02*
D03*
Y5000D02*
D03*
X5000D02*
D03*
Y123000D02*
D03*
D47*
X228400Y47530D02*
D03*
X104900Y91530D02*
D03*
X233400Y85030D02*
D03*
D48*
X228400Y57530D02*
D03*
X104900Y81530D02*
D03*
Y71530D02*
D03*
X233400Y95030D02*
D03*
D49*
X44000Y26526D02*
D03*
D50*
X32189Y45030D02*
D03*
D51*
X55811D02*
D03*
D52*
X137500Y47500D02*
D03*
Y89500D02*
D03*
D53*
X55700Y102327D02*
D03*
X85826Y26526D02*
D03*
X187411Y58089D02*
D03*
X55059Y89000D02*
D03*
M02*
