G04*
G04 #@! TF.GenerationSoftware,Altium Limited,Altium Designer,19.1.6 (110)*
G04*
G04 Layer_Color=16711935*
%FSLAX25Y25*%
%MOIN*%
G70*
G01*
G75*
%ADD12C,0.00787*%
G36*
X129212Y36092D02*
X129241Y36089D01*
X129274Y36081D01*
X129310Y36074D01*
X129350Y36067D01*
X129438Y36038D01*
X129485Y36016D01*
X129529Y35994D01*
X129576Y35965D01*
X129623Y35932D01*
X129671Y35896D01*
X129714Y35852D01*
X129718Y35848D01*
X129725Y35841D01*
X129736Y35827D01*
X129751Y35808D01*
X129769Y35787D01*
X129787Y35757D01*
X129809Y35725D01*
X129827Y35685D01*
X129849Y35645D01*
X129871Y35597D01*
X129889Y35550D01*
X129907Y35495D01*
X129922Y35437D01*
X129933Y35375D01*
X129940Y35313D01*
X129944Y35244D01*
Y35211D01*
X129940Y35190D01*
X129936Y35160D01*
X129933Y35128D01*
X129926Y35091D01*
X129918Y35051D01*
X129896Y34964D01*
X129860Y34873D01*
X129838Y34826D01*
X129813Y34782D01*
X129780Y34738D01*
X129747Y34694D01*
X129744Y34691D01*
X129736Y34684D01*
X129725Y34673D01*
X129711Y34662D01*
X129692Y34644D01*
X129667Y34625D01*
X129642Y34604D01*
X129609Y34582D01*
X129572Y34560D01*
X129536Y34538D01*
X129449Y34498D01*
X129347Y34465D01*
X129292Y34454D01*
X129234Y34447D01*
X129194Y34756D01*
X129198D01*
X129205Y34760D01*
X129219Y34764D01*
X129237Y34767D01*
X129259Y34771D01*
X129285Y34778D01*
X129339Y34796D01*
X129405Y34822D01*
X129467Y34855D01*
X129525Y34891D01*
X129576Y34935D01*
X129580Y34942D01*
X129594Y34957D01*
X129612Y34986D01*
X129631Y35022D01*
X129653Y35066D01*
X129671Y35120D01*
X129685Y35182D01*
X129689Y35248D01*
Y35270D01*
X129685Y35284D01*
X129682Y35324D01*
X129671Y35375D01*
X129653Y35433D01*
X129627Y35495D01*
X129591Y35557D01*
X129540Y35615D01*
X129532Y35623D01*
X129510Y35641D01*
X129478Y35663D01*
X129434Y35692D01*
X129379Y35721D01*
X129318Y35743D01*
X129245Y35761D01*
X129165Y35768D01*
X129161D01*
X129154D01*
X129143D01*
X129128Y35765D01*
X129088Y35761D01*
X129041Y35750D01*
X128983Y35735D01*
X128925Y35710D01*
X128866Y35674D01*
X128812Y35626D01*
X128804Y35619D01*
X128790Y35601D01*
X128768Y35572D01*
X128743Y35532D01*
X128717Y35481D01*
X128695Y35419D01*
X128681Y35350D01*
X128673Y35273D01*
Y35241D01*
X128677Y35215D01*
X128681Y35182D01*
X128688Y35146D01*
X128695Y35102D01*
X128706Y35055D01*
X128433Y35091D01*
Y35109D01*
X128437Y35124D01*
Y35171D01*
X128429Y35211D01*
X128422Y35259D01*
X128411Y35313D01*
X128393Y35375D01*
X128368Y35433D01*
X128335Y35495D01*
Y35499D01*
X128331Y35503D01*
X128317Y35521D01*
X128291Y35546D01*
X128258Y35575D01*
X128211Y35605D01*
X128156Y35630D01*
X128095Y35648D01*
X128058Y35655D01*
X128018D01*
X128015D01*
X128011D01*
X127989D01*
X127960Y35648D01*
X127920Y35641D01*
X127876Y35626D01*
X127829Y35608D01*
X127781Y35579D01*
X127738Y35539D01*
X127734Y35535D01*
X127720Y35517D01*
X127701Y35492D01*
X127680Y35459D01*
X127661Y35415D01*
X127643Y35364D01*
X127629Y35306D01*
X127625Y35241D01*
Y35211D01*
X127632Y35179D01*
X127640Y35135D01*
X127654Y35088D01*
X127672Y35040D01*
X127701Y34989D01*
X127738Y34942D01*
X127742Y34938D01*
X127760Y34924D01*
X127785Y34902D01*
X127822Y34876D01*
X127869Y34851D01*
X127927Y34826D01*
X127996Y34804D01*
X128076Y34789D01*
X128022Y34480D01*
X128018D01*
X128007Y34483D01*
X127993Y34487D01*
X127971Y34491D01*
X127945Y34498D01*
X127916Y34509D01*
X127847Y34531D01*
X127767Y34567D01*
X127687Y34611D01*
X127610Y34665D01*
X127541Y34734D01*
X127538Y34738D01*
X127534Y34745D01*
X127527Y34756D01*
X127516Y34771D01*
X127501Y34789D01*
X127487Y34815D01*
X127472Y34840D01*
X127454Y34873D01*
X127425Y34946D01*
X127396Y35029D01*
X127377Y35128D01*
X127370Y35179D01*
Y35270D01*
X127374Y35310D01*
X127381Y35357D01*
X127392Y35415D01*
X127410Y35481D01*
X127432Y35546D01*
X127461Y35612D01*
Y35615D01*
X127465Y35619D01*
X127476Y35641D01*
X127498Y35674D01*
X127523Y35710D01*
X127559Y35754D01*
X127600Y35797D01*
X127647Y35841D01*
X127701Y35877D01*
X127709Y35881D01*
X127727Y35892D01*
X127760Y35907D01*
X127800Y35925D01*
X127847Y35943D01*
X127902Y35958D01*
X127963Y35969D01*
X128025Y35972D01*
X128033D01*
X128054D01*
X128084Y35969D01*
X128124Y35961D01*
X128171Y35950D01*
X128222Y35932D01*
X128273Y35910D01*
X128324Y35881D01*
X128331Y35877D01*
X128346Y35867D01*
X128371Y35845D01*
X128400Y35816D01*
X128433Y35779D01*
X128470Y35735D01*
X128502Y35685D01*
X128535Y35623D01*
Y35626D01*
X128539Y35634D01*
X128542Y35645D01*
X128546Y35659D01*
X128560Y35699D01*
X128582Y35750D01*
X128611Y35808D01*
X128648Y35867D01*
X128695Y35921D01*
X128750Y35972D01*
X128757Y35976D01*
X128779Y35990D01*
X128815Y36012D01*
X128863Y36034D01*
X128921Y36056D01*
X128990Y36078D01*
X129070Y36092D01*
X129157Y36096D01*
X129161D01*
X129172D01*
X129190D01*
X129212Y36092D01*
D02*
G37*
G36*
X128702Y34108D02*
X128732D01*
X128801Y34105D01*
X128881Y34094D01*
X128964Y34083D01*
X129052Y34065D01*
X129139Y34043D01*
X129143D01*
X129150Y34039D01*
X129161Y34036D01*
X129176Y34032D01*
X129216Y34017D01*
X129267Y33996D01*
X129325Y33974D01*
X129383Y33945D01*
X129445Y33908D01*
X129503Y33872D01*
X129510Y33868D01*
X129529Y33854D01*
X129554Y33832D01*
X129587Y33803D01*
X129623Y33770D01*
X129660Y33730D01*
X129700Y33690D01*
X129733Y33643D01*
X129736Y33635D01*
X129747Y33621D01*
X129762Y33595D01*
X129780Y33559D01*
X129802Y33515D01*
X129820Y33464D01*
X129842Y33406D01*
X129860Y33340D01*
Y33333D01*
X129864Y33322D01*
X129867Y33311D01*
X129871Y33275D01*
X129878Y33224D01*
X129885Y33166D01*
X129893Y33097D01*
X129896Y33020D01*
X129900Y32936D01*
Y32030D01*
X127381D01*
Y32998D01*
X127385Y33064D01*
X127388Y33137D01*
X127396Y33209D01*
X127407Y33282D01*
X127418Y33344D01*
Y33348D01*
X127421Y33355D01*
Y33366D01*
X127428Y33380D01*
X127439Y33421D01*
X127458Y33471D01*
X127483Y33530D01*
X127516Y33592D01*
X127552Y33653D01*
X127600Y33712D01*
X127603Y33715D01*
X127607Y33719D01*
X127618Y33730D01*
X127629Y33744D01*
X127665Y33781D01*
X127716Y33825D01*
X127778Y33872D01*
X127851Y33923D01*
X127934Y33970D01*
X128029Y34010D01*
X128033D01*
X128040Y34014D01*
X128054Y34021D01*
X128076Y34025D01*
X128102Y34036D01*
X128131Y34043D01*
X128164Y34050D01*
X128204Y34061D01*
X128244Y34072D01*
X128291Y34079D01*
X128393Y34097D01*
X128506Y34108D01*
X128630Y34112D01*
X128633D01*
X128641D01*
X128659D01*
X128677D01*
X128702Y34108D01*
D02*
G37*
G36*
X153500Y34370D02*
X153496D01*
X153482D01*
X153460D01*
X153431Y34373D01*
X153398Y34377D01*
X153362Y34384D01*
X153325Y34391D01*
X153285Y34406D01*
X153282D01*
X153278Y34410D01*
X153256Y34417D01*
X153223Y34431D01*
X153180Y34453D01*
X153129Y34482D01*
X153070Y34519D01*
X153012Y34559D01*
X152950Y34610D01*
X152947D01*
X152943Y34617D01*
X152921Y34635D01*
X152889Y34668D01*
X152841Y34715D01*
X152787Y34770D01*
X152721Y34839D01*
X152648Y34923D01*
X152572Y35014D01*
X152568Y35018D01*
X152557Y35032D01*
X152539Y35054D01*
X152517Y35079D01*
X152488Y35112D01*
X152455Y35152D01*
X152419Y35192D01*
X152379Y35240D01*
X152292Y35331D01*
X152204Y35422D01*
X152161Y35465D01*
X152117Y35505D01*
X152077Y35542D01*
X152037Y35571D01*
X152033D01*
X152029Y35578D01*
X152018Y35585D01*
X152004Y35593D01*
X151964Y35618D01*
X151917Y35647D01*
X151858Y35673D01*
X151796Y35698D01*
X151727Y35713D01*
X151662Y35720D01*
X151658D01*
X151655D01*
X151633Y35716D01*
X151596Y35713D01*
X151556Y35702D01*
X151505Y35687D01*
X151454Y35662D01*
X151403Y35629D01*
X151352Y35585D01*
X151345Y35578D01*
X151331Y35560D01*
X151312Y35534D01*
X151287Y35494D01*
X151265Y35443D01*
X151243Y35385D01*
X151229Y35316D01*
X151225Y35240D01*
Y35218D01*
X151229Y35203D01*
X151232Y35160D01*
X151243Y35109D01*
X151258Y35054D01*
X151283Y34992D01*
X151316Y34934D01*
X151360Y34879D01*
X151367Y34872D01*
X151385Y34857D01*
X151414Y34836D01*
X151458Y34814D01*
X151509Y34788D01*
X151574Y34766D01*
X151647Y34752D01*
X151731Y34745D01*
X151698Y34428D01*
X151695D01*
X151684Y34431D01*
X151665D01*
X151640Y34435D01*
X151611Y34442D01*
X151578Y34450D01*
X151538Y34461D01*
X151498Y34472D01*
X151411Y34501D01*
X151323Y34544D01*
X151280Y34570D01*
X151236Y34603D01*
X151196Y34635D01*
X151160Y34672D01*
X151156Y34675D01*
X151152Y34683D01*
X151141Y34694D01*
X151130Y34712D01*
X151116Y34734D01*
X151101Y34759D01*
X151083Y34788D01*
X151065Y34825D01*
X151047Y34865D01*
X151028Y34908D01*
X151014Y34956D01*
X150999Y35007D01*
X150988Y35061D01*
X150978Y35120D01*
X150974Y35181D01*
X150970Y35247D01*
Y35283D01*
X150974Y35309D01*
X150978Y35338D01*
X150981Y35374D01*
X150988Y35414D01*
X150996Y35454D01*
X151021Y35549D01*
X151058Y35644D01*
X151079Y35691D01*
X151105Y35738D01*
X151138Y35782D01*
X151174Y35822D01*
X151178Y35826D01*
X151181Y35833D01*
X151196Y35840D01*
X151210Y35855D01*
X151229Y35873D01*
X151254Y35891D01*
X151280Y35909D01*
X151312Y35931D01*
X151382Y35968D01*
X151469Y36004D01*
X151513Y36019D01*
X151564Y36026D01*
X151614Y36033D01*
X151669Y36037D01*
X151676D01*
X151695D01*
X151724Y36033D01*
X151764Y36029D01*
X151807Y36022D01*
X151858Y36008D01*
X151913Y35993D01*
X151968Y35971D01*
X151975Y35968D01*
X151993Y35960D01*
X152022Y35946D01*
X152062Y35924D01*
X152106Y35895D01*
X152161Y35858D01*
X152215Y35815D01*
X152277Y35764D01*
X152284Y35756D01*
X152306Y35738D01*
X152324Y35720D01*
X152342Y35702D01*
X152364Y35680D01*
X152393Y35651D01*
X152423Y35622D01*
X152455Y35585D01*
X152492Y35549D01*
X152532Y35505D01*
X152572Y35458D01*
X152619Y35407D01*
X152666Y35349D01*
X152717Y35291D01*
X152721Y35287D01*
X152728Y35280D01*
X152739Y35265D01*
X152754Y35247D01*
X152776Y35225D01*
X152797Y35200D01*
X152845Y35141D01*
X152899Y35079D01*
X152954Y35021D01*
X153001Y34970D01*
X153019Y34948D01*
X153038Y34930D01*
X153041Y34927D01*
X153052Y34916D01*
X153067Y34901D01*
X153089Y34883D01*
X153114Y34865D01*
X153140Y34843D01*
X153201Y34799D01*
Y36040D01*
X153500D01*
Y34370D01*
D02*
G37*
G36*
X152302Y34078D02*
X152332D01*
X152401Y34075D01*
X152481Y34064D01*
X152565Y34053D01*
X152652Y34035D01*
X152739Y34013D01*
X152743D01*
X152750Y34009D01*
X152761Y34006D01*
X152776Y34002D01*
X152816Y33987D01*
X152867Y33966D01*
X152925Y33944D01*
X152983Y33915D01*
X153045Y33878D01*
X153103Y33842D01*
X153111Y33838D01*
X153129Y33824D01*
X153154Y33802D01*
X153187Y33773D01*
X153223Y33740D01*
X153260Y33700D01*
X153300Y33660D01*
X153333Y33612D01*
X153336Y33605D01*
X153347Y33591D01*
X153362Y33565D01*
X153380Y33529D01*
X153402Y33485D01*
X153420Y33434D01*
X153442Y33376D01*
X153460Y33310D01*
Y33303D01*
X153464Y33292D01*
X153467Y33281D01*
X153471Y33245D01*
X153478Y33194D01*
X153485Y33136D01*
X153493Y33066D01*
X153496Y32990D01*
X153500Y32906D01*
Y32000D01*
X150981D01*
Y32968D01*
X150985Y33034D01*
X150988Y33107D01*
X150996Y33179D01*
X151007Y33252D01*
X151017Y33314D01*
Y33318D01*
X151021Y33325D01*
Y33336D01*
X151028Y33350D01*
X151039Y33391D01*
X151058Y33441D01*
X151083Y33500D01*
X151116Y33562D01*
X151152Y33623D01*
X151199Y33682D01*
X151203Y33685D01*
X151207Y33689D01*
X151218Y33700D01*
X151229Y33714D01*
X151265Y33751D01*
X151316Y33795D01*
X151378Y33842D01*
X151451Y33893D01*
X151534Y33940D01*
X151629Y33980D01*
X151633D01*
X151640Y33984D01*
X151655Y33991D01*
X151676Y33995D01*
X151702Y34006D01*
X151731Y34013D01*
X151764Y34020D01*
X151804Y34031D01*
X151844Y34042D01*
X151891Y34049D01*
X151993Y34067D01*
X152106Y34078D01*
X152230Y34082D01*
X152233D01*
X152241D01*
X152259D01*
X152277D01*
X152302Y34078D01*
D02*
G37*
G36*
X102759Y40867D02*
X100790D01*
X100793Y40863D01*
X100808Y40845D01*
X100830Y40823D01*
X100855Y40787D01*
X100888Y40747D01*
X100924Y40696D01*
X100964Y40638D01*
X101004Y40572D01*
Y40569D01*
X101008Y40565D01*
X101023Y40543D01*
X101041Y40507D01*
X101063Y40463D01*
X101088Y40412D01*
X101114Y40357D01*
X101139Y40303D01*
X101161Y40248D01*
X100863D01*
Y40252D01*
X100855Y40259D01*
X100852Y40274D01*
X100841Y40292D01*
X100830Y40314D01*
X100815Y40339D01*
X100779Y40401D01*
X100739Y40474D01*
X100688Y40547D01*
X100629Y40623D01*
X100568Y40699D01*
X100564Y40703D01*
X100560Y40707D01*
X100549Y40718D01*
X100539Y40732D01*
X100502Y40765D01*
X100459Y40809D01*
X100408Y40852D01*
X100349Y40900D01*
X100291Y40940D01*
X100229Y40976D01*
Y41176D01*
X102759D01*
Y40867D01*
D02*
G37*
G36*
X101980Y39724D02*
X102002Y39717D01*
X102031Y39706D01*
X102064Y39695D01*
X102104Y39680D01*
X102147Y39662D01*
X102195Y39640D01*
X102297Y39589D01*
X102399Y39524D01*
X102450Y39484D01*
X102500Y39444D01*
X102544Y39400D01*
X102588Y39349D01*
X102592Y39345D01*
X102599Y39338D01*
X102606Y39320D01*
X102621Y39302D01*
X102639Y39273D01*
X102657Y39244D01*
X102675Y39204D01*
X102693Y39163D01*
X102715Y39116D01*
X102733Y39065D01*
X102752Y39011D01*
X102770Y38952D01*
X102784Y38890D01*
X102792Y38825D01*
X102799Y38756D01*
X102803Y38683D01*
Y38643D01*
X102799Y38614D01*
Y38581D01*
X102795Y38541D01*
X102788Y38497D01*
X102781Y38446D01*
X102763Y38341D01*
X102733Y38232D01*
X102693Y38122D01*
X102668Y38071D01*
X102639Y38021D01*
X102635Y38017D01*
X102631Y38010D01*
X102621Y37995D01*
X102606Y37980D01*
X102592Y37959D01*
X102570Y37933D01*
X102544Y37904D01*
X102515Y37875D01*
X102482Y37846D01*
X102450Y37813D01*
X102366Y37747D01*
X102268Y37686D01*
X102158Y37631D01*
X102155D01*
X102144Y37624D01*
X102126Y37620D01*
X102104Y37609D01*
X102075Y37602D01*
X102038Y37591D01*
X101998Y37576D01*
X101954Y37565D01*
X101907Y37555D01*
X101853Y37540D01*
X101740Y37522D01*
X101612Y37507D01*
X101481Y37500D01*
X101478D01*
X101463D01*
X101441D01*
X101416Y37504D01*
X101379D01*
X101343Y37507D01*
X101296Y37511D01*
X101248Y37518D01*
X101143Y37536D01*
X101026Y37562D01*
X100910Y37598D01*
X100797Y37649D01*
X100793Y37653D01*
X100782Y37657D01*
X100768Y37664D01*
X100750Y37678D01*
X100724Y37693D01*
X100695Y37711D01*
X100629Y37758D01*
X100557Y37820D01*
X100484Y37893D01*
X100411Y37977D01*
X100349Y38075D01*
X100346Y38079D01*
X100342Y38090D01*
X100335Y38104D01*
X100324Y38122D01*
X100313Y38151D01*
X100302Y38181D01*
X100287Y38217D01*
X100273Y38257D01*
X100258Y38301D01*
X100244Y38348D01*
X100222Y38450D01*
X100204Y38566D01*
X100196Y38687D01*
Y38723D01*
X100200Y38748D01*
X100204Y38781D01*
X100207Y38821D01*
X100211Y38861D01*
X100222Y38909D01*
X100244Y39007D01*
X100276Y39116D01*
X100298Y39171D01*
X100324Y39222D01*
X100356Y39273D01*
X100389Y39324D01*
X100393Y39327D01*
X100397Y39334D01*
X100408Y39349D01*
X100426Y39367D01*
X100444Y39386D01*
X100469Y39411D01*
X100498Y39436D01*
X100528Y39466D01*
X100564Y39495D01*
X100608Y39524D01*
X100651Y39557D01*
X100699Y39586D01*
X100753Y39611D01*
X100808Y39640D01*
X100866Y39662D01*
X100932Y39684D01*
X101008Y39356D01*
X101004D01*
X100997Y39353D01*
X100983Y39345D01*
X100964Y39338D01*
X100943Y39331D01*
X100914Y39320D01*
X100855Y39291D01*
X100790Y39254D01*
X100724Y39211D01*
X100662Y39156D01*
X100608Y39098D01*
X100600Y39091D01*
X100586Y39069D01*
X100568Y39032D01*
X100542Y38985D01*
X100520Y38923D01*
X100498Y38854D01*
X100484Y38770D01*
X100480Y38679D01*
Y38650D01*
X100484Y38632D01*
Y38607D01*
X100488Y38577D01*
X100498Y38508D01*
X100513Y38432D01*
X100539Y38352D01*
X100575Y38268D01*
X100622Y38192D01*
Y38188D01*
X100629Y38184D01*
X100648Y38159D01*
X100677Y38126D01*
X100721Y38086D01*
X100775Y38039D01*
X100837Y37995D01*
X100914Y37955D01*
X100997Y37918D01*
X101001D01*
X101008Y37915D01*
X101019Y37911D01*
X101037Y37908D01*
X101059Y37900D01*
X101084Y37893D01*
X101146Y37882D01*
X101219Y37868D01*
X101299Y37853D01*
X101387Y37846D01*
X101481Y37842D01*
X101485D01*
X101496D01*
X101514D01*
X101536D01*
X101561Y37846D01*
X101594D01*
X101630Y37849D01*
X101671Y37853D01*
X101758Y37864D01*
X101853Y37882D01*
X101947Y37904D01*
X102042Y37933D01*
X102046D01*
X102053Y37937D01*
X102064Y37944D01*
X102082Y37951D01*
X102126Y37973D01*
X102176Y38006D01*
X102235Y38046D01*
X102297Y38097D01*
X102351Y38155D01*
X102402Y38224D01*
Y38228D01*
X102406Y38235D01*
X102413Y38246D01*
X102420Y38261D01*
X102428Y38279D01*
X102439Y38301D01*
X102460Y38352D01*
X102482Y38417D01*
X102500Y38490D01*
X102515Y38570D01*
X102519Y38654D01*
Y38679D01*
X102515Y38701D01*
Y38727D01*
X102511Y38752D01*
X102497Y38818D01*
X102479Y38894D01*
X102450Y38971D01*
X102410Y39051D01*
X102388Y39091D01*
X102358Y39127D01*
X102355Y39131D01*
X102351Y39134D01*
X102340Y39145D01*
X102329Y39160D01*
X102311Y39174D01*
X102289Y39193D01*
X102268Y39214D01*
X102238Y39233D01*
X102206Y39254D01*
X102169Y39280D01*
X102133Y39302D01*
X102089Y39324D01*
X102042Y39342D01*
X101991Y39360D01*
X101936Y39378D01*
X101878Y39393D01*
X101962Y39728D01*
X101965D01*
X101980Y39724D01*
D02*
G37*
G36*
X210984Y94011D02*
X211021D01*
X211057Y94008D01*
X211104Y94004D01*
X211152Y93997D01*
X211257Y93979D01*
X211374Y93953D01*
X211490Y93917D01*
X211603Y93866D01*
X211607Y93862D01*
X211618Y93859D01*
X211632Y93851D01*
X211650Y93837D01*
X211676Y93822D01*
X211705Y93804D01*
X211771Y93757D01*
X211843Y93695D01*
X211916Y93622D01*
X211989Y93538D01*
X212051Y93440D01*
X212054Y93436D01*
X212058Y93426D01*
X212065Y93411D01*
X212076Y93393D01*
X212087Y93364D01*
X212098Y93335D01*
X212113Y93298D01*
X212127Y93258D01*
X212142Y93214D01*
X212156Y93167D01*
X212178Y93065D01*
X212196Y92949D01*
X212204Y92829D01*
Y92792D01*
X212200Y92767D01*
X212196Y92734D01*
X212193Y92694D01*
X212189Y92654D01*
X212178Y92607D01*
X212156Y92508D01*
X212123Y92399D01*
X212102Y92344D01*
X212076Y92293D01*
X212043Y92242D01*
X212011Y92191D01*
X212007Y92188D01*
X212003Y92181D01*
X211993Y92166D01*
X211974Y92148D01*
X211956Y92130D01*
X211931Y92104D01*
X211901Y92079D01*
X211872Y92050D01*
X211836Y92020D01*
X211792Y91991D01*
X211749Y91959D01*
X211701Y91929D01*
X211647Y91904D01*
X211592Y91875D01*
X211534Y91853D01*
X211468Y91831D01*
X211392Y92159D01*
X211396D01*
X211403Y92162D01*
X211417Y92170D01*
X211436Y92177D01*
X211457Y92184D01*
X211487Y92195D01*
X211545Y92224D01*
X211610Y92261D01*
X211676Y92304D01*
X211738Y92359D01*
X211792Y92417D01*
X211800Y92424D01*
X211814Y92446D01*
X211832Y92483D01*
X211858Y92530D01*
X211880Y92592D01*
X211901Y92661D01*
X211916Y92745D01*
X211920Y92836D01*
Y92865D01*
X211916Y92883D01*
Y92909D01*
X211912Y92938D01*
X211901Y93007D01*
X211887Y93083D01*
X211861Y93163D01*
X211825Y93247D01*
X211778Y93324D01*
Y93327D01*
X211771Y93331D01*
X211752Y93356D01*
X211723Y93389D01*
X211680Y93429D01*
X211625Y93476D01*
X211563Y93520D01*
X211487Y93560D01*
X211403Y93597D01*
X211399D01*
X211392Y93600D01*
X211381Y93604D01*
X211363Y93607D01*
X211341Y93615D01*
X211315Y93622D01*
X211254Y93633D01*
X211181Y93647D01*
X211101Y93662D01*
X211013Y93669D01*
X210919Y93673D01*
X210915D01*
X210904D01*
X210886D01*
X210864D01*
X210839Y93669D01*
X210806D01*
X210770Y93666D01*
X210729Y93662D01*
X210642Y93651D01*
X210547Y93633D01*
X210453Y93611D01*
X210358Y93582D01*
X210354D01*
X210347Y93578D01*
X210336Y93571D01*
X210318Y93564D01*
X210274Y93542D01*
X210224Y93509D01*
X210165Y93469D01*
X210103Y93418D01*
X210049Y93360D01*
X209998Y93291D01*
Y93287D01*
X209994Y93280D01*
X209987Y93269D01*
X209980Y93254D01*
X209972Y93236D01*
X209961Y93214D01*
X209940Y93163D01*
X209918Y93098D01*
X209899Y93025D01*
X209885Y92945D01*
X209881Y92861D01*
Y92836D01*
X209885Y92814D01*
Y92788D01*
X209889Y92763D01*
X209903Y92698D01*
X209921Y92621D01*
X209950Y92545D01*
X209991Y92465D01*
X210012Y92424D01*
X210041Y92388D01*
X210045Y92384D01*
X210049Y92381D01*
X210060Y92370D01*
X210071Y92355D01*
X210089Y92341D01*
X210111Y92323D01*
X210133Y92301D01*
X210162Y92282D01*
X210194Y92261D01*
X210231Y92235D01*
X210267Y92213D01*
X210311Y92191D01*
X210358Y92173D01*
X210409Y92155D01*
X210464Y92137D01*
X210522Y92122D01*
X210438Y91787D01*
X210435D01*
X210420Y91791D01*
X210398Y91798D01*
X210369Y91809D01*
X210336Y91820D01*
X210296Y91835D01*
X210253Y91853D01*
X210205Y91875D01*
X210103Y91926D01*
X210001Y91991D01*
X209950Y92031D01*
X209899Y92071D01*
X209856Y92115D01*
X209812Y92166D01*
X209808Y92170D01*
X209801Y92177D01*
X209794Y92195D01*
X209779Y92213D01*
X209761Y92242D01*
X209743Y92272D01*
X209725Y92312D01*
X209707Y92352D01*
X209685Y92399D01*
X209667Y92450D01*
X209648Y92505D01*
X209630Y92563D01*
X209616Y92625D01*
X209608Y92690D01*
X209601Y92759D01*
X209597Y92832D01*
Y92872D01*
X209601Y92901D01*
Y92934D01*
X209605Y92974D01*
X209612Y93018D01*
X209619Y93069D01*
X209637Y93174D01*
X209667Y93283D01*
X209707Y93393D01*
X209732Y93444D01*
X209761Y93495D01*
X209765Y93498D01*
X209769Y93506D01*
X209779Y93520D01*
X209794Y93535D01*
X209808Y93556D01*
X209830Y93582D01*
X209856Y93611D01*
X209885Y93640D01*
X209918Y93669D01*
X209950Y93702D01*
X210034Y93768D01*
X210133Y93830D01*
X210242Y93884D01*
X210245D01*
X210256Y93891D01*
X210274Y93895D01*
X210296Y93906D01*
X210325Y93913D01*
X210362Y93924D01*
X210402Y93939D01*
X210445Y93950D01*
X210493Y93961D01*
X210547Y93975D01*
X210660Y93993D01*
X210788Y94008D01*
X210919Y94015D01*
X210922D01*
X210937D01*
X210959D01*
X210984Y94011D01*
D02*
G37*
G36*
X209710Y91544D02*
X209743Y91540D01*
X209779Y91533D01*
X209816Y91525D01*
X209856Y91511D01*
X209859D01*
X209863Y91507D01*
X209885Y91500D01*
X209918Y91485D01*
X209961Y91464D01*
X210012Y91434D01*
X210071Y91398D01*
X210129Y91358D01*
X210191Y91307D01*
X210194D01*
X210198Y91300D01*
X210220Y91281D01*
X210253Y91249D01*
X210300Y91201D01*
X210354Y91147D01*
X210420Y91078D01*
X210493Y90994D01*
X210569Y90903D01*
X210573Y90899D01*
X210584Y90885D01*
X210602Y90863D01*
X210624Y90837D01*
X210653Y90805D01*
X210686Y90765D01*
X210722Y90725D01*
X210762Y90677D01*
X210849Y90586D01*
X210937Y90495D01*
X210981Y90452D01*
X211024Y90412D01*
X211064Y90375D01*
X211104Y90346D01*
X211108D01*
X211112Y90339D01*
X211123Y90332D01*
X211137Y90324D01*
X211177Y90299D01*
X211225Y90270D01*
X211283Y90244D01*
X211345Y90219D01*
X211414Y90204D01*
X211479Y90197D01*
X211483D01*
X211487D01*
X211508Y90200D01*
X211545Y90204D01*
X211585Y90215D01*
X211636Y90230D01*
X211687Y90255D01*
X211738Y90288D01*
X211789Y90332D01*
X211796Y90339D01*
X211810Y90357D01*
X211829Y90382D01*
X211854Y90422D01*
X211876Y90473D01*
X211898Y90532D01*
X211912Y90601D01*
X211916Y90677D01*
Y90699D01*
X211912Y90714D01*
X211909Y90757D01*
X211898Y90808D01*
X211883Y90863D01*
X211858Y90925D01*
X211825Y90983D01*
X211781Y91038D01*
X211774Y91045D01*
X211756Y91059D01*
X211727Y91081D01*
X211683Y91103D01*
X211632Y91129D01*
X211567Y91150D01*
X211494Y91165D01*
X211410Y91172D01*
X211443Y91489D01*
X211446D01*
X211457Y91485D01*
X211476D01*
X211501Y91482D01*
X211530Y91474D01*
X211563Y91467D01*
X211603Y91456D01*
X211643Y91445D01*
X211730Y91416D01*
X211818Y91373D01*
X211861Y91347D01*
X211905Y91314D01*
X211945Y91281D01*
X211982Y91245D01*
X211985Y91242D01*
X211989Y91234D01*
X212000Y91223D01*
X212011Y91205D01*
X212025Y91183D01*
X212040Y91158D01*
X212058Y91129D01*
X212076Y91092D01*
X212094Y91052D01*
X212113Y91009D01*
X212127Y90961D01*
X212142Y90910D01*
X212153Y90856D01*
X212164Y90797D01*
X212167Y90736D01*
X212171Y90670D01*
Y90634D01*
X212167Y90608D01*
X212164Y90579D01*
X212160Y90543D01*
X212153Y90503D01*
X212145Y90462D01*
X212120Y90368D01*
X212084Y90273D01*
X212062Y90226D01*
X212036Y90179D01*
X212003Y90135D01*
X211967Y90095D01*
X211963Y90091D01*
X211960Y90084D01*
X211945Y90077D01*
X211931Y90062D01*
X211912Y90044D01*
X211887Y90026D01*
X211861Y90008D01*
X211829Y89986D01*
X211759Y89949D01*
X211672Y89913D01*
X211629Y89898D01*
X211578Y89891D01*
X211527Y89884D01*
X211472Y89880D01*
X211465D01*
X211446D01*
X211417Y89884D01*
X211377Y89887D01*
X211334Y89895D01*
X211283Y89909D01*
X211228Y89924D01*
X211174Y89946D01*
X211166Y89949D01*
X211148Y89957D01*
X211119Y89971D01*
X211079Y89993D01*
X211035Y90022D01*
X210981Y90058D01*
X210926Y90102D01*
X210864Y90153D01*
X210857Y90160D01*
X210835Y90179D01*
X210817Y90197D01*
X210799Y90215D01*
X210777Y90237D01*
X210748Y90266D01*
X210718Y90295D01*
X210686Y90332D01*
X210649Y90368D01*
X210609Y90412D01*
X210569Y90459D01*
X210522Y90510D01*
X210475Y90568D01*
X210424Y90626D01*
X210420Y90630D01*
X210413Y90637D01*
X210402Y90652D01*
X210387Y90670D01*
X210365Y90692D01*
X210344Y90717D01*
X210296Y90776D01*
X210242Y90837D01*
X210187Y90896D01*
X210140Y90947D01*
X210121Y90969D01*
X210103Y90987D01*
X210100Y90990D01*
X210089Y91001D01*
X210074Y91016D01*
X210052Y91034D01*
X210027Y91052D01*
X210001Y91074D01*
X209940Y91118D01*
Y89877D01*
X209641D01*
Y91547D01*
X209645D01*
X209659D01*
X209681D01*
X209710Y91544D01*
D02*
G37*
%LPC*%
G36*
X128622Y33770D02*
X128619D01*
X128604D01*
X128586D01*
X128557Y33766D01*
X128524D01*
X128488Y33763D01*
X128444Y33759D01*
X128400Y33755D01*
X128302Y33737D01*
X128200Y33715D01*
X128105Y33683D01*
X128058Y33661D01*
X128018Y33639D01*
X128015D01*
X128007Y33632D01*
X127996Y33624D01*
X127982Y33617D01*
X127945Y33588D01*
X127902Y33551D01*
X127854Y33504D01*
X127807Y33450D01*
X127767Y33388D01*
X127734Y33322D01*
X127731Y33315D01*
X127727Y33297D01*
X127716Y33264D01*
X127705Y33217D01*
X127698Y33158D01*
X127687Y33086D01*
X127683Y33042D01*
Y32995D01*
X127680Y32947D01*
Y32365D01*
X129602D01*
Y32962D01*
X129598Y32987D01*
X129594Y33042D01*
X129591Y33104D01*
X129583Y33169D01*
X129572Y33235D01*
X129558Y33289D01*
X129554Y33297D01*
X129551Y33315D01*
X129540Y33340D01*
X129525Y33373D01*
X129503Y33410D01*
X129481Y33446D01*
X129456Y33482D01*
X129427Y33519D01*
X129420Y33522D01*
X129405Y33537D01*
X129379Y33559D01*
X129343Y33584D01*
X129296Y33613D01*
X129241Y33646D01*
X129179Y33675D01*
X129110Y33701D01*
X129106D01*
X129099Y33704D01*
X129088Y33708D01*
X129074Y33712D01*
X129056Y33715D01*
X129030Y33723D01*
X129005Y33730D01*
X128975Y33737D01*
X128903Y33748D01*
X128819Y33759D01*
X128724Y33766D01*
X128622Y33770D01*
D02*
G37*
G36*
X152222Y33740D02*
X152219D01*
X152204D01*
X152186D01*
X152157Y33736D01*
X152124D01*
X152088Y33733D01*
X152044Y33729D01*
X152000Y33725D01*
X151902Y33707D01*
X151800Y33685D01*
X151706Y33653D01*
X151658Y33631D01*
X151618Y33609D01*
X151614D01*
X151607Y33602D01*
X151596Y33594D01*
X151582Y33587D01*
X151545Y33558D01*
X151502Y33522D01*
X151454Y33474D01*
X151407Y33420D01*
X151367Y33358D01*
X151334Y33292D01*
X151331Y33285D01*
X151327Y33267D01*
X151316Y33234D01*
X151305Y33187D01*
X151298Y33128D01*
X151287Y33056D01*
X151283Y33012D01*
Y32965D01*
X151280Y32917D01*
Y32335D01*
X153201D01*
Y32932D01*
X153198Y32957D01*
X153194Y33012D01*
X153191Y33074D01*
X153183Y33139D01*
X153172Y33205D01*
X153158Y33259D01*
X153154Y33267D01*
X153151Y33285D01*
X153140Y33310D01*
X153125Y33343D01*
X153103Y33380D01*
X153081Y33416D01*
X153056Y33452D01*
X153027Y33489D01*
X153019Y33492D01*
X153005Y33507D01*
X152980Y33529D01*
X152943Y33554D01*
X152896Y33583D01*
X152841Y33616D01*
X152779Y33645D01*
X152710Y33671D01*
X152707D01*
X152699Y33674D01*
X152688Y33678D01*
X152674Y33682D01*
X152655Y33685D01*
X152630Y33693D01*
X152605Y33700D01*
X152575Y33707D01*
X152503Y33718D01*
X152419Y33729D01*
X152324Y33736D01*
X152222Y33740D01*
D02*
G37*
%LPD*%
D12*
X127735Y27109D02*
X132065D01*
Y36951D01*
X127735D02*
X132065D01*
X127735Y27109D02*
Y36951D01*
X151335Y27079D02*
X155665D01*
Y36921D01*
X151335D02*
X155665D01*
X151335Y27079D02*
Y36921D01*
X101827Y34744D02*
X105173D01*
Y40256D01*
X101827D02*
X105173D01*
X101827Y34744D02*
Y40256D01*
X204360Y103082D02*
X213440D01*
X204360Y84948D02*
Y103082D01*
Y84948D02*
X213440D01*
Y103082D01*
M02*
